<svg height="512" viewBox="0 0 128 128" width="512" xmlns="http://www.w3.org/2000/svg"><g id="Layer_3" data-name="Layer 3"><path d="m110.23 27.36-21.5-5.53a8.508 8.508 0 0 1 -6.14-6.2l-3.53-14.3a1.745 1.745 0 0 0 -1.7-1.33h-26.74a1.745 1.745 0 0 0 -1.7 1.33l-3.54 14.3a8.476 8.476 0 0 1 -6.14 6.2l-21.54 5.55a14.4 14.4 0 0 0 -10.35 15.28l-.12 83.59a1.741 1.741 0 0 0 1.75 1.75h109.01a1.748 1.748 0 0 0 1.75-1.73l.88-83.6a14.415 14.415 0 0 0 -10.39-15.31zm-6.2 97.14-2.14-44.47.08-.23 6.94-21.77a1.747 1.747 0 1 0 -3.33-1.06l-7.12 22.3-6.78 21.23a1.756 1.756 0 0 0 1.14 2.2 1.685 1.685 0 0 0 .53.09 1.765 1.765 0 0 0 1.67-1.22l3.83-11.99 1.68 34.92h-73.08l1.68-34.92 3.83 11.99a1.743 1.743 0 0 0 1.66 1.22 1.7 1.7 0 0 0 .54-.09 1.742 1.742 0 0 0 1.13-2.2l-6.77-21.23-7.12-22.3a1.752 1.752 0 1 0 -3.34 1.06l6.95 21.77.07.23-2.13 44.47h-13.22l.12-81.93a1.282 1.282 0 0 0 -.01-.19 10.9 10.9 0 0 1 7.78-11.63l21.5-5.53a11.98 11.98 0 0 0 8.66-8.75l3.21-12.97h24l3.21 12.97a11.98 11.98 0 0 0 8.66 8.75l21.45 5.52a10.9 10.9 0 0 1 7.82 11.64c0 .06-.01.12-.01.17l-.86 81.95z"/><path d="m54.253 71.173a1.75 1.75 0 0 0 -2.465-.221l-4.482 3.748a1.75 1.75 0 1 0 2.244 2.686l4.483-3.747a1.75 1.75 0 0 0 .22-2.466z"/><path d="m57.763 66.84 1.687-12.989a1.75 1.75 0 1 0 -3.471-.451l-1.687 12.989a1.75 1.75 0 0 0 1.508 1.961 1.8 1.8 0 0 0 .228.015 1.75 1.75 0 0 0 1.735-1.525z"/><path d="m79.547 77.792a1.75 1.75 0 0 0 1.123-3.092l-4.482-3.747a7.129 7.129 0 0 1 -2.5-4.563l-1.688-12.99a1.75 1.75 0 0 0 -3.471.451l1.684 12.989a10.617 10.617 0 0 0 3.73 6.8l4.483 3.747a1.74 1.74 0 0 0 1.121.405z"/><path d="m62.238 86.5v16.25a1.75 1.75 0 0 0 3.5 0v-16.25a1.75 1.75 0 0 0 -3.5 0z"/><path d="m52.77 121.068a1.75 1.75 0 1 0 2.77-2.14l-2.833-3.667a1.75 1.75 0 1 0 -2.77 2.14z"/><path d="m75.27 115.262-2.833 3.667a1.75 1.75 0 1 0 2.77 2.14l2.833-3.669a1.75 1.75 0 1 0 -2.77-2.14z"/></g></svg>