<svg height="512pt" viewBox="-32 0 511 512" width="512pt" xmlns="http://www.w3.org/2000/svg"><path d="m213.546875 32.796875c-.007813-.050781-.015625-.097656-.023437-.148437-.003907-.011719-.007813-.027344-.011719-.042969-3.765625-18.578125-20.222657-32.605469-39.894531-32.605469-17.167969 0-31.875 10.6875-37.847657 25.753906-5.296875-4.113281-11.9375-6.570312-19.144531-6.570312-15.566406 0-28.511719 11.429687-30.890625 26.335937-1.742187-.34375-3.539063-.527343-5.378906-.527343-15.375 0-27.882813 12.507812-27.882813 27.878906 0 .328125.015625.652344.027344.980468-1.0625-.136718-2.144531-.210937-3.246094-.210937-13.976562 0-25.394531 11.125-25.886718 24.980469-12.609376.023437-22.867188 10.289062-22.867188 22.90625 0 6.730468 2.9375 13.070312 8.054688 17.433594 0 0 .347656 71.863281 1.027343 75.824218.015625.144532.035157.289063.058594.433594l5.414063 33.324219c.597656 3.679687 3.78125 6.296875 7.394531 6.296875.398437 0 .804687-.03125 1.210937-.097656 4.085938-.664063 6.863282-4.515626 6.199219-8.605469l-5.324219-32.792969c-.019531-.21875-.050781-.441406-.089844-.664062-.589843-3.265626-.890624-6.546876-.890624-9.753907 0-.511719 0-66.125 0-66.125 0-2.445312-2.300782-7.128906-5.222657-9.207031-1.914062-1.363281-2.832031-3.722656-2.832031-6.066406 0-4.359375 3.546875-7.90625 7.910156-7.90625 3.960938 0 7.246094 2.933594 7.8125 6.742187v33.367188c0 4.140625 3.355469 7.5 7.496094 7.5 4.269531 0 10.621094-3.792969 13-6.578125l59.765625-36.035156c.210937-.125.417969-.265626.613281-.410157 2.683594-2.003906 5.585938-3.773437 8.628906-5.265625.027344-.011718.054688-.027344.085938-.042968 7.484375-3.648438 15.527344-5.5 23.902344-5.5 4.144531 0 7.5-3.359376 7.5-7.5 0-3-1.761719-5.578126-4.304688-6.78125 0 0 0-51.277344 0-52.410157 0-14.175781 11.53125-25.707031 25.707032-25.707031 12.378906 0 22.742187 8.796875 25.167968 20.46875.121094.660156 1.027344 4.992188 1.152344 8.203125.253906 6.589844.839844 13.144531.414062 19.671875-.519531 7.9375-1.660156 12.507812-2.765624 16.929688-1.246094 5-2.539063 10.167968-2.683594 18.839843-.117188 7.054688.597656 11.792969 1.496094 16.289063-2.277344-2.519532-4.734376-4.910156-7.402344-7.105469-3.191406-2.636719-7.921875-2.1875-10.558594 1.007813-2.632812 3.195312-2.183594 7.921874 1.011719 10.558593 12.632812 10.421875 19.875 25.785157 19.875 42.140625 0 3.425782-.332031 6.902344-.988281 10.332032-.042969.222656-.074219.449218-.097657.675781l-26.554687 268.644531c-.023438.246094-.039063.492188-.039063.738281 0 30.109375-24.496093 54.605469-54.609375 54.605469-26.332031 0-48.910156-18.773438-53.683594-44.636719-.015624-.097656-.035156-.195312-.058593-.292969l-.042969-.273437c-.003906-.035156-.011719-.070313-.015625-.105469-.097656-.5625-.1875-1.125-.265625-1.695312-.007812-.058594-.019531-.113282-.027344-.171875l-26.222656-161.453125c-.664062-4.085938-4.523438-6.859375-8.605469-6.199219-4.089843.664063-6.863281 4.519531-6.199219 8.605469l26.207032 161.367187c.097656.679688.203125 1.351563.316406 2.027344l.113281.714844c.039063.242187.089844.480469.148438.714843 6.289062 32.710938 34.945312 56.398438 68.335937 56.398438 38.257813 0 69.40625-31.019531 69.609375-69.226562l26.488281-267.960938c.664063-3.574219 1.039063-7.191406 1.144532-10.785156.859375-9.179688.984375-18.53125.375-27.800782-.660156-10.03125-1.945313-16.132812-2.980469-21.039062-1.09375-5.195312-1.886719-8.945312-1.769531-15.824219.113281-6.957031 1.050781-10.707031 2.238281-15.457031 1.203125-4.828125 2.570313-10.300781 3.179687-19.585938.628907-9.65625.160157-19.425781-1.371093-29.078124-.113281-.820313-.242188-1.636719-.402344-2.445313zm-133.191406 27.195313c2.703125 0 5.210937.839843 7.285156 2.269531 4.640625 2.855469 5.59375 10 5.59375 10.609375v39.234375l-18.070313 10.894531v-28.105469c0-1.316406-.675781-9.152343-3.082031-12.148437-2.394531-2.980469-4.609375-6.054688-4.609375-9.875 0-7.101563 5.78125-12.878906 12.882813-12.878906zm-34.136719 80.457031v-17.78125c-.03125-8.121094-2.195312-13.269531-3.96875-14.757813-2.480469-2.082031-3.90625-5.128906-3.90625-8.363281 0-6.015625 4.894531-10.90625 10.910156-10.90625s10.910156 4.894531 10.910156 10.90625v32.496094zm67.960938-41.003907c-.03125.015626-.066407.03125-.097657.046876-2.003906.984374-3.953125 2.070312-5.847656 3.234374v-31.003906c0-.019531-.003906-.039062-.003906-.054687-.15625-6.816407-3.542969-12.804688-6.132813-16.167969-1.105468-1.433594-1.757812-3.183594-1.761718-4.996094 0-.011718 0-.023437 0-.03125 0-8.980468 7.304687-16.289062 16.285156-16.289062 8.980468 0 16.289062 7.308594 16.289062 16.289062v42.917969c-6.472656 1.101563-12.742187 3.125-18.730468 6.054687zm0 0"/><path d="m235.085938 32.796875c.011718-.050781.015624-.097656.023437-.148437.003906-.011719.007813-.027344.011719-.042969 3.765625-18.578125 20.222656-32.605469 39.894531-32.605469 17.167969 0 31.875 10.6875 37.847656 25.753906 5.296875-4.113281 11.9375-6.570312 19.148438-6.570312 15.566406 0 28.507812 11.429687 30.890625 26.335937 1.738281-.34375 3.539062-.527343 5.378906-.527343 15.371094 0 27.878906 12.507812 27.878906 27.878906 0 .328125-.015625.652344-.027344.980468 1.066407-.136718 2.148438-.210937 3.246094-.210937 13.976563 0 25.394532 11.125 25.886719 24.980469 12.613281.023437 22.867187 10.289062 22.867187 22.90625 0 6.730468-2.933593 13.070312-8.054687 17.433594 0 0-.34375 71.863281-1.027344 75.824218-.015625.144532-.035156.289063-.058593.433594l-5.414063 33.324219c-.597656 3.679687-3.777344 6.296875-7.390625 6.296875-.402344 0-.804688-.03125-1.214844-.097656-4.085937-.664063-6.863281-4.515626-6.199218-8.605469l5.328124-32.792969c.019532-.21875.046876-.441406.089844-.664062.585938-3.265626.886719-6.546876.886719-9.753907 0-.511719 0-66.125 0-66.125 0-2.445312 2.300781-7.128906 5.222656-9.207031 1.914063-1.363281 2.832031-3.722656 2.832031-6.066406 0-4.359375-3.546874-7.90625-7.90625-7.90625-3.964843 0-7.246093 2.933594-7.8125 6.742187v33.367188c0 4.140625-3.355468 7.5-7.5 7.5-4.265624 0-10.617187-3.792969-13-6.578125l-59.765624-36.035156c-.210938-.125-.414063-.265626-.613282-.410157-2.683594-2.003906-5.585937-3.773437-8.628906-5.265625-.027344-.011718-.054688-.027344-.082031-.042968-7.484375-3.648438-15.527344-5.5-23.90625-5.5-4.140625 0-7.5-3.359376-7.5-7.5 0-3 1.761719-5.578126 4.304687-6.78125 0 0 0-51.277344 0-52.410157 0-14.175781-11.53125-25.707031-25.707031-25.707031-12.378906 0-22.742187 8.796875-25.167969 20.46875-.117187.660156-1.027344 4.992188-1.152344 8.203125-.253906 6.589844-.839843 13.144531-.414062 19.671875.519531 7.9375 1.660156 12.507812 2.765625 16.929688 1.25 5 2.539063 10.167968 2.683594 18.839843.117187 7.054688-.597657 11.792969-1.496094 16.289063 2.277344-2.519532 4.738281-4.910156 7.402344-7.105469 3.195312-2.636719 7.921875-2.1875 10.558593 1.007813 2.636719 3.195312 2.183594 7.921874-1.011718 10.558593-12.628906 10.421875-19.875 25.785157-19.875 42.140625 0 3.425782.332031 6.902344.992187 10.332032.039063.222656.074219.449218.097657.675781l26.550781 268.644531c.027343.246094.039062.492188.039062.738281 0 30.109375 24.496094 54.605469 54.609375 54.605469 26.335938 0 48.914063-18.773438 53.683594-44.636719.019531-.097656.039062-.195312.058594-.292969l.042968-.273437c.007813-.035156.011719-.070313.019532-.105469.09375-.5625.1875-1.125.265625-1.695312.007812-.058594.015625-.113282.023437-.171875l26.222656-161.453125c.664063-4.085938 4.523438-6.859375 8.605469-6.199219 4.089844.664063 6.867188 4.519531 6.203125 8.605469l-26.210937 161.367187c-.09375.679688-.203125 1.351563-.316407 2.027344l-.113281.714844c-.035156.242187-.085937.480469-.148437.714843-6.289063 32.710938-34.941406 56.398438-68.335938 56.398438-38.257812 0-69.402344-31.019531-69.609375-69.226562l-26.484375-267.960938c-.667968-3.574219-1.039062-7.191406-1.148437-10.785156-.855469-9.179688-.984375-18.53125-.375-27.800782.660156-10.03125 1.945312-16.132812 2.980469-21.039062 1.097656-5.195312 1.886718-8.945312 1.773437-15.824219-.117187-6.957031-1.054687-10.707031-2.238281-15.457031-1.207032-4.828125-2.574219-10.300781-3.179688-19.585938-.632812-9.65625-.164062-19.425781 1.367188-29.078124.113281-.820313.242187-1.636719.402344-2.445313zm133.195312 27.195313c-2.707031 0-5.214844.839843-7.289062 2.269531-4.640626 2.855469-5.59375 10-5.59375 10.609375v39.234375l18.070312 10.894531v-28.105469c0-1.316406.675781-9.152343 3.082031-12.148437 2.394531-2.980469 4.609375-6.054688 4.609375-9.875 0-7.101563-5.777344-12.878906-12.878906-12.878906zm34.132812 80.457031v-17.78125c.03125-8.121094 2.199219-13.269531 3.96875-14.757813 2.480469-2.082031 3.90625-5.128906 3.90625-8.363281 0-6.015625-4.894531-10.90625-10.910156-10.90625s-10.90625 4.894531-10.90625 10.90625v32.496094zm-67.960937-41.003907c.035156.015626.066406.03125.101563.046876 2 .984374 3.949218 2.070312 5.84375 3.234374v-31.003906c0-.019531.003906-.039062.003906-.054687.15625-6.816407 3.542968-12.804688 6.132812-16.167969 1.105469-1.433594 1.757813-3.183594 1.761719-4.996094 0-.011718 0-.023437 0-.03125 0-8.980468-7.304687-16.289062-16.285156-16.289062s-16.289063 7.308594-16.289063 16.289062v42.917969c6.476563 1.101563 12.742188 3.125 18.730469 6.054687zm0 0"/></svg>