<?xml version="1.0" encoding="UTF-8" standalone="no"?>
<!-- Created with Inkscape (http://www.inkscape.org/) -->

<svg
   xmlns:osb="http://www.openswatchbook.org/uri/2009/osb"
   xmlns:dc="http://purl.org/dc/elements/1.1/"
   xmlns:cc="http://creativecommons.org/ns#"
   xmlns:rdf="http://www.w3.org/1999/02/22-rdf-syntax-ns#"
   xmlns:svg="http://www.w3.org/2000/svg"
   xmlns="http://www.w3.org/2000/svg"
   xmlns:xlink="http://www.w3.org/1999/xlink"
   xmlns:sodipodi="http://sodipodi.sourceforge.net/DTD/sodipodi-0.dtd"
   xmlns:inkscape="http://www.inkscape.org/namespaces/inkscape"
   width="23.025942mm"
   height="32.723839mm"
   viewBox="0 0 87.498582 124.35059"
   version="1.1"
   id="svg8"
   inkscape:version="0.92.3 (2405546, 2018-03-11)"
   sodipodi:docname="figure.svg"
   inkscape:export-filename="C:\xampp\htdocs\klinikk\logo-4png.png"
   inkscape:export-xdpi="96"
   inkscape:export-ydpi="96">
  <defs
     id="defs2">
    <linearGradient
       inkscape:collect="always"
       id="linearGradient1252">
      <stop
         style="stop-color:#f75f49;stop-opacity:1;"
         offset="0"
         id="stop1248" />
      <stop
         style="stop-color:#fffaa7;stop-opacity:1"
         offset="1"
         id="stop1250" />
    </linearGradient>
    <linearGradient
       id="linearGradient1234"
       inkscape:collect="always">
      <stop
         id="stop1230"
         offset="0"
         style="stop-color:#f75f49;stop-opacity:1;" />
      <stop
         id="stop1232"
         offset="1"
         style="stop-color:#f7ff49;stop-opacity:1" />
    </linearGradient>
    <linearGradient
       id="linearGradient2379"
       osb:paint="solid">
      <stop
         style="stop-color:#f75f49;stop-opacity:1;"
         offset="0"
         id="stop2377" />
    </linearGradient>
    <linearGradient
       id="linearGradient2371"
       osb:paint="solid">
      <stop
         style="stop-color:#f75f49;stop-opacity:1;"
         offset="0"
         id="stop2369" />
    </linearGradient>
    <linearGradient
       inkscape:collect="always"
       xlink:href="#linearGradient1252"
       id="linearGradient2403-3"
       gradientUnits="userSpaceOnUse"
       x1="478.83026"
       y1="-179.48985"
       x2="588.52814"
       y2="-300.19107"
       gradientTransform="matrix(0.71366003,0,0,0.71366003,-137.43912,-385.226)" />
    <linearGradient
       inkscape:collect="always"
       xlink:href="#linearGradient1234"
       id="linearGradient2411-2"
       x1="475.05048"
       y1="-188.56128"
       x2="593.2926"
       y2="-190.65158"
       gradientUnits="userSpaceOnUse"
       gradientTransform="matrix(0.71366003,0,0,0.71366003,-134.74165,-378.75209)" />
  </defs>
  <sodipodi:namedview
     id="base"
     pagecolor="#ffffff"
     bordercolor="#666666"
     borderopacity="1.0"
     inkscape:pageopacity="0.0"
     inkscape:pageshadow="2"
     inkscape:zoom="0.98994949"
     inkscape:cx="209.5683"
     inkscape:cy="50.163603"
     inkscape:document-units="mm"
     inkscape:current-layer="layer1-4"
     showgrid="false"
     inkscape:window-width="1920"
     inkscape:window-height="1017"
     inkscape:window-x="-8"
     inkscape:window-y="-8"
     inkscape:window-maximized="1"
     showborder="true"
     fit-margin-top="0"
     fit-margin-left="0"
     fit-margin-right="0"
     fit-margin-bottom="0"
     inkscape:snap-nodes="false"
     scale-x="3.8" />
  <metadata
     id="metadata5">
    <rdf:RDF>
      <cc:Work
         rdf:about="">
        <dc:format>image/svg+xml</dc:format>
        <dc:type
           rdf:resource="http://purl.org/dc/dcmitype/StillImage" />
        <dc:title></dc:title>
      </cc:Work>
    </rdf:RDF>
  </metadata>
  <g
     inkscape:label="Layer 1"
     inkscape:groupmode="layer"
     id="layer1"
     transform="translate(243.31464,271.05357)">
    <g
       id="g867"
       transform="translate(-404.28005,327.12755)">
      <g
         style="opacity:1"
         id="layer1-4"
         inkscape:label="Layer 1"
         transform="translate(-42.333333,-18.142876)">
        <flowRoot
           xml:space="preserve"
           id="flowRoot876"
           style="font-style:normal;font-weight:normal;font-size:40px;line-height:1.25;font-family:sans-serif;letter-spacing:0px;word-spacing:0px;fill:#000000;fill-opacity:1;stroke:none"
           transform="matrix(0.26458333,0,0,0.26458333,426.95862,-358.12157)"><flowRegion
             id="flowRegion878"><rect
               id="rect880"
               width="1448.5714"
               height="280"
               x="345.71429"
               y="-1108.9089" /></flowRegion><flowPara
             id="flowPara882" /></flowRoot>        <text
           id="text952"
           y="155.83679"
           x="466.26822"
           style="font-style:normal;font-weight:normal;font-size:10.58333302px;line-height:1.25;font-family:sans-serif;letter-spacing:0px;word-spacing:0px;fill:#f75f49;fill-opacity:1;stroke:none;stroke-width:0.26458332"
           xml:space="preserve"><tspan
             id="tspan950"
             style="font-style:normal;font-variant:normal;font-weight:bold;font-stretch:normal;font-size:50.79999924px;font-family:sans-serif;-inkscape-font-specification:'sans-serif Bold';fill:#f75f49;fill-opacity:1;stroke-width:0.26458332"
             y="165.49229"
             x="466.26822"
             sodipodi:role="line" /></text>
        <flowRoot
           xml:space="preserve"
           id="flowRoot874"
           style="font-style:normal;font-variant:normal;font-weight:normal;font-stretch:normal;font-size:32px;line-height:1.25;font-family:'Baskerville Old Face';-inkscape-font-specification:'Baskerville Old Face';letter-spacing:0px;word-spacing:0px;fill:#000000;fill-opacity:1;stroke:none"
           transform="matrix(0.26458333,0,0,0.26458333,-147.96763,-706.89292)"><flowRegion
             id="flowRegion876"
             style="font-size:32px"><rect
               id="rect878"
               width="1068.5714"
               height="605.71429"
               x="302.85715"
               y="3662.4382"
               style="font-size:32px" /></flowRegion><flowPara
             id="flowPara880" /></flowRoot>        <flowRoot
           xml:space="preserve"
           id="flowRoot882"
           style="font-style:normal;font-variant:normal;font-weight:normal;font-stretch:normal;font-size:64px;line-height:1.25;font-family:'Baskerville Old Face';-inkscape-font-specification:'Baskerville Old Face';letter-spacing:0px;word-spacing:0px;fill:#000000;fill-opacity:1;stroke:none"
           transform="matrix(0.26458333,0,0,0.26458333,-147.96763,-706.89292)"><flowRegion
             id="flowRegion884"><rect
               id="rect886"
               width="971.42859"
               height="582.85712"
               x="280"
               y="3673.8669" /></flowRegion><flowPara
             id="flowPara888" /></flowRoot>        <flowRoot
           xml:space="preserve"
           id="flowRoot894"
           style="font-style:normal;font-variant:normal;font-weight:normal;font-stretch:normal;font-size:64px;line-height:1.25;font-family:'Baskerville Old Face';-inkscape-font-specification:'Baskerville Old Face';letter-spacing:0px;word-spacing:0px;fill:#000000;fill-opacity:1;stroke:none"
           transform="matrix(0.26458333,0,0,0.26458333,-147.96763,-706.89292)"><flowRegion
             id="flowRegion896"><rect
               id="rect898"
               width="154.28572"
               height="240"
               x="274.28571"
               y="3873.8669" /></flowRegion><flowPara
             id="flowPara900" /></flowRoot>        <path
           style="opacity:1;fill:url(#linearGradient2403-3);fill-opacity:1;stroke:url(#linearGradient2411-2);stroke-width:0.19842927;stroke-linecap:butt;stroke-linejoin:miter;stroke-miterlimit:4;stroke-dasharray:none;stroke-opacity:1"
           d="m 205.61846,-484.12695 c 0,0 -3.69374,-2.01564 -1.55764,-6.48652 2.13607,-4.47089 6.98148,-6.56792 6.98148,-6.56792 l 0.89733,-0.80526 3.84458,-3.36262 c 0.44028,-0.39498 0.76147,-0.53864 1.21441,-0.61467 1.2078,-0.13838 3.64163,-0.26212 3.75348,0.96808 0.14901,1.63934 2.91051,1.12415 2.91051,1.12415 l 4.63077,-0.33962 10.94789,-1.95646 c 0,0 2.55523,0.20227 5.2065,-3.34871 2.98057,-4.86826 7.69984,-13.90936 7.69984,-13.90936 l 0.53179,-9.13482 c 0,0 0.59944,-2.41948 -2.96593,-8.05325 -3.64478,-5.75921 -18.62868,-20.81441 -18.62868,-20.81441 l -14.1081,-10.73011 c 0,0 -1.39094,-1.96223 -5.16635,-1.91253 -2.30349,0.0303 -3.59769,0.16013 -4.74087,0.48919 -0.99757,0.0514 -1.8536,0.42876 -2.22964,-0.90641 -0.55528,-1.97704 -1.12763,-5.18948 1.35706,-5.46945 3.52703,-0.39742 5.61345,-0.89418 5.61345,-0.89418 0,0 0.64579,-0.14902 -0.69547,-1.39094 -1.34127,-1.24192 0.89416,-1.68898 0.89416,-1.68898 l 3.03028,2.4838 c 0,0 0.89416,2.28512 1.39093,2.48382 0.49677,0.19872 7.6005,6.40826 9.83594,7.40179 2.23543,0.99355 6.65664,3.17928 7.30243,3.92444 0.6458,0.74515 8.64371,7.20307 8.64371,7.20307 l 1.73867,0.94386 3.15956,1.34658 3.052,-0.58974 c 0,0 -0.44908,-1.25411 -1.54197,-2.09862 -1.09288,-0.8445 -1.04318,-1.73867 -1.04318,-1.73867 0,0 -0.40715,-1.22297 -0.59348,-2.7657 -0.12278,-1.01614 -0.031,-2.13714 -0.0843,-3.25882 -0.0988,-2.07964 0.17504,-3.96957 0.28037,-4.15916 0.24837,-0.44708 1.24189,-3.7754 2.83154,-4.37152 1.58965,-0.59612 5.61344,-2.23542 9.93528,0.29806 4.32186,2.5335 3.82508,10.48173 3.82508,10.48173 l -1.44061,5.2657 c 0,0 -0.54644,2.03674 1.689,2.08642 2.23544,0.0497 2.93091,-0.99353 2.93091,-0.99353 0,0 2.53349,-3.22899 6.3089,-5.067 3.7754,-1.83804 -1.93737,-4.96765 -1.93737,-4.96765 0,0 -1.53997,-1.58963 -0.29808,-1.34126 1.24192,0.24838 3.22897,-0.34774 4.32186,0.44709 1.09288,0.79482 1.59911,1.63269 4.57024,3.77541 1.3699,0.98796 0.0993,2.38446 0.0993,2.38446 0,0 -2.13608,1.19224 -2.53349,2.53351 -0.39742,1.34126 -3.82507,5.31538 -3.82507,5.31538 l -3.57673,3.37797 c 0,0 -2.13607,1.2916 -1.19221,2.38449 0.94383,1.09287 4.18747,9.16643 4.18747,9.16643 0,0 2.57431,6.88235 3.18617,9.97719 0.61876,3.12963 -0.66733,12.74864 -0.66733,12.74864 0,0 -0.54645,1.58966 1.34125,3.52702 1.88772,1.9374 7.94823,10.28304 7.94823,10.63078 0,0.34772 5.11668,10.03463 5.11668,10.03463 0,0 1.88771,3.07993 -0.54644,5.31538 -2.43414,2.23544 -5.56377,5.7128 -9.33917,8.04758 -3.77541,2.33478 -9.93529,7.00436 -11.57461,7.6005 -1.30765,0.4755 -3.95854,1.84031 -5.27499,2.31363 -0.29099,0.10462 -0.65902,-0.0866 -0.65902,-0.0866 l -1.14044,-0.5277 c -1.07911,-0.25463 -1.12215,0.48656 -1.12215,0.48656 0,0 -4.35686,8.58039 -3.32832,11.04283 0.5861,1.40314 -2.43414,1.17753 -2.88123,0.78015 -0.44708,-0.39744 -2.98624,-4.97499 -3.03592,-6.4156 -0.0465,-1.35326 -0.84933,-13.92699 -0.4787,-16.10077 0.0846,-0.52744 0.49804,-0.6992 0.97807,-0.66104 0.27517,0.0248 0.64891,0.086 1.19852,0.13487 1.56764,0.0962 4.85447,0.36158 4.85447,0.36158 0,0 0.99269,0.17188 1.99763,-0.46823 1.14256,-0.89421 15.15132,-8.99147 15.15132,-8.99147 0,0 3.42767,-1.44063 -0.69548,-4.71925 -4.12315,-3.27864 -10.5314,-8.44501 -10.5314,-8.44501 0,0 -0.74516,-1.49027 -2.28511,-0.0993 -1.53997,1.39095 -15.00227,10.13401 -15.00227,10.13401 0,0 -1.98706,0.69545 -4.22251,0.7451 -2.23543,0.0498 -18.47899,3.36782 -21.06281,2.98061 -2.70359,-0.22255 -4.27363,-0.17696 -4.86829,-1.98163 -0.28032,-1.28072 -3.05887,4.76352 -9.76519,5.60803 z"
           id="path1027-3-9"
           inkscape:connector-curvature="0"
           sodipodi:nodetypes="csccccsccccccsccsccsccccsccccccscssscsccccscssscsccscsccsccssscccsccccccccccccccccc" />
      </g>
    </g>
  </g>
</svg>
