<svg height="512pt" viewBox="0 -51 512 512" width="512pt" xmlns="http://www.w3.org/2000/svg"><path d="m504.5 395.320312h-148.640625c29.042969-17.878906 48.449219-49.964843 48.449219-86.503906v-5.121094h5.441406c24.054688 0 43.625-19.570312 43.625-43.625v-12.523437c0-17.664063-14.371094-32.03125-32.03125-32.03125-6.257812 0-12.097656 1.808594-17.035156 4.921875v-11.128906c0-10.6875-6.144532-20.226563-15.753906-24.683594-.105469-.082031-.207032-.171875-.316407-.25l-118.074219-86.597656-22.089843-20.78125c-1.695313-1.59375-3.503907-3.0625-5.394531-4.421875 3.667968-2.261719 6.890624-5.332031 9.394531-9.101563l10.773437-16.210937c3.328125-5.019531 5.085938-10.835938 5.085938-16.824219 0-10.21875-5.078125-19.703125-13.585938-25.367188-13.980468-9.277343-32.90625-5.460937-42.191406 8.507813l-10.769531 16.203125c-3.734375 5.621094-5.378907 12.121094-5.03125 18.503906-3.507813-.371094-7.089844-.050781-10.515625.992188-6.773438 2.070312-12.484375 6.816406-15.757813 13.082031l-2.023437 2.882813c-2.382813 3.386718-1.566406 8.066406 1.824218 10.449218 3.386719 2.382813 8.066407 1.566406 10.449219-1.824218l2.332031-3.316407c.222657-.316406.421876-.652343.589844-1 1.421875-2.882812 3.894532-4.984375 6.964844-5.921875s6.296875-.574218 9.082031 1.023438l6.492188 3.722656c.039062.023438.078125.042969.113281.066406l24.789062 14.214844c2.5625 1.472656 4.949219 3.242188 7.101563 5.269531l18.714844 17.601563-8.988281 22.75-25.898438-13.839844-9.828125-6.105469c-3.523437-2.1875-8.144531-1.105469-10.332031 2.410157-2.183594 3.519531-1.105469 8.144531 2.414062 10.332031l4.222656 2.621093-25.179687 50.105469-55.457031-24.71875 33.375-47.480469c2.382812-3.390624 1.566406-8.066406-1.824219-10.449218-3.386719-2.382813-8.066406-1.566406-10.449219 1.820312l-38.613281 54.9375c-.035156.054688-.066406.109375-.101563.164063-.09375.140625-.1875.285156-.269531.433593-.058593.097657-.109375.195313-.15625.296876-.042969.078124-.085937.148437-.125.230468l-4.492187 9.5625c-6.589844 14.019532-6.738282 30.171875-.414063 44.316406 2.867188 6.410157 6.9375 12.097657 11.90625 16.820313-1.085937 2.769531-.988281 5.925781.410157 8.695313l14.117187 27.773437-52.117187 106.929687c-4.988282 10.230469-4.367188 22.105469 1.667968 31.761719.089844.144531.191406.28125.285156.425781h-73.164062c-4.140625 0-7.5 3.355469-7.5 7.5 0 4.140626 3.359375 7.5 7.5 7.5h497c4.140625 0 7.5-3.359374 7.5-7.5 0-4.144531-3.359375-7.5-7.5-7.5zm-100.1875-147.773437c0-9.390625 7.636719-17.03125 17.027344-17.03125s17.03125 7.640625 17.03125 17.03125v12.523437c0 15.78125-12.839844 28.621094-28.621094 28.621094h-5.4375zm-190.429688-209.460937 10.765626-16.207032c2.972656-4.464844 7.882812-6.882812 12.882812-6.882812 2.929688 0 5.890625.832031 8.507812 2.566406 4.316407 2.871094 6.890626 7.683594 6.890626 12.875 0 3.027344-.894532 5.980469-2.582032 8.523438l-10.769531 16.207031c-3.308594 4.980469-9.074219 7.550781-14.917969 6.738281l-10.101562-5.796875c-4.058594-5.195313-4.378906-12.453125-.675782-18.023437zm34.796876 345.894531h23.390624l11.945313 11.335937h-35.335937zm132.488281-175.753907c2.832031-.152343 5.421875-1.160156 7.503906-2.8125.410156 1.234376.636719 2.542969.636719 3.894532v99.507812c0 46.714844-37.222656 84.890625-83.558594 86.445313l-23.582031-22.382813-5.203125-40.828125h5.164062c27.25 0 51.382813-13.523437 66.09375-34.195312v5.191406c0 4.140625 3.359375 7.5 7.5 7.5 4.144532 0 7.5-3.359375 7.5-7.5v-52.09375c0-.007813 0-.015625 0-.019531v-41.625c0-.726563.070313-1.445313.195313-2.148438 3.433593.921875 6.980469 1.398438 10.578125 1.398438.75 0 1.5-.019532 2.253906-.0625zm-20.679688-18.464843c-.101562-.0625-.203125-.121094-.308593-.179688l-99.359376-54.136719 7.9375-20.09375 106.582032 78.167969c-5.234375.261719-10.367188-1.03125-14.851563-3.757812zm-242.105469-24.785157 1.367188-2.902343 8.460938 3.78125 55.09375 24.539062.050781.023438 63.164062 28.132812c.5625.253907.960938.789063 1.039063 1.402344l7.390625 57.992187c.523437 4.109376 4.273437 7.019532 8.386719 6.492188 4.109374-.523438 7.019531-4.28125 6.492187-8.390625l-7.386719-57.992187c-.738281-5.777344-4.5-10.835938-9.820312-13.207032l-55.980469-24.933594 24.488281-48.734374 26.722656 14.285156 101.699219 55.410156c-.875 2.695312-1.328125 5.53125-1.328125 8.433594v41.640625c0 36.445312-29.648437 66.097656-66.089844 66.097656h-7.078124l-1.589844-12.46875c-.523438-4.109375-4.273438-7.015625-8.390625-6.496094-4.109375.523438-7.015625 4.28125-6.492188 8.390625l2.390625 18.761719c.011719.109375.027344.214844.039063.324219l5.535156 43.417968h-19.847656l-38.171875-122.78125c-1.632813-5.253906-5.746094-9.375-10.996094-11.027343l-52.15625-16.382813c-.035156-.011718-.066406-.019531-.097656-.03125l-3.285156-.980468c-10.652344-3.1875-19.367188-10.835938-23.90625-20.984376-4.539063-10.152343-4.429688-21.746093.296874-31.8125zm60.625 105.03125 5.921876-23.074218 8.105468 2.550781c.558594.171875.992188.609375 1.167969 1.167969l21.292969 68.488281c-1.683594.519531-3.34375 1.140625-4.972656 1.863281l-47.511719 21.21875zm-41.3125-37.863281 3.234376.96875 29.667968 9.320313-4.078125 15.882812-21.953125-8.191406-9.59375-18.875c.894532.324219 1.804688.621094 2.722656.894531zm-45.5 137.5625 50.769532-104.164062 20.011718 7.464843-17.832031 80.519532c-.613281 2.765625.382813 5.640625 2.582031 7.433594 2.195313 1.792968 5.214844 2.191406 7.800782 1.035156l61.097656-27.289063c1.089844-.484375 2.207031-.875 3.332031-1.222656l13.722657 44.132813v17.699218h-125.472657c-6.183593 0-11.832031-3.132812-15.105469-8.375-3.277343-5.238281-3.613281-11.679687-.90625-17.234375zm0 0"/></svg>