<?xml version="1.0" encoding="UTF-8" standalone="no"?>
<!-- Created with Inkscape (http://www.inkscape.org/) -->

<svg
   xmlns:osb="http://www.openswatchbook.org/uri/2009/osb"
   xmlns:dc="http://purl.org/dc/elements/1.1/"
   xmlns:cc="http://creativecommons.org/ns#"
   xmlns:rdf="http://www.w3.org/1999/02/22-rdf-syntax-ns#"
   xmlns:svg="http://www.w3.org/2000/svg"
   xmlns="http://www.w3.org/2000/svg"
   xmlns:xlink="http://www.w3.org/1999/xlink"
   xmlns:sodipodi="http://sodipodi.sourceforge.net/DTD/sodipodi-0.dtd"
   xmlns:inkscape="http://www.inkscape.org/namespaces/inkscape"
   width="192.61998mm"
   height="38.58247mm"
   viewBox="0 0 731.95595 146.61339"
   version="1.1"
   id="svg8"
   inkscape:version="0.92.3 (2405546, 2018-03-11)"
   sodipodi:docname="logo-twolines.svg"
   inkscape:export-filename="C:\xampp\htdocs\klinikk\logo-3.png"
   inkscape:export-xdpi="96"
   inkscape:export-ydpi="96">
  <defs
     id="defs2">
    <linearGradient
       inkscape:collect="always"
       id="linearGradient1252">
      <stop
         style="stop-color:#f75f49;stop-opacity:1;"
         offset="0"
         id="stop1248" />
      <stop
         style="stop-color:#fffaa7;stop-opacity:1"
         offset="1"
         id="stop1250" />
    </linearGradient>
    <linearGradient
       id="linearGradient1234"
       inkscape:collect="always">
      <stop
         id="stop1230"
         offset="0"
         style="stop-color:#f75f49;stop-opacity:1;" />
      <stop
         id="stop1232"
         offset="1"
         style="stop-color:#f7ff49;stop-opacity:1" />
    </linearGradient>
    <linearGradient
       id="linearGradient2379"
       osb:paint="solid">
      <stop
         style="stop-color:#f75f49;stop-opacity:1;"
         offset="0"
         id="stop2377" />
    </linearGradient>
    <linearGradient
       id="linearGradient2371"
       osb:paint="solid">
      <stop
         style="stop-color:#f75f49;stop-opacity:1;"
         offset="0"
         id="stop2369" />
    </linearGradient>
    <linearGradient
       inkscape:collect="always"
       xlink:href="#linearGradient1252"
       id="linearGradient2403-3"
       gradientUnits="userSpaceOnUse"
       x1="478.83026"
       y1="-179.48985"
       x2="588.52814"
       y2="-300.19107"
       gradientTransform="matrix(0.84142837,0,0,0.84142837,-230.75923,-340.29411)" />
    <linearGradient
       inkscape:collect="always"
       xlink:href="#linearGradient1234"
       id="linearGradient2411-2"
       x1="475.05048"
       y1="-188.56128"
       x2="593.2926"
       y2="-190.65158"
       gradientUnits="userSpaceOnUse"
       gradientTransform="matrix(0.84142837,0,0,0.84142837,-227.57883,-332.66116)" />
  </defs>
  <sodipodi:namedview
     id="base"
     pagecolor="#ffffff"
     bordercolor="#666666"
     borderopacity="1.0"
     inkscape:pageopacity="0.0"
     inkscape:pageshadow="2"
     inkscape:zoom="1.4"
     inkscape:cx="294.9874"
     inkscape:cy="89.386686"
     inkscape:document-units="mm"
     inkscape:current-layer="layer1-4"
     showgrid="false"
     inkscape:window-width="1920"
     inkscape:window-height="1001"
     inkscape:window-x="-9"
     inkscape:window-y="-9"
     inkscape:window-maximized="1"
     showborder="true"
     fit-margin-top="0"
     fit-margin-left="0"
     fit-margin-right="0"
     fit-margin-bottom="0"
     inkscape:snap-nodes="false"
     scale-x="3.8" />
  <metadata
     id="metadata5">
    <rdf:RDF>
      <cc:Work
         rdf:about="">
        <dc:format>image/svg+xml</dc:format>
        <dc:type
           rdf:resource="http://purl.org/dc/dcmitype/StillImage" />
        <dc:title />
      </cc:Work>
    </rdf:RDF>
  </metadata>
  <g
     inkscape:label="Layer 1"
     inkscape:groupmode="layer"
     id="layer1"
     transform="translate(275.6316,260.99941)">
    <g
       id="g867"
       transform="translate(-404.28005,327.12755)">
      <g
         style="opacity:1"
         id="layer1-4"
         inkscape:label="Layer 1"
         transform="translate(-42.333333,-18.142876)">
        <flowRoot
           xml:space="preserve"
           id="flowRoot876"
           style="font-style:normal;font-weight:normal;font-size:40px;line-height:1.25;font-family:sans-serif;letter-spacing:0px;word-spacing:0px;fill:#000000;fill-opacity:1;stroke:none"
           transform="matrix(0.26458333,0,0,0.26458333,426.95862,-358.12157)"><flowRegion
             id="flowRegion878"><rect
               id="rect880"
               width="1448.5714"
               height="280"
               x="345.71429"
               y="-1108.9089" /></flowRegion><flowPara
             id="flowPara882" /></flowRoot>        <text
           id="text952"
           y="155.83679"
           x="466.26822"
           style="font-style:normal;font-weight:normal;font-size:10.58333302px;line-height:1.25;font-family:sans-serif;letter-spacing:0px;word-spacing:0px;fill:#f75f49;fill-opacity:1;stroke:none;stroke-width:0.26458332"
           xml:space="preserve"><tspan
             id="tspan950"
             style="font-style:normal;font-variant:normal;font-weight:bold;font-stretch:normal;font-size:50.79999924px;font-family:sans-serif;-inkscape-font-specification:'sans-serif Bold';fill:#f75f49;fill-opacity:1;stroke-width:0.26458332"
             y="165.49229"
             x="466.26822"
             sodipodi:role="line" /></text>
        <flowRoot
           xml:space="preserve"
           id="flowRoot874"
           style="font-style:normal;font-variant:normal;font-weight:normal;font-stretch:normal;font-size:32px;line-height:1.25;font-family:'Baskerville Old Face';-inkscape-font-specification:'Baskerville Old Face';letter-spacing:0px;word-spacing:0px;fill:#000000;fill-opacity:1;stroke:none"
           transform="matrix(0.26458333,0,0,0.26458333,-147.96763,-706.89292)"><flowRegion
             id="flowRegion876"
             style="font-size:32px"><rect
               id="rect878"
               width="1068.5714"
               height="605.71429"
               x="302.85715"
               y="3662.4382"
               style="font-size:32px" /></flowRegion><flowPara
             id="flowPara880" /></flowRoot>        <flowRoot
           xml:space="preserve"
           id="flowRoot882"
           style="font-style:normal;font-variant:normal;font-weight:normal;font-stretch:normal;font-size:64px;line-height:1.25;font-family:'Baskerville Old Face';-inkscape-font-specification:'Baskerville Old Face';letter-spacing:0px;word-spacing:0px;fill:#000000;fill-opacity:1;stroke:none"
           transform="matrix(0.26458333,0,0,0.26458333,-147.96763,-706.89292)"><flowRegion
             id="flowRegion884"><rect
               id="rect886"
               width="971.42859"
               height="582.85712"
               x="280"
               y="3673.8669" /></flowRegion><flowPara
             id="flowPara888" /></flowRoot>        <flowRoot
           xml:space="preserve"
           id="flowRoot894"
           style="font-style:normal;font-variant:normal;font-weight:normal;font-stretch:normal;font-size:64px;line-height:1.25;font-family:'Baskerville Old Face';-inkscape-font-specification:'Baskerville Old Face';letter-spacing:0px;word-spacing:0px;fill:#000000;fill-opacity:1;stroke:none"
           transform="matrix(0.26458333,0,0,0.26458333,-147.96763,-706.89292)"><flowRegion
             id="flowRegion896"><rect
               id="rect898"
               width="154.28572"
               height="240"
               x="274.28571"
               y="3873.8669" /></flowRegion><flowPara
             id="flowPara900" /></flowRoot>        <path
           style="opacity:1;fill:url(#linearGradient2403-3);fill-opacity:1;stroke:url(#linearGradient2411-2);stroke-width:0.23395456;stroke-linecap:butt;stroke-linejoin:miter;stroke-miterlimit:4;stroke-dasharray:none;stroke-opacity:1"
           d="m 173.7168,-456.90155 c 0,0 -4.35503,-2.3765 -1.8365,-7.64782 2.51849,-5.27132 8.23139,-7.74379 8.23139,-7.74379 l 1.05798,-0.94942 4.53288,-3.96464 c 0.51911,-0.4657 0.8978,-0.63508 1.43183,-0.72472 1.42404,-0.16315 4.2936,-0.30905 4.42548,1.1414 0.17569,1.93283 3.43158,1.32541 3.43158,1.32541 l 5.45983,-0.40042 12.90792,-2.30673 c 0,0 3.0127,0.23848 6.13863,-3.94824 3.51419,-5.73984 9.07837,-16.39959 9.07837,-16.39959 l 0.62699,-10.77025 c 0,0 0.70676,-2.85265 -3.49693,-9.49504 -4.29731,-6.7903 -21.96381,-24.54087 -21.96381,-24.54087 l -16.63391,-12.65115 c 0,0 -1.63997,-2.31353 -6.0913,-2.25493 -2.71589,0.0357 -4.24179,0.1888 -5.58964,0.57677 -1.17616,0.0606 -2.18545,0.50552 -2.62882,-1.06869 -0.65469,-2.33099 -1.32951,-6.11857 1.60002,-6.44866 4.15849,-0.46857 6.61844,-1.05427 6.61844,-1.05427 0,0 0.76141,-0.1757 -0.81998,-1.63996 -1.5814,-1.46426 1.05424,-1.99136 1.05424,-1.99136 l 3.5728,2.92848 c 0,0 1.05425,2.69423 1.63995,2.9285 0.58571,0.2343 8.96124,7.55555 11.5969,8.72695 2.63564,1.17143 7.84839,3.74848 8.6098,4.62705 0.76142,0.87855 10.19122,8.49265 10.19122,8.49265 l 2.04994,1.11284 3.72523,1.58766 3.5984,-0.69532 c 0,0 -0.52948,-1.47864 -1.81803,-2.47434 -1.28854,-0.99569 -1.22994,-2.04995 -1.22994,-2.04995 0,0 -0.48004,-1.44192 -0.69973,-3.26085 -0.14476,-1.19806 -0.0366,-2.51976 -0.0994,-3.84225 -0.11648,-2.45197 0.20638,-4.68026 0.33057,-4.90379 0.29284,-0.52712 1.46423,-4.45132 3.33848,-5.15416 1.87425,-0.70285 6.61843,-2.63564 11.71402,0.35142 5.09561,2.98708 4.50989,12.3583 4.50989,12.3583 l -1.69853,6.20843 c 0,0 -0.64427,2.40138 1.99139,2.45996 2.63566,0.0586 3.45564,-1.17141 3.45564,-1.17141 0,0 2.98706,-3.80708 7.4384,-5.97415 4.45131,-2.16711 -2.28423,-5.85702 -2.28423,-5.85702 0,0 -1.81567,-1.87423 -0.35144,-1.58139 1.46426,0.29285 3.80706,-0.41 5.09561,0.52713 1.28854,0.93712 1.8854,1.925 5.38846,4.45133 1.61516,1.16484 0.11708,2.81136 0.11708,2.81136 0,0 -2.51851,1.40569 -2.98707,2.98709 -0.46857,1.58139 -4.50988,6.267 -4.50988,6.267 l -4.21708,3.98274 c 0,0 -2.5185,1.52284 -1.40565,2.81139 1.1128,1.28853 4.93716,10.80752 4.93716,10.80752 0,0 3.03519,8.11452 3.7566,11.76343 0.72954,3.68994 -0.78681,15.03106 -0.78681,15.03106 0,0 -0.64428,1.87426 1.58138,4.15847 2.22568,2.28426 9.37122,12.12404 9.37122,12.53404 0,0.40997 6.03273,11.83115 6.03273,11.83115 0,0 2.22568,3.63134 -0.64427,6.26701 -2.86993,2.63566 -6.55986,6.73558 -11.01118,9.48836 -4.45133,2.75278 -11.71403,8.25837 -13.64684,8.96124 -1.54176,0.56063 -4.66725,2.16978 -6.21939,2.72784 -0.34308,0.12335 -0.777,-0.1021 -0.777,-0.1021 l -1.34462,-0.62218 c -1.27231,-0.30022 -1.32305,0.57367 -1.32305,0.57367 0,0 -5.13688,10.11656 -3.9242,13.01986 0.69103,1.65434 -2.86993,1.38834 -3.39706,0.91982 -0.52712,-0.4686 -3.52088,-5.86568 -3.57945,-7.5642 -0.0548,-1.59554 -1.00139,-16.42038 -0.5644,-18.98333 0.0997,-0.62187 0.5872,-0.82438 1.15317,-0.77939 0.32444,0.0292 0.76509,0.1014 1.4131,0.15902 1.8483,0.11342 5.72358,0.42631 5.72358,0.42631 0,0 1.17041,0.20265 2.35527,-0.55206 1.34711,-1.0543 17.86389,-10.60123 17.86389,-10.60123 0,0 4.04134,-1.69855 -0.81999,-5.56415 -4.86133,-3.86563 -12.41686,-9.95694 -12.41686,-9.95694 0,0 -0.87857,-1.75708 -2.69422,-0.11708 -1.81568,1.63997 -17.68816,11.94832 -17.68816,11.94832 0,0 -2.34281,0.81996 -4.97848,0.8785 -2.63565,0.0587 -21.78733,3.97077 -24.83374,3.51424 -3.18762,-0.2624 -5.03875,-0.20864 -5.73987,-2.33641 -0.33051,-1.51001 -3.60651,5.61635 -11.51348,6.61205 z"
           id="path1027-3-9"
           inkscape:connector-curvature="0"
           sodipodi:nodetypes="csccccsccccccsccsccsccccsccccccscssscsccccscssscsccscsccsccssscccsccccccccccccccccc" />
        <g
           aria-label="Innlandet Helse og Fysioterapi"
           style="font-style:normal;font-weight:normal;font-size:10.58333302px;line-height:1.25;font-family:sans-serif;letter-spacing:0px;word-spacing:0px;opacity:1;fill:#f75f49;fill-opacity:1;stroke:none;stroke-width:0.26458332"
           id="text868-2"
           transform="translate(-259.99979,-198.04672)">
          <path
             d="m 604.65839,-303.18442 h -14.58516 v -3.77031 h 4.83691 v -29.39355 h -4.83691 v -3.77032 h 14.58516 v 3.77032 h -4.83692 v 29.39355 h 4.83692 z"
             style="font-style:normal;font-variant:normal;font-weight:normal;font-stretch:normal;font-size:50.79999924px;font-family:sans-serif;-inkscape-font-specification:sans-serif;fill:#f75f49;fill-opacity:1;stroke-width:0.26458332"
             id="path1061"
             inkscape:connector-curvature="0" />
          <path
             d="m 635.86268,-303.18442 h -4.66328 v -15.77578 q 0,-1.90996 -0.22324,-3.57187 -0.22324,-1.68672 -0.81856,-2.6293 -0.62011,-1.0418 -1.78593,-1.53789 -1.16582,-0.5209 -3.02618,-0.5209 -1.90996,0 -3.99355,0.94258 -2.08359,0.94258 -3.99355,2.40605 v 20.68711 h -4.66329 v -27.70683 h 4.66329 v 3.07578 q 2.18281,-1.81074 4.51445,-2.82774 2.33164,-1.01699 4.7873,-1.01699 4.48965,0 6.8461,2.70371 2.35644,2.70371 2.35644,7.78867 z"
             style="font-style:normal;font-variant:normal;font-weight:normal;font-stretch:normal;font-size:50.79999924px;font-family:sans-serif;-inkscape-font-specification:sans-serif;fill:#f75f49;fill-opacity:1;stroke-width:0.26458332"
             id="path1063"
             inkscape:connector-curvature="0" />
          <path
             d="m 668.00956,-303.18442 h -4.66328 v -15.77578 q 0,-1.90996 -0.22325,-3.57187 -0.22324,-1.68672 -0.81855,-2.6293 -0.62012,-1.0418 -1.78594,-1.53789 -1.16582,-0.5209 -3.02617,-0.5209 -1.90996,0 -3.99355,0.94258 -2.0836,0.94258 -3.99356,2.40605 v 20.68711 h -4.66328 v -27.70683 h 4.66328 v 3.07578 q 2.18281,-1.81074 4.51445,-2.82774 2.33164,-1.01699 4.78731,-1.01699 4.48965,0 6.84609,2.70371 2.35645,2.70371 2.35645,7.78867 z"
             style="font-style:normal;font-variant:normal;font-weight:normal;font-stretch:normal;font-size:50.79999924px;font-family:sans-serif;-inkscape-font-specification:sans-serif;fill:#f75f49;fill-opacity:1;stroke-width:0.26458332"
             id="path1065"
             inkscape:connector-curvature="0" />
          <path
             d="m 681.70174,-303.18442 h -4.66328 v -38.59609 h 4.66328 z"
             style="font-style:normal;font-variant:normal;font-weight:normal;font-stretch:normal;font-size:50.79999924px;font-family:sans-serif;-inkscape-font-specification:sans-serif;fill:#f75f49;fill-opacity:1;stroke-width:0.26458332"
             id="path1067"
             inkscape:connector-curvature="0" />
          <path
             d="m 712.50917,-303.18442 h -4.63848 v -2.95176 q -0.62012,0.42168 -1.68672,1.19063 -1.04179,0.74414 -2.03398,1.19062 -1.16582,0.57051 -2.67891,0.94258 -1.51308,0.39688 -3.54707,0.39688 -3.74551,0 -6.35,-2.48047 -2.60449,-2.48047 -2.60449,-6.3252 0,-3.15019 1.33945,-5.08496 1.36426,-1.95957 3.86953,-3.07578 2.53008,-1.11621 6.07715,-1.51308 3.54707,-0.39688 7.61504,-0.59532 v -0.71933 q 0,-1.5875 -0.57051,-2.6293 -0.5457,-1.0418 -1.5875,-1.63711 -0.99218,-0.57051 -2.38125,-0.76894 -1.38906,-0.19844 -2.90215,-0.19844 -1.83554,0 -4.09277,0.49609 -2.25723,0.47129 -4.66328,1.38906 h -0.24805 v -4.73769 q 1.36426,-0.37207 3.94395,-0.81856 2.57969,-0.44648 5.08496,-0.44648 2.92695,0 5.08496,0.49609 2.18281,0.47129 3.77031,1.63711 1.5627,1.14102 2.38125,2.95176 0.81856,1.81074 0.81856,4.48965 z m -4.63848,-6.82129 v -7.71425 q -2.1332,0.12402 -5.03535,0.37207 -2.87734,0.24804 -4.56406,0.71933 -2.00918,0.57051 -3.24942,1.78594 -1.24023,1.19062 -1.24023,3.29902 0,2.38125 1.43867,3.59668 1.43867,1.19063 4.39043,1.19063 2.45566,0 4.48965,-0.94258 2.03398,-0.96738 3.77031,-2.30684 z"
             style="font-style:normal;font-variant:normal;font-weight:normal;font-stretch:normal;font-size:50.79999924px;font-family:sans-serif;-inkscape-font-specification:sans-serif;fill:#f75f49;fill-opacity:1;stroke-width:0.26458332"
             id="path1069"
             inkscape:connector-curvature="0" />
          <path
             d="m 744.70565,-303.18442 h -4.66328 v -15.77578 q 0,-1.90996 -0.22324,-3.57187 -0.22325,-1.68672 -0.81856,-2.6293 -0.62012,-1.0418 -1.78594,-1.53789 -1.16582,-0.5209 -3.02617,-0.5209 -1.90996,0 -3.99355,0.94258 -2.0836,0.94258 -3.99356,2.40605 v 20.68711 h -4.66328 v -27.70683 h 4.66328 v 3.07578 q 2.18281,-1.81074 4.51445,-2.82774 2.33165,-1.01699 4.78731,-1.01699 4.48965,0 6.84609,2.70371 2.35645,2.70371 2.35645,7.78867 z"
             style="font-style:normal;font-variant:normal;font-weight:normal;font-stretch:normal;font-size:50.79999924px;font-family:sans-serif;-inkscape-font-specification:sans-serif;fill:#f75f49;fill-opacity:1;stroke-width:0.26458332"
             id="path1071"
             inkscape:connector-curvature="0" />
          <path
             d="m 776.15798,-303.18442 h -4.66328 v -2.90215 q -2.00918,1.73633 -4.19199,2.70371 -2.18281,0.96739 -4.7377,0.96739 -4.96093,0 -7.88789,-3.81992 -2.90214,-3.81993 -2.90214,-10.59161 0,-3.52226 0.99218,-6.27558 1.017,-2.75332 2.72852,-4.68809 1.68672,-1.88515 3.91914,-2.87734 2.25723,-0.99219 4.66328,-0.99219 2.18281,0 3.86953,0.47129 1.68672,0.44648 3.54707,1.41387 v -12.00547 h 4.66328 z m -4.66328,-6.82129 v -15.8998 q -1.88515,-0.84336 -3.37344,-1.16582 -1.48828,-0.32246 -3.24941,-0.32246 -3.91914,0 -6.10195,2.72851 -2.18282,2.72852 -2.18282,7.73907 0,4.93613 1.68672,7.51582 1.68672,2.55488 5.40743,2.55488 1.98437,0 4.01835,-0.86817 2.03399,-0.89296 3.79512,-2.28203 z"
             style="font-style:normal;font-variant:normal;font-weight:normal;font-stretch:normal;font-size:50.79999924px;font-family:sans-serif;-inkscape-font-specification:sans-serif;fill:#f75f49;fill-opacity:1;stroke-width:0.26458332"
             id="path1073"
             inkscape:connector-curvature="0" />
          <path
             d="m 808.52811,-316.55414 h -20.41426 q 0,2.55488 0.76894,4.46484 0.76895,1.88516 2.1084,3.10059 1.28985,1.19062 3.05098,1.78593 1.78594,0.59532 3.91914,0.59532 2.82773,0 5.68027,-1.11622 2.87735,-1.14101 4.09278,-2.23242 h 0.24804 v 5.08496 q -2.35644,0.99219 -4.81211,1.66192 -2.45566,0.66972 -5.15937,0.66972 -6.8957,0 -10.76524,-3.7207 -3.86953,-3.74551 -3.86953,-10.61641 0,-6.79648 3.6959,-10.79003 3.7207,-3.99356 9.77305,-3.99356 5.60586,0 8.63203,3.27422 3.05098,3.27422 3.05098,9.30176 z m -4.53926,-3.57188 q -0.0248,-3.67109 -1.86035,-5.68027 -1.81075,-2.00918 -5.53145,-2.00918 -3.74551,0 -5.97793,2.20762 -2.20761,2.20761 -2.50527,5.48183 z"
             style="font-style:normal;font-variant:normal;font-weight:normal;font-stretch:normal;font-size:50.79999924px;font-family:sans-serif;-inkscape-font-specification:sans-serif;fill:#f75f49;fill-opacity:1;stroke-width:0.26458332"
             id="path1075"
             inkscape:connector-curvature="0" />
          <path
             d="m 829.98416,-303.43246 q -1.31465,0.34726 -2.87734,0.5705 -1.53789,0.22325 -2.75332,0.22325 -4.2416,0 -6.44922,-2.28204 -2.20762,-2.28203 -2.20762,-7.31738 v -14.73398 h -3.15019 v -3.91914 h 3.15019 v -7.96231 h 4.66328 v 7.96231 h 9.62422 v 3.91914 h -9.62422 v 12.62558 q 0,2.18282 0.0992,3.42305 0.0992,1.21543 0.69453,2.28203 0.54571,0.99219 1.48828,1.46348 0.96739,0.44648 2.92696,0.44648 1.14101,0 2.38125,-0.32246 1.24023,-0.34726 1.78593,-0.57051 h 0.24805 z"
             style="font-style:normal;font-variant:normal;font-weight:normal;font-stretch:normal;font-size:50.79999924px;font-family:sans-serif;-inkscape-font-specification:sans-serif;fill:#f75f49;fill-opacity:1;stroke-width:0.26458332"
             id="path1077"
             inkscape:connector-curvature="0" />
          <path
             d="m 624.50214,-239.68442 h -9.525 v -16.27187 h -14.06426 v 16.27187 h -9.525 v -36.93418 h 9.525 v 13.51856 h 14.06426 v -13.51856 h 9.525 z"
             style="font-style:normal;font-variant:normal;font-weight:bold;font-stretch:normal;font-size:50.79999924px;font-family:sans-serif;-inkscape-font-specification:'sans-serif Bold';fill:#f75f49;fill-opacity:1;stroke-width:0.26458332"
             id="path1079"
             inkscape:connector-curvature="0" />
          <path
             d="m 660.89061,-251.96274 h -20.43906 q 0.19844,3.27422 2.48047,5.01055 2.30683,1.73633 6.77168,1.73633 2.82773,0 5.48183,-1.017 2.6541,-1.01699 4.19199,-2.18281 h 0.99219 v 7.16856 q -3.02617,1.21543 -5.70508,1.76113 -2.6789,0.5457 -5.92832,0.5457 -8.38398,0 -12.84882,-3.77031 -4.46485,-3.77031 -4.46485,-10.74043 0,-6.8957 4.2168,-10.91406 4.2416,-4.04317 11.60859,-4.04317 6.79649,0 10.21953,3.44786 3.42305,3.42304 3.42305,9.87226 z m -8.88008,-5.23379 q -0.0744,-2.80293 -1.38906,-4.21679 -1.31465,-1.41387 -4.09277,-1.41387 -2.57969,0 -4.2416,1.33945 -1.66192,1.33945 -1.86036,4.29121 z"
             style="font-style:normal;font-variant:normal;font-weight:bold;font-stretch:normal;font-size:50.79999924px;font-family:sans-serif;-inkscape-font-specification:'sans-serif Bold';fill:#f75f49;fill-opacity:1;stroke-width:0.26458332"
             id="path1081"
             inkscape:connector-curvature="0" />
          <path
             d="M 676.12069,-239.68442 H 667.191 v -38.59609 h 8.92969 z"
             style="font-style:normal;font-variant:normal;font-weight:bold;font-stretch:normal;font-size:50.79999924px;font-family:sans-serif;-inkscape-font-specification:'sans-serif Bold';fill:#f75f49;fill-opacity:1;stroke-width:0.26458332"
             id="path1083"
             inkscape:connector-curvature="0" />
          <path
             d="m 708.76366,-248.51489 q 0,4.31602 -3.86953,6.97012 -3.86953,2.6293 -10.5916,2.6293 -3.72071,0 -6.74688,-0.69453 -3.02617,-0.69454 -4.86172,-1.5379 v -7.34218 h 0.81856 q 0.66972,0.47129 1.53789,1.04179 0.89297,0.54571 2.50527,1.19063 1.38906,0.57051 3.1502,0.99219 1.76113,0.39687 3.77031,0.39687 2.62929,0 3.89433,-0.57051 1.26504,-0.59531 1.26504,-1.73632 0,-1.017 -0.74414,-1.46348 -0.74414,-0.47129 -2.82773,-0.89297 -0.99219,-0.22324 -2.70371,-0.47129 -1.68672,-0.27285 -3.07578,-0.64492 -3.79512,-0.99219 -5.63067,-3.07578 -1.83555,-2.1084 -1.83555,-5.23379 0,-4.01836 3.79512,-6.67246 3.81992,-2.67891 10.41797,-2.67891 3.12539,0 5.97793,0.64492 2.87734,0.62012 4.48965,1.33946 v 7.04453 h -0.76895 q -1.98437,-1.36426 -4.53925,-2.20762 -2.53008,-0.86816 -5.13457,-0.86816 -2.15801,0 -3.64629,0.59531 -1.46348,0.59531 -1.46348,1.68672 0,0.99219 0.66973,1.51308 0.66972,0.5209 3.15019,1.0418 1.36426,0.27285 2.92695,0.5457 1.5875,0.24805 3.175,0.64493 3.52227,0.91777 5.20899,2.90214 1.68672,1.95957 1.68672,4.91133 z"
             style="font-style:normal;font-variant:normal;font-weight:bold;font-stretch:normal;font-size:50.79999924px;font-family:sans-serif;-inkscape-font-specification:'sans-serif Bold';fill:#f75f49;fill-opacity:1;stroke-width:0.26458332"
             id="path1085"
             inkscape:connector-curvature="0" />
          <path
             d="M 742.15077,-251.96274 H 721.7117 q 0.19844,3.27422 2.48047,5.01055 2.30684,1.73633 6.77168,1.73633 2.82774,0 5.48184,-1.017 2.6541,-1.01699 4.19199,-2.18281 h 0.99219 v 7.16856 q -3.02617,1.21543 -5.70508,1.76113 -2.67891,0.5457 -5.92832,0.5457 -8.38399,0 -12.84883,-3.77031 -4.46484,-3.77031 -4.46484,-10.74043 0,-6.8957 4.21679,-10.91406 4.24161,-4.04317 11.6086,-4.04317 6.79648,0 10.21953,3.44786 3.42305,3.42304 3.42305,9.87226 z m -8.88008,-5.23379 q -0.0744,-2.80293 -1.38906,-4.21679 -1.31465,-1.41387 -4.09278,-1.41387 -2.57969,0 -4.2416,1.33945 -1.66191,1.33945 -1.86035,4.29121 z"
             style="font-style:normal;font-variant:normal;font-weight:bold;font-stretch:normal;font-size:50.79999924px;font-family:sans-serif;-inkscape-font-specification:'sans-serif Bold';fill:#f75f49;fill-opacity:1;stroke-width:0.26458332"
             id="path1087"
             inkscape:connector-curvature="0" />
          <path
             d="m 794.29022,-253.59985 q 0,6.8709 -4.01836,10.83965 -3.99356,3.94395 -11.23652,3.94395 -7.24297,0 -11.26133,-3.94395 -3.99356,-3.96875 -3.99356,-10.83965 0,-6.92051 4.01836,-10.86445 4.04317,-3.94395 11.23653,-3.94395 7.29257,0 11.26132,3.96875 3.99356,3.96875 3.99356,10.83965 z m -10.98848,6.77168 q 0.86817,-1.0666 1.28985,-2.55488 0.44648,-1.51309 0.44648,-4.16719 0,-2.45566 -0.44648,-4.11758 -0.44649,-1.66191 -1.24024,-2.6541 -0.79375,-1.01699 -1.90996,-1.43867 -1.11621,-0.42168 -2.40605,-0.42168 -1.28985,0 -2.30684,0.34727 -0.99219,0.34726 -1.90996,1.38906 -0.81856,0.96738 -1.31465,2.6541 -0.47129,1.68672 -0.47129,4.2416 0,2.28203 0.42168,3.96875 0.42168,1.66192 1.24024,2.67891 0.79375,0.96738 1.88515,1.41386 1.11621,0.44649 2.53008,0.44649 1.21543,0 2.30684,-0.39688 1.11621,-0.42168 1.88515,-1.38906 z"
             style="font-style:normal;font-variant:normal;font-weight:bold;font-stretch:normal;font-size:50.79999924px;font-family:sans-serif;-inkscape-font-specification:'sans-serif Bold';fill:#f75f49;fill-opacity:1;stroke-width:0.26458332"
             id="path1089"
             inkscape:connector-curvature="0" />
          <path
             d="m 827.82616,-242.88422 q 0,3.91914 -1.11621,6.59804 -1.11621,2.67891 -3.12539,4.192 -2.00918,1.53789 -4.86172,2.20761 -2.82774,0.69453 -6.39961,0.69453 -2.90215,0 -5.72988,-0.34726 -2.80293,-0.34727 -4.86172,-0.84336 v -6.97012 h 1.0914 q 1.63711,0.64492 3.99356,1.16582 2.35644,0.54571 4.2168,0.54571 2.48046,0 4.01836,-0.47129 1.56269,-0.44649 2.38125,-1.28985 0.76894,-0.79375 1.11621,-2.03398 0.34726,-1.24024 0.34726,-2.97656 v -0.5209 q -1.6123,1.31465 -3.57187,2.08359 -1.95957,0.76895 -4.36563,0.76895 -5.8539,0 -9.0289,-3.52227 -3.175,-3.52226 -3.175,-10.71562 0,-3.44786 0.96738,-5.95313 0.96738,-2.50527 2.72851,-4.36562 1.63711,-1.73633 4.01836,-2.70371 2.40606,-0.96739 4.91133,-0.96739 2.25723,0 4.09278,0.54571 1.86035,0.52089 3.37343,1.46347 l 0.32246,-1.24023 h 8.65684 z m -8.92969,-5.58106 v -12.62558 q -0.76894,-0.32246 -1.88515,-0.4961 -1.11622,-0.19843 -2.00918,-0.19843 -3.52227,0 -5.2834,2.03398 -1.76114,2.00918 -1.76114,5.63066 0,4.01836 1.48829,5.60586 1.51308,1.5875 4.46484,1.5875 1.33945,0 2.6293,-0.42168 1.28984,-0.42168 2.35644,-1.11621 z"
             style="font-style:normal;font-variant:normal;font-weight:bold;font-stretch:normal;font-size:50.79999924px;font-family:sans-serif;-inkscape-font-specification:'sans-serif Bold';fill:#f75f49;fill-opacity:1;stroke-width:0.26458332"
             id="path1091"
             inkscape:connector-curvature="0" />
          <path
             d="m 880.58574,-269.47485 h -16.99121 v 6.8709 h 15.75098 v 7.14375 h -15.75098 v 15.77578 h -9.47539 v -36.93418 h 26.4666 z"
             style="font-style:normal;font-variant:normal;font-weight:bold;font-stretch:normal;font-size:50.79999924px;font-family:sans-serif;-inkscape-font-specification:'sans-serif Bold';fill:#f75f49;fill-opacity:1;stroke-width:0.26458332"
             id="path1093"
             inkscape:connector-curvature="0" />
          <path
             d="m 899.23885,-249.53188 6.35,-18.0082 h 9.17773 l -15.47812,38.07519 h -9.67383 l 4.41523,-10.41797 -10.83964,-27.65722 h 9.37617 z"
             style="font-style:normal;font-variant:normal;font-weight:bold;font-stretch:normal;font-size:50.79999924px;font-family:sans-serif;-inkscape-font-specification:'sans-serif Bold';fill:#f75f49;fill-opacity:1;stroke-width:0.26458332"
             id="path1095"
             inkscape:connector-curvature="0" />
          <path
             d="m 943.9121,-248.51489 q 0,4.31602 -3.86953,6.97012 -3.86953,2.6293 -10.5916,2.6293 -3.7207,0 -6.74687,-0.69453 -3.02618,-0.69454 -4.86172,-1.5379 v -7.34218 h 0.81855 q 0.66973,0.47129 1.53789,1.04179 0.89297,0.54571 2.50528,1.19063 1.38906,0.57051 3.15019,0.99219 1.76113,0.39687 3.77031,0.39687 2.6293,0 3.89434,-0.57051 1.26504,-0.59531 1.26504,-1.73632 0,-1.017 -0.74414,-1.46348 -0.74414,-0.47129 -2.82774,-0.89297 -0.99218,-0.22324 -2.70371,-0.47129 -1.68672,-0.27285 -3.07578,-0.64492 -3.79512,-0.99219 -5.63066,-3.07578 -1.83555,-2.1084 -1.83555,-5.23379 0,-4.01836 3.79512,-6.67246 3.81992,-2.67891 10.41797,-2.67891 3.12539,0 5.97793,0.64492 2.87734,0.62012 4.48964,1.33946 v 7.04453 h -0.76894 q -1.98438,-1.36426 -4.53926,-2.20762 -2.53008,-0.86816 -5.13457,-0.86816 -2.15801,0 -3.64629,0.59531 -1.46348,0.59531 -1.46348,1.68672 0,0.99219 0.66973,1.51308 0.66973,0.5209 3.1502,1.0418 1.36425,0.27285 2.92695,0.5457 1.5875,0.24805 3.175,0.64493 3.52227,0.91777 5.20898,2.90214 1.68672,1.95957 1.68672,4.91133 z"
             style="font-style:normal;font-variant:normal;font-weight:bold;font-stretch:normal;font-size:50.79999924px;font-family:sans-serif;-inkscape-font-specification:'sans-serif Bold';fill:#f75f49;fill-opacity:1;stroke-width:0.26458332"
             id="path1097"
             inkscape:connector-curvature="0" />
          <path
             d="m 958.79492,-239.68442 h -8.92969 v -27.85566 h 8.92969 z m 0.24805,-31.82441 h -9.42578 v -6.77168 h 9.42578 z"
             style="font-style:normal;font-variant:normal;font-weight:bold;font-stretch:normal;font-size:50.79999924px;font-family:sans-serif;-inkscape-font-specification:'sans-serif Bold';fill:#f75f49;fill-opacity:1;stroke-width:0.26458332"
             id="path1099"
             inkscape:connector-curvature="0" />
          <path
             d="m 995.7043,-253.59985 q 0,6.8709 -4.01836,10.83965 -3.99356,3.94395 -11.23653,3.94395 -7.24296,0 -11.26132,-3.94395 -3.99356,-3.96875 -3.99356,-10.83965 0,-6.92051 4.01836,-10.86445 4.04316,-3.94395 11.23652,-3.94395 7.29258,0 11.26133,3.96875 3.99356,3.96875 3.99356,10.83965 z m -10.98848,6.77168 q 0.86816,-1.0666 1.28984,-2.55488 0.44649,-1.51309 0.44649,-4.16719 0,-2.45566 -0.44649,-4.11758 -0.44648,-1.66191 -1.24023,-2.6541 -0.79375,-1.01699 -1.90996,-1.43867 -1.11621,-0.42168 -2.40606,-0.42168 -1.28984,0 -2.30683,0.34727 -0.99219,0.34726 -1.90996,1.38906 -0.81856,0.96738 -1.31465,2.6541 -0.47129,1.68672 -0.47129,4.2416 0,2.28203 0.42168,3.96875 0.42168,1.66192 1.24023,2.67891 0.79375,0.96738 1.88516,1.41386 1.11621,0.44649 2.53008,0.44649 1.21543,0 2.30683,-0.39688 1.11621,-0.42168 1.88516,-1.38906 z"
             style="font-style:normal;font-variant:normal;font-weight:bold;font-stretch:normal;font-size:50.79999924px;font-family:sans-serif;-inkscape-font-specification:'sans-serif Bold';fill:#f75f49;fill-opacity:1;stroke-width:0.26458332"
             id="path1101"
             inkscape:connector-curvature="0" />
          <path
             d="m 1019.9633,-239.93247 q -1.4387,0.37207 -3.051,0.57051 -1.6123,0.22324 -3.944,0.22324 -5.2089,0 -7.7638,-2.10839 -2.5301,-2.1084 -2.5301,-7.21817 v -13.02246 h -3.67109 v -6.05234 h 3.67109 v -7.96231 h 8.9297 v 7.96231 h 8.3592 v 6.05234 h -8.3592 v 9.87227 q 0,1.46347 0.025,2.55488 0.025,1.09141 0.3969,1.95957 0.3472,0.86816 1.2154,1.38906 0.893,0.4961 2.5797,0.4961 0.6945,0 1.8107,-0.29766 1.141,-0.29766 1.5875,-0.5457 h 0.7442 z"
             style="font-style:normal;font-variant:normal;font-weight:bold;font-stretch:normal;font-size:50.79999924px;font-family:sans-serif;-inkscape-font-specification:'sans-serif Bold';fill:#f75f49;fill-opacity:1;stroke-width:0.26458332"
             id="path1103"
             inkscape:connector-curvature="0" />
          <path
             d="m 1052.7055,-251.96274 h -20.4391 q 0.1984,3.27422 2.4805,5.01055 2.3068,1.73633 6.7717,1.73633 2.8277,0 5.4818,-1.017 2.6541,-1.01699 4.192,-2.18281 h 0.9922 v 7.16856 q -3.0262,1.21543 -5.7051,1.76113 -2.6789,0.5457 -5.9283,0.5457 -8.384,0 -12.8489,-3.77031 -4.4648,-3.77031 -4.4648,-10.74043 0,-6.8957 4.2168,-10.91406 4.2416,-4.04317 11.6086,-4.04317 6.7965,0 10.2195,3.44786 3.4231,3.42304 3.4231,9.87226 z m -8.8801,-5.23379 q -0.074,-2.80293 -1.3891,-4.21679 -1.3146,-1.41387 -4.0927,-1.41387 -2.5797,0 -4.2416,1.33945 -1.662,1.33945 -1.8604,4.29121 z"
             style="font-style:normal;font-variant:normal;font-weight:bold;font-stretch:normal;font-size:50.79999924px;font-family:sans-serif;-inkscape-font-specification:'sans-serif Bold';fill:#f75f49;fill-opacity:1;stroke-width:0.26458332"
             id="path1105"
             inkscape:connector-curvature="0" />
          <path
             d="m 1079.1969,-259.03207 h -0.7938 q -0.5705,-0.19844 -1.8355,-0.29766 -1.2651,-0.0992 -2.1084,-0.0992 -1.91,0 -3.3735,0.24805 -1.4634,0.24804 -3.1502,0.84336 v 18.65312 h -8.9296 v -27.85566 h 8.9296 v 4.09277 q 2.9518,-2.53008 5.1346,-3.34863 2.1828,-0.84336 4.0184,-0.84336 0.4713,0 1.0666,0.0248 0.5953,0.0248 1.0418,0.0744 z"
             style="font-style:normal;font-variant:normal;font-weight:bold;font-stretch:normal;font-size:50.79999924px;font-family:sans-serif;-inkscape-font-specification:'sans-serif Bold';fill:#f75f49;fill-opacity:1;stroke-width:0.26458332"
             id="path1107"
             inkscape:connector-curvature="0" />
          <path
             d="m 1101.1738,-246.95219 v -5.8043 q -1.8107,0.14883 -3.9191,0.42168 -2.1084,0.24805 -3.1998,0.59531 -1.3395,0.42168 -2.0588,1.24024 -0.6945,0.79375 -0.6945,2.1084 0,0.86816 0.1488,1.41386 0.1488,0.54571 0.7441,1.0418 0.5705,0.49609 1.3643,0.74414 0.7937,0.22324 2.4805,0.22324 1.3394,0 2.7037,-0.5457 1.389,-0.5457 2.4308,-1.43867 z m 0,4.31601 q -0.7193,0.54571 -1.7859,1.31465 -1.0666,0.76895 -2.0092,1.21543 -1.3146,0.59531 -2.7285,0.86817 -1.4139,0.29765 -3.1006,0.29765 -3.9687,0 -6.6476,-2.45566 -2.679,-2.45567 -2.679,-6.27559 0,-3.05097 1.3643,-4.98574 1.3643,-1.93477 3.8695,-3.05098 2.4805,-1.11621 6.1516,-1.5875 3.6711,-0.47129 7.615,-0.69453 v -0.14883 q 0,-2.30683 -1.8851,-3.175 -1.8852,-0.89296 -5.5563,-0.89296 -2.2076,0 -4.7129,0.79375 -2.5052,0.76894 -3.5966,1.19062 h -0.8186 v -6.72207 q 1.4139,-0.37207 4.5889,-0.86816 3.1998,-0.5209 6.3996,-0.5209 7.615,0 10.9885,2.35644 3.3982,2.33164 3.3982,7.34219 v 18.95078 h -8.8553 z"
             style="font-style:normal;font-variant:normal;font-weight:bold;font-stretch:normal;font-size:50.79999924px;font-family:sans-serif;-inkscape-font-specification:'sans-serif Bold';fill:#f75f49;fill-opacity:1;stroke-width:0.26458332"
             id="path1109"
             inkscape:connector-curvature="0" />
          <path
             d="m 1147.3105,-253.99672 q 0,3.44785 -1.0666,6.27558 -1.0418,2.82774 -2.7533,4.66328 -1.7859,1.93477 -4.0432,2.92696 -2.2572,0.99218 -4.8369,0.99218 -2.3812,0 -4.0431,-0.52089 -1.6619,-0.4961 -3.3983,-1.41387 v 11.60859 h -8.9297 v -38.07519 h 8.9297 v 2.90215 q 2.0588,-1.63711 4.192,-2.65411 2.158,-1.01699 4.961,-1.01699 5.2089,0 8.0863,3.81992 2.9021,3.81993 2.9021,10.49239 z m -9.2025,0.17363 q 0,-4.06797 -1.3891,-5.90352 -1.389,-1.83554 -4.3904,-1.83554 -1.265,0 -2.6045,0.39687 -1.3394,0.37207 -2.5549,1.09141 v 14.01465 q 0.893,0.34726 1.91,0.44648 1.017,0.0992 2.0092,0.0992 3.547,0 5.2834,-2.05879 1.7363,-2.08359 1.7363,-6.25078 z"
             style="font-style:normal;font-variant:normal;font-weight:bold;font-stretch:normal;font-size:50.79999924px;font-family:sans-serif;-inkscape-font-specification:'sans-serif Bold';fill:#f75f49;fill-opacity:1;stroke-width:0.26458332"
             id="path1111"
             inkscape:connector-curvature="0" />
          <path
             d="m 1162.6895,-239.68442 h -8.9297 v -27.85566 h 8.9297 z m 0.248,-31.82441 h -9.4258 v -6.77168 h 9.4258 z"
             style="font-style:normal;font-variant:normal;font-weight:bold;font-stretch:normal;font-size:50.79999924px;font-family:sans-serif;-inkscape-font-specification:'sans-serif Bold';fill:#f75f49;fill-opacity:1;stroke-width:0.26458332"
             id="path1113"
             inkscape:connector-curvature="0" />
        </g>
      </g>
    </g>
  </g>
</svg>
