<?xml version="1.0" encoding="UTF-8" standalone="no"?>
<!-- Created with Inkscape (http://www.inkscape.org/) -->

<svg
   width="191.71831mm"
   height="38.518616mm"
   viewBox="0 0 728.52959 146.37074"
   version="1.1"
   id="svg8"
   inkscape:version="1.1.1 (3bf5ae0d25, 2021-09-20)"
   sodipodi:docname="logo-twolines-long.svg"
   inkscape:export-filename="C:\xampp\htdocs\klinikk\logo-3.png"
   inkscape:export-xdpi="96"
   inkscape:export-ydpi="96"
   xmlns:inkscape="http://www.inkscape.org/namespaces/inkscape"
   xmlns:sodipodi="http://sodipodi.sourceforge.net/DTD/sodipodi-0.dtd"
   xmlns="http://www.w3.org/2000/svg"
   xmlns:svg="http://www.w3.org/2000/svg"
   xmlns:rdf="http://www.w3.org/1999/02/22-rdf-syntax-ns#"
   xmlns:cc="http://creativecommons.org/ns#"
   xmlns:dc="http://purl.org/dc/elements/1.1/">
  <defs
     id="defs2">
    <linearGradient
       id="linearGradient2379"
       inkscape:swatch="solid">
      <stop
         style="stop-color:#f75f49;stop-opacity:1;"
         offset="0"
         id="stop2377" />
    </linearGradient>
    <linearGradient
       id="linearGradient2371"
       inkscape:swatch="solid">
      <stop
         style="stop-color:#f75f49;stop-opacity:1;"
         offset="0"
         id="stop2369" />
    </linearGradient>
  </defs>
  <sodipodi:namedview
     id="base"
     pagecolor="#ffffff"
     bordercolor="#666666"
     borderopacity="1.0"
     inkscape:pageopacity="0.0"
     inkscape:pageshadow="2"
     inkscape:zoom="0.9017702"
     inkscape:cx="223.44939"
     inkscape:cy="-48.238454"
     inkscape:document-units="mm"
     inkscape:current-layer="text2972"
     showgrid="false"
     inkscape:window-width="1920"
     inkscape:window-height="1017"
     inkscape:window-x="-8"
     inkscape:window-y="-8"
     inkscape:window-maximized="1"
     showborder="true"
     fit-margin-top="0"
     fit-margin-left="0"
     fit-margin-right="0"
     fit-margin-bottom="0"
     inkscape:snap-nodes="false"
     scale-x="3.8"
     inkscape:pagecheckerboard="0" />
  <metadata
     id="metadata5">
    <rdf:RDF>
      <cc:Work
         rdf:about="">
        <dc:format>image/svg+xml</dc:format>
        <dc:type
           rdf:resource="http://purl.org/dc/dcmitype/StillImage" />
        <dc:title />
      </cc:Work>
    </rdf:RDF>
  </metadata>
  <g
     inkscape:label="Layer 1"
     inkscape:groupmode="layer"
     id="layer1"
     transform="translate(275.51708,260.87385)">
    <g
       id="g867"
       transform="translate(-404.28005,327.12755)">
      <g
         style="opacity:1"
         id="layer1-4"
         inkscape:label="Layer 1"
         transform="translate(-42.333333,-18.142876)">
        <flowRoot
           xml:space="preserve"
           id="flowRoot876"
           style="font-style:normal;font-weight:normal;font-size:40px;line-height:1.25;font-family:sans-serif;letter-spacing:0px;word-spacing:0px;fill:#000000;fill-opacity:1;stroke:none"
           transform="matrix(0.26458333,0,0,0.26458333,426.95862,-358.12157)"><flowRegion
             id="flowRegion878"><rect
               id="rect880"
               width="1448.5714"
               height="280"
               x="345.71429"
               y="-1108.9089" /></flowRegion><flowPara
             id="flowPara882" /></flowRoot>
        <text
           id="text952"
           y="155.83679"
           x="466.26822"
           style="font-style:normal;font-weight:normal;font-size:10.5833px;line-height:1.25;font-family:sans-serif;letter-spacing:0px;word-spacing:0px;fill:#f75f49;fill-opacity:1;stroke:none;stroke-width:0.264583"
           xml:space="preserve" />
        <flowRoot
           xml:space="preserve"
           id="flowRoot874"
           style="font-style:normal;font-variant:normal;font-weight:normal;font-stretch:normal;font-size:32px;line-height:1.25;font-family:'Baskerville Old Face';-inkscape-font-specification:'Baskerville Old Face';letter-spacing:0px;word-spacing:0px;fill:#000000;fill-opacity:1;stroke:none"
           transform="matrix(0.26458333,0,0,0.26458333,-147.96763,-706.89292)"><flowRegion
             id="flowRegion876"
             style="font-size:32px"><rect
               id="rect878"
               width="1068.5714"
               height="605.71429"
               x="302.85715"
               y="3662.4382"
               style="font-size:32px" /></flowRegion><flowPara
             id="flowPara880" /></flowRoot>
        <flowRoot
           xml:space="preserve"
           id="flowRoot882"
           style="font-style:normal;font-variant:normal;font-weight:normal;font-stretch:normal;font-size:64px;line-height:1.25;font-family:'Baskerville Old Face';-inkscape-font-specification:'Baskerville Old Face';letter-spacing:0px;word-spacing:0px;fill:#000000;fill-opacity:1;stroke:none"
           transform="matrix(0.26458333,0,0,0.26458333,-147.96763,-706.89292)"><flowRegion
             id="flowRegion884"><rect
               id="rect886"
               width="971.42859"
               height="582.85712"
               x="280"
               y="3673.8669" /></flowRegion><flowPara
             id="flowPara888" /></flowRoot>
        <flowRoot
           xml:space="preserve"
           id="flowRoot894"
           style="font-style:normal;font-variant:normal;font-weight:normal;font-stretch:normal;font-size:64px;line-height:1.25;font-family:'Baskerville Old Face';-inkscape-font-specification:'Baskerville Old Face';letter-spacing:0px;word-spacing:0px;fill:#000000;fill-opacity:1;stroke:none"
           transform="matrix(0.26458333,0,0,0.26458333,-147.96763,-706.89292)"><flowRegion
             id="flowRegion896"><rect
               id="rect898"
               width="154.28572"
               height="240"
               x="274.28571"
               y="3873.8669" /></flowRegion><flowPara
             id="flowPara900" /></flowRoot>
        <path
           style="opacity:1;fill:#003a5d;fill-opacity:1;stroke:none;stroke-width:0.233955;stroke-linecap:butt;stroke-linejoin:miter;stroke-miterlimit:4;stroke-dasharray:none;stroke-opacity:1"
           d="m 173.7168,-456.90155 c 0,0 -4.35503,-2.3765 -1.8365,-7.64782 2.51849,-5.27132 8.23139,-7.74379 8.23139,-7.74379 l 1.05798,-0.94942 4.53288,-3.96464 c 0.51911,-0.4657 0.8978,-0.63508 1.43183,-0.72472 1.42404,-0.16315 4.2936,-0.30905 4.42548,1.1414 0.17569,1.93283 3.43158,1.32541 3.43158,1.32541 l 5.45983,-0.40042 12.90792,-2.30673 c 0,0 3.0127,0.23848 6.13863,-3.94824 3.51419,-5.73984 9.07837,-16.39959 9.07837,-16.39959 l 0.62699,-10.77025 c 0,0 0.70676,-2.85265 -3.49693,-9.49504 -4.29731,-6.7903 -21.96381,-24.54087 -21.96381,-24.54087 l -16.63391,-12.65115 c 0,0 -1.63997,-2.31353 -6.0913,-2.25493 -2.71589,0.0357 -4.24179,0.1888 -5.58964,0.57677 -1.17616,0.0606 -2.18545,0.50552 -2.62882,-1.06869 -0.65469,-2.33099 -1.32951,-6.11857 1.60002,-6.44866 4.15849,-0.46857 6.61844,-1.05427 6.61844,-1.05427 0,0 0.76141,-0.1757 -0.81998,-1.63996 -1.5814,-1.46426 1.05424,-1.99136 1.05424,-1.99136 l 3.5728,2.92848 c 0,0 1.05425,2.69423 1.63995,2.9285 0.58571,0.2343 8.96124,7.55555 11.5969,8.72695 2.63564,1.17143 7.84839,3.74848 8.6098,4.62705 0.76142,0.87855 10.19122,8.49265 10.19122,8.49265 l 2.04994,1.11284 3.72523,1.58766 3.5984,-0.69532 c 0,0 -0.52948,-1.47864 -1.81803,-2.47434 -1.28854,-0.99569 -1.22994,-2.04995 -1.22994,-2.04995 0,0 -0.48004,-1.44192 -0.69973,-3.26085 -0.14476,-1.19806 -0.0366,-2.51976 -0.0994,-3.84225 -0.11648,-2.45197 0.20638,-4.68026 0.33057,-4.90379 0.29284,-0.52712 1.46423,-4.45132 3.33848,-5.15416 1.87425,-0.70285 6.61843,-2.63564 11.71402,0.35142 5.09561,2.98708 4.50989,12.3583 4.50989,12.3583 l -1.69853,6.20843 c 0,0 -0.64427,2.40138 1.99139,2.45996 2.63566,0.0586 3.45564,-1.17141 3.45564,-1.17141 0,0 2.98706,-3.80708 7.4384,-5.97415 4.45131,-2.16711 -2.28423,-5.85702 -2.28423,-5.85702 0,0 -1.81567,-1.87423 -0.35144,-1.58139 1.46426,0.29285 3.80706,-0.41 5.09561,0.52713 1.28854,0.93712 1.8854,1.925 5.38846,4.45133 1.61516,1.16484 0.11708,2.81136 0.11708,2.81136 0,0 -2.51851,1.40569 -2.98707,2.98709 -0.46857,1.58139 -4.50988,6.267 -4.50988,6.267 l -4.21708,3.98274 c 0,0 -2.5185,1.52284 -1.40565,2.81139 1.1128,1.28853 4.93716,10.80752 4.93716,10.80752 0,0 3.03519,8.11452 3.7566,11.76343 0.72954,3.68994 -0.78681,15.03106 -0.78681,15.03106 0,0 -0.64428,1.87426 1.58138,4.15847 2.22568,2.28426 9.37122,12.12404 9.37122,12.53404 0,0.40997 6.03273,11.83115 6.03273,11.83115 0,0 2.22568,3.63134 -0.64427,6.26701 -2.86993,2.63566 -6.55986,6.73558 -11.01118,9.48836 -4.45133,2.75278 -11.71403,8.25837 -13.64684,8.96124 -1.54176,0.56063 -4.66725,2.16978 -6.21939,2.72784 -0.34308,0.12335 -0.777,-0.1021 -0.777,-0.1021 l -1.34462,-0.62218 c -1.27231,-0.30022 -1.32305,0.57367 -1.32305,0.57367 0,0 -5.13688,10.11656 -3.9242,13.01986 0.69103,1.65434 -2.86993,1.38834 -3.39706,0.91982 -0.52712,-0.4686 -3.52088,-5.86568 -3.57945,-7.5642 -0.0548,-1.59554 -1.00139,-16.42038 -0.5644,-18.98333 0.0997,-0.62187 0.5872,-0.82438 1.15317,-0.77939 0.32444,0.0292 0.76509,0.1014 1.4131,0.15902 1.8483,0.11342 5.72358,0.42631 5.72358,0.42631 0,0 1.17041,0.20265 2.35527,-0.55206 1.34711,-1.0543 17.86389,-10.60123 17.86389,-10.60123 0,0 4.04134,-1.69855 -0.81999,-5.56415 -4.86133,-3.86563 -12.41686,-9.95694 -12.41686,-9.95694 0,0 -0.87857,-1.75708 -2.69422,-0.11708 -1.81568,1.63997 -17.68816,11.94832 -17.68816,11.94832 0,0 -2.34281,0.81996 -4.97848,0.8785 -2.63565,0.0587 -21.78733,3.97077 -24.83374,3.51424 -3.18762,-0.2624 -5.03875,-0.20864 -5.73987,-2.33641 -0.33051,-1.51001 -3.60651,5.61635 -11.51348,6.61205 z"
           id="path1027-3-9"
           inkscape:connector-curvature="0"
           sodipodi:nodetypes="csccccsccccccsccsccsccccsccccccscssscsccccscssscsccscsccsccssscccsccccccccccccccccc" />
        <g
           aria-label="Innlandet Helse og Fysioterapi"
           style="font-style:normal;font-weight:normal;font-size:10.5833px;line-height:1.25;font-family:sans-serif;letter-spacing:0px;word-spacing:0px;opacity:1;fill:#f75f49;fill-opacity:1;stroke:none;stroke-width:0.264583"
           id="text868-2"
           transform="translate(-259.99979,-198.04672)">
          <g
             aria-label="INNLANDET"
             id="text2572"
             style="font-weight:bold;font-size:26.8111px;font-family:'Source Sans Pro';-inkscape-font-specification:'Source Sans Pro Bold';fill:#ef7b47;stroke-width:0.266016">
            <path
               d="m 552.03144,-323.51508 v -17.48084 h 3.94123 v 17.48084 z"
               id="path29842" />
            <path
               d="m 560.10154,-323.51508 v -17.48084 h 4.04848 l 4.55789,8.6868 1.71591,3.8608 h 0.10725 q -0.10725,-1.39418 -0.29492,-3.11009 -0.18768,-1.71591 -0.18768,-3.27095 v -6.16656 h 3.75355 v 17.48084 h -4.04847 l -4.55789,-8.71361 -1.71592,-3.80717 h -0.10724 q 0.13406,1.4478 0.29492,3.11008 0.18768,1.66229 0.18768,3.21734 v 6.19336 z"
               id="path29844" />
            <path
               d="m 577.93091,-323.51508 v -17.48084 h 4.04847 l 4.55789,8.6868 1.71591,3.8608 h 0.10725 q -0.10725,-1.39418 -0.29492,-3.11009 -0.18768,-1.71591 -0.18768,-3.27095 v -6.16656 h 3.75355 v 17.48084 h -4.04847 l -4.55789,-8.71361 -1.71591,-3.80717 h -0.10725 q 0.13406,1.4478 0.29492,3.11008 0.18768,1.66229 0.18768,3.21734 v 6.19336 z"
               id="path29846" />
            <path
               d="m 595.76027,-323.51508 v -17.48084 h 3.94124 v 14.15627 h 6.91726 v 3.32457 z"
               id="path29848" />
            <path
               d="m 613.58964,-332.36274 -0.42898,1.60866 h 3.72674 l -0.40216,-1.60866 q -0.34855,-1.31375 -0.7239,-2.78836 -0.34855,-1.47461 -0.69709,-2.84198 H 614.957 q -0.32173,1.39418 -0.67028,2.86879 -0.32173,1.4478 -0.69708,2.76155 z m -6.32743,8.84766 5.46947,-17.48084 h 4.74557 l 5.46946,17.48084 h -4.18253 l -1.07244,-4.15572 h -5.33542 l -1.07244,4.15572 z"
               id="path29850" />
            <path
               d="m 624.8503,-323.51508 v -17.48084 h 4.04848 l 4.55789,8.6868 1.71591,3.8608 h 0.10724 q -0.10724,-1.39418 -0.29492,-3.11009 -0.18768,-1.71591 -0.18768,-3.27095 v -6.16656 h 3.75356 v 17.48084 h -4.04848 l -4.55789,-8.71361 -1.71591,-3.80717 h -0.10725 q 0.13406,1.4478 0.29493,3.11008 0.18767,1.66229 0.18767,3.21734 v 6.19336 z"
               id="path29852" />
            <path
               d="m 642.67967,-323.51508 v -17.48084 h 4.93324 q 2.68111,0 4.63832,0.91158 1.95721,0.91158 3.02966,2.84198 1.09926,1.90358 1.09926,4.90643 0,3.00284 -1.07245,4.96005 -1.07244,1.95722 -3.00284,2.92242 -1.90359,0.93838 -4.47746,0.93838 z m 3.94123,-3.19052 h 0.75071 q 1.50142,0 2.60068,-0.53622 1.12607,-0.53622 1.74272,-1.76953 0.61666,-1.23331 0.61666,-3.32458 0,-2.09127 -0.61666,-3.27096 -0.61665,-1.2065 -1.74272,-1.6891 -1.09926,-0.50941 -2.60068,-0.50941 h -0.75071 z"
               id="path29854" />
            <path
               d="m 659.70468,-323.51508 v -17.48084 h 10.93893 v 3.32458 h -6.9977 v 3.51225 h 5.95207 v 3.29777 h -5.95207 v 4.02167 h 7.26581 v 3.32457 z"
               id="path29856" />
            <path
               d="m 677.80213,-323.51508 v -14.15626 h -4.79919 v -3.32458 h 13.56642 v 3.32458 h -4.79918 v 14.15626 z"
               id="path29858" />
          </g>
          <g
             aria-label="HELSE &amp; FYSIOTERAPI"
             id="text2972"
             style="font-weight:bold;font-size:64.3467px;line-height:1.05;font-family:'Source Sans Pro';-inkscape-font-specification:'Source Sans Pro Bold';fill:#ef7b47;stroke-width:0.266016">
            <path
               d="m 552.38737,-263.1344 v -41.95405 h 9.45897 v 16.15102 h 14.47801 v -16.15102 h 9.52331 v 41.95405 h -9.52331 v -17.5023 h -14.47801 v 17.5023 z"
               id="path29879" />
            <path
               d="m 595.75704,-263.1344 v -41.95405 h 26.25345 v 7.97899 H 605.216 v 8.42942 h 14.28497 v 7.91464 H 605.216 v 9.65201 h 17.43796 v 7.97899 z"
               id="path29881" />
            <path
               d="m 631.01893,-263.1344 v -41.95405 h 9.45896 v 33.97506 h 16.60145 v 7.97899 z"
               id="path29883" />
            <path
               d="m 675.35367,-262.36224 q -4.11819,0 -8.23638,-1.54432 -4.05384,-1.54432 -7.27118,-4.50427 l 5.40513,-6.49902 q 2.25213,1.93041 5.01904,3.15299 2.76691,1.22259 5.34078,1.22259 2.95994,0 4.37557,-1.09389 1.47998,-1.0939 1.47998,-2.95995 0,-1.99475 -1.67302,-2.8956 -1.60867,-0.9652 -4.37557,-2.12345 l -5.46947,-2.31648 q -2.12345,-0.90085 -4.05385,-2.38082 -1.9304,-1.54433 -3.15298,-3.79646 -1.22259,-2.25213 -1.22259,-5.27643 0,-3.47472 1.86605,-6.30598 1.9304,-2.83125 5.27643,-4.50427 3.41038,-1.67301 7.78595,-1.67301 3.60342,0 7.20683,1.41563 3.60342,1.41562 6.30598,4.11819 l -4.826,5.98424 q -2.0591,-1.60867 -4.11819,-2.44517 -2.0591,-0.90086 -4.56862,-0.90086 -2.44517,0 -3.92515,1.02955 -1.41562,0.9652 -1.41562,2.76691 0,1.9304 1.8017,2.8956 1.86606,0.9652 4.56862,2.05909 l 5.40512,2.18779 q 3.79646,1.54432 6.04859,4.24688 2.25214,2.70256 2.25214,7.14249 0,3.47472 -1.86606,6.43467 -1.86605,2.95995 -5.40512,4.76165 -3.53907,1.80171 -8.55811,1.80171 z"
               id="path29885" />
            <path
               d="m 698.32542,-263.1344 v -41.95405 h 26.25346 v 7.97899 h -16.79449 v 8.42942 h 14.28497 v 7.91464 h -14.28497 v 9.65201 h 17.43796 v 7.97899 z"
               id="path29887" />
            <path
               d="m 755.9799,-294.92167 q 0,1.15824 0.32173,2.44517 0.38608,1.28694 1.02955,2.57387 2.25214,-1.35128 3.79646,-2.83125 1.54432,-1.47998 1.54432,-3.60342 0,-1.47997 -0.70782,-2.38083 -0.70781,-0.90085 -2.18778,-0.90085 -1.60867,0 -2.70257,1.28693 -1.09389,1.22259 -1.09389,3.41038 z m 1.09389,32.55943 q -4.56861,0 -7.7216,-1.60867 -3.08864,-1.67301 -4.69731,-4.37557 -1.54432,-2.76691 -1.54432,-5.98425 0,-4.37557 2.25213,-7.07813 2.31649,-2.76691 5.40513,-4.76166 -1.22259,-2.25213 -1.9304,-4.43992 -0.64347,-2.25214 -0.64347,-4.24688 0,-3.0243 1.35128,-5.46947 1.41563,-2.50952 3.9895,-3.9895 2.57386,-1.54432 6.04859,-1.54432 4.76165,0 7.52856,2.57387 2.76691,2.57387 2.76691,6.94944 0,2.70256 -1.28694,4.89035 -1.28693,2.12344 -3.28168,3.8608 -1.99475,1.67302 -4.18253,3.15299 1.8017,2.0591 3.92515,4.05384 2.18778,1.93041 4.50426,3.60342 1.60867,-2.05909 2.83126,-4.56862 1.22259,-2.50952 1.99475,-5.46947 h 8.62246 q -1.15825,3.79646 -2.89561,7.33553 -1.67301,3.53907 -4.11819,6.82075 1.99475,1.02955 3.79646,1.73736 1.86605,0.64347 3.47472,0.90085 l -2.25213,7.65726 q -2.57387,-0.51477 -5.34078,-1.60867 -2.70256,-1.09389 -5.40512,-2.63821 -2.63822,1.99475 -5.9199,3.15299 -3.28168,1.09389 -7.27118,1.09389 z m -5.01904,-12.54761 q 0,2.38083 1.73736,3.86081 1.73736,1.47997 4.50427,1.47997 2.63822,0 5.27643,-1.67301 -2.38083,-1.99475 -4.63296,-4.18254 -2.18779,-2.18779 -4.05384,-4.50427 -1.22259,1.0939 -2.0591,2.31648 -0.77216,1.22259 -0.77216,2.70256 z"
               id="path29889" />
            <path
               d="m 802.24509,-263.1344 v -41.95405 h 26.44649 v 7.97899 h -16.98753 v 9.71635 h 14.54236 v 7.97899 h -14.54236 v 16.27972 z"
               id="path29891" />
            <path
               d="m 842.26852,-263.1344 v -14.92843 l -12.6763,-27.02562 H 839.759 l 3.73211,9.65201 q 0.90085,2.38082 1.73736,4.63296 0.83651,2.18779 1.67301,4.63296 h 0.25739 q 0.90085,-2.44517 1.80171,-4.63296 0.90085,-2.25214 1.73736,-4.63296 l 3.79645,-9.65201 h 9.9094 l -12.6763,27.02562 v 14.92843 z"
               id="path29893" />
            <path
               d="m 880.42601,-262.36224 q -4.11819,0 -8.23638,-1.54432 -4.05384,-1.54432 -7.27117,-4.50427 l 5.40512,-6.49902 q 2.25213,1.93041 5.01904,3.15299 2.76691,1.22259 5.34078,1.22259 2.95995,0 4.37557,-1.09389 1.47998,-1.0939 1.47998,-2.95995 0,-1.99475 -1.67302,-2.8956 -1.60866,-0.9652 -4.37557,-2.12345 l -5.46947,-2.31648 q -2.12344,-0.90085 -4.05384,-2.38082 -1.93041,-1.54433 -3.15299,-3.79646 -1.22259,-2.25213 -1.22259,-5.27643 0,-3.47472 1.86605,-6.30598 1.93041,-2.83125 5.27643,-4.50427 3.41038,-1.67301 7.78595,-1.67301 3.60342,0 7.20684,1.41563 3.60341,1.41562 6.30597,4.11819 l -4.826,5.98424 q -2.05909,-1.60867 -4.11819,-2.44517 -2.05909,-0.90086 -4.56862,-0.90086 -2.44517,0 -3.92514,1.02955 -1.41563,0.9652 -1.41563,2.76691 0,1.9304 1.80171,2.8956 1.86605,0.9652 4.56861,2.05909 l 5.40512,2.18779 q 3.79646,1.54432 6.04859,4.24688 2.25214,2.70256 2.25214,7.14249 0,3.47472 -1.86605,6.43467 -1.86606,2.95995 -5.40513,4.76165 -3.53907,1.80171 -8.55811,1.80171 z"
               id="path29895" />
            <path
               d="m 903.39778,-263.1344 v -41.95405 h 9.45897 v 41.95405 z"
               id="path29897" />
            <path
               d="m 939.81791,-262.36224 q -5.66251,0 -9.97374,-2.63821 -4.24688,-2.63822 -6.69205,-7.52857 -2.38083,-4.95469 -2.38083,-11.77544 0,-6.8851 2.38083,-11.64676 2.44517,-4.826 6.69205,-7.33552 4.31123,-2.57387 9.97374,-2.57387 5.66251,0 9.90939,2.57387 4.31123,2.50952 6.69206,7.33552 2.44518,4.826 2.44518,11.64676 0,6.82075 -2.44518,11.77544 -2.38083,4.89035 -6.69206,7.52857 -4.24688,2.63821 -9.90939,2.63821 z m 0,-8.17203 q 4.31123,0 6.82075,-3.73211 2.50952,-3.73211 2.50952,-10.03808 0,-6.30598 -2.50952,-9.84505 -2.50952,-3.53907 -6.82075,-3.53907 -4.31123,0 -6.82075,3.53907 -2.50952,3.53907 -2.50952,9.84505 0,6.30597 2.50952,10.03808 2.50952,3.73211 6.82075,3.73211 z"
               id="path29899" />
            <path
               d="m 973.14928,-263.1344 v -33.97506 h -11.51806 v -7.97899 h 32.55943 v 7.97899 h -11.51806 v 33.97506 z"
               id="path29901" />
            <path
               d="m 1000.754,-263.1344 v -41.95405 h 26.2535 v 7.97899 h -16.7945 v 8.42942 h 14.2849 v 7.91464 h -14.2849 v 9.65201 h 17.4379 v 7.97899 z"
               id="path29903" />
            <path
               d="m 1036.0159,-263.1344 v -41.95405 h 15.1215 q 4.4399,0 8.1076,1.22259 3.6678,1.15824 5.8556,3.98949 2.1878,2.83126 2.1878,7.8503 0,4.63296 -2.0591,7.65726 -1.9948,2.95995 -5.4051,4.43992 l 9.5233,16.79449 h -10.6172 l -8.0434,-15.12147 h -5.2121 v 15.12147 z m 9.4589,-22.65004 h 4.8904 q 3.7321,0 5.6625,-1.54432 1.9948,-1.60867 1.9948,-4.69731 0,-3.08864 -1.9948,-4.31123 -1.9304,-1.22259 -5.6625,-1.22259 h -4.8904 z"
               id="path29905" />
            <path
               d="m 1084.7905,-284.36881 -1.0295,3.8608 h 8.9442 l -0.9652,-3.8608 q -0.8365,-3.15299 -1.7374,-6.69206 -0.8365,-3.53907 -1.673,-6.82075 h -0.2574 q -0.7722,3.34603 -1.6087,6.8851 -0.7721,3.47472 -1.673,6.62771 z m -15.1858,21.23441 13.1267,-41.95405 h 11.3894 l 13.1267,41.95405 h -10.0381 l -2.5738,-9.97374 h -12.805 l -2.5739,9.97374 z"
               id="path29907" />
            <path
               d="m 1111.8161,-263.1344 v -41.95405 h 14.4137 q 4.633,0 8.3651,1.28693 3.7964,1.22259 6.0486,4.18254 2.2521,2.95995 2.2521,8.04334 0,4.89035 -2.2521,8.04334 -2.2522,3.15298 -5.9843,4.69731 -3.7321,1.47997 -8.172,1.47997 h -5.2121 v 14.22062 z m 9.459,-21.74918 h 4.633 q 7.7216,0 7.7216,-6.69206 0,-3.28168 -2.0591,-4.63296 -2.0591,-1.35129 -5.9199,-1.35129 h -4.3756 z"
               id="path29909" />
            <path
               d="m 1150.1667,-263.1344 v -41.95405 h 9.459 v 41.95405 z"
               id="path29911" />
          </g>
        </g>
      </g>
    </g>
  </g>
</svg>
