<?xml version="1.0" encoding="UTF-8" standalone="no"?>
<!-- Created with Inkscape (http://www.inkscape.org/) -->

<svg
   xmlns:osb="http://www.openswatchbook.org/uri/2009/osb"
   xmlns:dc="http://purl.org/dc/elements/1.1/"
   xmlns:cc="http://creativecommons.org/ns#"
   xmlns:rdf="http://www.w3.org/1999/02/22-rdf-syntax-ns#"
   xmlns:svg="http://www.w3.org/2000/svg"
   xmlns="http://www.w3.org/2000/svg"
   xmlns:xlink="http://www.w3.org/1999/xlink"
   xmlns:sodipodi="http://sodipodi.sourceforge.net/DTD/sodipodi-0.dtd"
   xmlns:inkscape="http://www.inkscape.org/namespaces/inkscape"
   width="340.75497mm"
   height="38.582466mm"
   viewBox="0 0 1294.8691 146.61338"
   version="1.1"
   id="svg8"
   inkscape:version="0.92.3 (2405546, 2018-03-11)"
   sodipodi:docname="logo.svg"
   inkscape:export-filename="C:\xampp\htdocs\klinikk\logo-3.png"
   inkscape:export-xdpi="96"
   inkscape:export-ydpi="96">
  <defs
     id="defs2">
    <linearGradient
       inkscape:collect="always"
       id="linearGradient1252">
      <stop
         style="stop-color:#f75f49;stop-opacity:1;"
         offset="0"
         id="stop1248" />
      <stop
         style="stop-color:#fffaa7;stop-opacity:1"
         offset="1"
         id="stop1250" />
    </linearGradient>
    <linearGradient
       id="linearGradient1234"
       inkscape:collect="always">
      <stop
         id="stop1230"
         offset="0"
         style="stop-color:#f75f49;stop-opacity:1;" />
      <stop
         id="stop1232"
         offset="1"
         style="stop-color:#f7ff49;stop-opacity:1" />
    </linearGradient>
    <linearGradient
       id="linearGradient2379"
       osb:paint="solid">
      <stop
         style="stop-color:#f75f49;stop-opacity:1;"
         offset="0"
         id="stop2377" />
    </linearGradient>
    <linearGradient
       id="linearGradient2371"
       osb:paint="solid">
      <stop
         style="stop-color:#f75f49;stop-opacity:1;"
         offset="0"
         id="stop2369" />
    </linearGradient>
    <linearGradient
       inkscape:collect="always"
       xlink:href="#linearGradient1252"
       id="linearGradient2403-3"
       gradientUnits="userSpaceOnUse"
       x1="478.83026"
       y1="-179.48985"
       x2="588.52814"
       y2="-300.19107"
       gradientTransform="matrix(0.84142837,0,0,0.84142837,-254.45834,-358.96612)" />
    <linearGradient
       inkscape:collect="always"
       xlink:href="#linearGradient1234"
       id="linearGradient2411-2"
       x1="475.05048"
       y1="-188.56128"
       x2="593.2926"
       y2="-190.65158"
       gradientUnits="userSpaceOnUse"
       gradientTransform="matrix(0.84142837,0,0,0.84142837,-251.27794,-351.33317)" />
  </defs>
  <sodipodi:namedview
     id="base"
     pagecolor="#ffffff"
     bordercolor="#666666"
     borderopacity="1.0"
     inkscape:pageopacity="0.0"
     inkscape:pageshadow="2"
     inkscape:zoom="1.4"
     inkscape:cx="386.46023"
     inkscape:cy="52.243851"
     inkscape:document-units="mm"
     inkscape:current-layer="text868-2"
     showgrid="false"
     inkscape:window-width="1920"
     inkscape:window-height="1001"
     inkscape:window-x="-9"
     inkscape:window-y="-9"
     inkscape:window-maximized="1"
     showborder="true"
     fit-margin-top="0"
     fit-margin-left="0"
     fit-margin-right="0"
     fit-margin-bottom="0"
     inkscape:snap-nodes="false"
     scale-x="3.8" />
  <metadata
     id="metadata5">
    <rdf:RDF>
      <cc:Work
         rdf:about="">
        <dc:format>image/svg+xml</dc:format>
        <dc:type
           rdf:resource="http://purl.org/dc/dcmitype/StillImage" />
        <dc:title />
      </cc:Work>
    </rdf:RDF>
  </metadata>
  <g
     inkscape:label="Layer 1"
     inkscape:groupmode="layer"
     id="layer1"
     transform="translate(299.33071,279.67142)">
    <g
       id="g867"
       transform="translate(-404.28005,327.12755)">
      <g
         style="opacity:1"
         id="layer1-4"
         inkscape:label="Layer 1"
         transform="translate(-42.333333,-18.142876)">
        <flowRoot
           xml:space="preserve"
           id="flowRoot876"
           style="font-style:normal;font-weight:normal;font-size:40px;line-height:1.25;font-family:sans-serif;letter-spacing:0px;word-spacing:0px;fill:#000000;fill-opacity:1;stroke:none"
           transform="matrix(0.26458333,0,0,0.26458333,426.95862,-358.12157)"><flowRegion
             id="flowRegion878"><rect
               id="rect880"
               width="1448.5714"
               height="280"
               x="345.71429"
               y="-1108.9089" /></flowRegion><flowPara
             id="flowPara882" /></flowRoot>        <text
           id="text952"
           y="155.83679"
           x="466.26822"
           style="font-style:normal;font-weight:normal;font-size:10.58333302px;line-height:1.25;font-family:sans-serif;letter-spacing:0px;word-spacing:0px;fill:#f75f49;fill-opacity:1;stroke:none;stroke-width:0.26458332"
           xml:space="preserve"><tspan
             id="tspan950"
             style="font-style:normal;font-variant:normal;font-weight:bold;font-stretch:normal;font-size:50.79999924px;font-family:sans-serif;-inkscape-font-specification:'sans-serif Bold';fill:#f75f49;fill-opacity:1;stroke-width:0.26458332"
             y="165.49229"
             x="466.26822"
             sodipodi:role="line" /></text>
        <flowRoot
           xml:space="preserve"
           id="flowRoot874"
           style="font-style:normal;font-variant:normal;font-weight:normal;font-stretch:normal;font-size:32px;line-height:1.25;font-family:'Baskerville Old Face';-inkscape-font-specification:'Baskerville Old Face';letter-spacing:0px;word-spacing:0px;fill:#000000;fill-opacity:1;stroke:none"
           transform="matrix(0.26458333,0,0,0.26458333,-147.96763,-706.89292)"><flowRegion
             id="flowRegion876"
             style="font-size:32px"><rect
               id="rect878"
               width="1068.5714"
               height="605.71429"
               x="302.85715"
               y="3662.4382"
               style="font-size:32px" /></flowRegion><flowPara
             id="flowPara880" /></flowRoot>        <flowRoot
           xml:space="preserve"
           id="flowRoot882"
           style="font-style:normal;font-variant:normal;font-weight:normal;font-stretch:normal;font-size:64px;line-height:1.25;font-family:'Baskerville Old Face';-inkscape-font-specification:'Baskerville Old Face';letter-spacing:0px;word-spacing:0px;fill:#000000;fill-opacity:1;stroke:none"
           transform="matrix(0.26458333,0,0,0.26458333,-147.96763,-706.89292)"><flowRegion
             id="flowRegion884"><rect
               id="rect886"
               width="971.42859"
               height="582.85712"
               x="280"
               y="3673.8669" /></flowRegion><flowPara
             id="flowPara888" /></flowRoot>        <flowRoot
           xml:space="preserve"
           id="flowRoot894"
           style="font-style:normal;font-variant:normal;font-weight:normal;font-stretch:normal;font-size:64px;line-height:1.25;font-family:'Baskerville Old Face';-inkscape-font-specification:'Baskerville Old Face';letter-spacing:0px;word-spacing:0px;fill:#000000;fill-opacity:1;stroke:none"
           transform="matrix(0.26458333,0,0,0.26458333,-147.96763,-706.89292)"><flowRegion
             id="flowRegion896"><rect
               id="rect898"
               width="154.28572"
               height="240"
               x="274.28571"
               y="3873.8669" /></flowRegion><flowPara
             id="flowPara900" /></flowRoot>        <path
           style="opacity:1;fill:url(#linearGradient2403-3);fill-opacity:1;stroke:url(#linearGradient2411-2);stroke-width:0.23395456;stroke-linecap:butt;stroke-linejoin:miter;stroke-miterlimit:4;stroke-dasharray:none;stroke-opacity:1"
           d="m 150.01769,-475.57356 c 0,0 -4.35503,-2.3765 -1.8365,-7.64782 2.51849,-5.27132 8.23139,-7.74379 8.23139,-7.74379 l 1.05798,-0.94943 4.53288,-3.96463 c 0.51911,-0.4657 0.8978,-0.63508 1.43183,-0.72472 1.42404,-0.16315 4.2936,-0.30905 4.42548,1.1414 0.17569,1.93283 3.43158,1.32541 3.43158,1.32541 l 5.45983,-0.40043 12.90792,-2.30673 c 0,0 3.0127,0.23849 6.13863,-3.94823 3.51419,-5.73984 9.07837,-16.39959 9.07837,-16.39959 l 0.62699,-10.77025 c 0,0 0.70676,-2.85265 -3.49692,-9.49505 -4.29732,-6.79029 -21.96382,-24.54086 -21.96382,-24.54086 l -16.63391,-12.65115 c 0,0 -1.63997,-2.31353 -6.0913,-2.25494 -2.71589,0.0357 -4.24179,0.1888 -5.58964,0.57678 -1.17616,0.0606 -2.18545,0.50552 -2.62882,-1.06869 -0.65469,-2.331 -1.32951,-6.11857 1.60002,-6.44866 4.15849,-0.46857 6.61844,-1.05427 6.61844,-1.05427 0,0 0.76141,-0.1757 -0.81998,-1.63996 -1.5814,-1.46427 1.05424,-1.99136 1.05424,-1.99136 l 3.5728,2.92848 c 0,0 1.05425,2.69423 1.63995,2.9285 0.58571,0.2343 8.96124,7.55555 11.5969,8.72695 2.63564,1.17143 7.84839,3.74848 8.6098,4.62705 0.76142,0.87855 10.19122,8.49265 10.19122,8.49265 l 2.04994,1.11284 3.72523,1.58766 3.59841,-0.69532 c 0,0 -0.52948,-1.47864 -1.81804,-2.47434 -1.28854,-0.99569 -1.22994,-2.04995 -1.22994,-2.04995 0,0 -0.48004,-1.44192 -0.69973,-3.26085 -0.14476,-1.19806 -0.0366,-2.51976 -0.0994,-3.84226 -0.11648,-2.45196 0.20638,-4.68025 0.33057,-4.90378 0.29284,-0.52712 1.46423,-4.45132 3.33848,-5.15416 1.87425,-0.70285 6.61843,-2.63564 11.71402,0.35142 5.09561,2.98708 4.50989,12.3583 4.50989,12.3583 l -1.69853,6.20843 c 0,0 -0.64427,2.40138 1.99139,2.45996 2.63566,0.0586 3.45564,-1.17141 3.45564,-1.17141 0,0 2.98706,-3.80708 7.4384,-5.97415 4.45132,-2.16711 -2.28423,-5.85703 -2.28423,-5.85703 0,0 -1.81567,-1.87422 -0.35144,-1.58138 1.46426,0.29284 3.80706,-0.41 5.09561,0.52713 1.28854,0.93712 1.8854,1.92499 5.38846,4.45133 1.61516,1.16484 0.11708,2.81136 0.11708,2.81136 0,0 -2.51851,1.40569 -2.98707,2.98709 -0.46857,1.58139 -4.50988,6.267 -4.50988,6.267 l -4.21708,3.98274 c 0,0 -2.5185,1.52284 -1.40565,2.81139 1.1128,1.28853 4.93716,10.80752 4.93716,10.80752 0,0 3.03519,8.11451 3.7566,11.76343 0.72954,3.68994 -0.78681,15.03106 -0.78681,15.03106 0,0 -0.64428,1.87426 1.58138,4.15847 2.22568,2.28426 9.37122,12.12404 9.37122,12.53404 0,0.40997 6.03274,11.83115 6.03274,11.83115 0,0 2.22567,3.63134 -0.64428,6.26701 -2.86993,2.63566 -6.55986,6.73558 -11.01118,9.48836 -4.45133,2.75278 -11.71403,8.25837 -13.64684,8.96123 -1.54176,0.56063 -4.66725,2.16979 -6.21939,2.72785 -0.34308,0.12335 -0.777,-0.1021 -0.777,-0.1021 l -1.34462,-0.62218 c -1.2723,-0.30022 -1.32305,0.57367 -1.32305,0.57367 0,0 -5.13688,10.11656 -3.9242,13.01986 0.69103,1.65434 -2.86993,1.38834 -3.39706,0.91982 -0.52712,-0.4686 -3.52088,-5.86568 -3.57945,-7.5642 -0.0548,-1.59554 -1.00139,-16.42038 -0.5644,-18.98333 0.0997,-0.62187 0.5872,-0.82438 1.15317,-0.77939 0.32444,0.0292 0.76509,0.10139 1.4131,0.15901 1.8483,0.11343 5.72358,0.42632 5.72358,0.42632 0,0 1.17041,0.20265 2.35527,-0.55206 1.34711,-1.0543 17.8639,-10.60124 17.8639,-10.60124 0,0 4.04133,-1.69855 -0.82,-5.56414 -4.86133,-3.86563 -12.41686,-9.95695 -12.41686,-9.95695 0,0 -0.87857,-1.75707 -2.69422,-0.11707 -1.81567,1.63997 -17.68816,11.94832 -17.68816,11.94832 0,0 -2.34281,0.81996 -4.97848,0.8785 -2.63565,0.0587 -21.78733,3.97077 -24.83374,3.51424 -3.18762,-0.2624 -5.03875,-0.20864 -5.73987,-2.33641 -0.33051,-1.51001 -3.60651,5.61635 -11.51348,6.61205 z"
           id="path1027-3-9"
           inkscape:connector-curvature="0"
           sodipodi:nodetypes="csccccsccccccsccsccsccccsccccccscssscsccccscssscsccscsccsccssscccsccccccccccccccccc" />
        <g
           aria-label="Innlandet Helse og Fysioterapi"
           style="font-style:normal;font-weight:normal;font-size:10.58333302px;line-height:1.25;font-family:sans-serif;letter-spacing:0px;word-spacing:0px;opacity:1;fill:#f75f49;fill-opacity:1;stroke:none;stroke-width:0.26458332"
           id="text868-2"
           transform="translate(-259.99979,-198.04672)">
          <path
             d="m 565.47886,-446.77737 h -19.21307 v -4.96664 h 6.37168 v -38.72021 h -6.37168 v -4.96665 h 19.21307 v 4.96665 h -6.37169 v 38.72021 h 6.37169 z"
             style="font-style:normal;font-variant:normal;font-weight:normal;font-stretch:normal;font-size:50.79999924px;font-family:sans-serif;-inkscape-font-specification:sans-serif;fill:#f75f49;fill-opacity:1;stroke-width:0.34853634"
             id="path1061"
             inkscape:connector-curvature="0" />
          <path
             d="m 606.58436,-446.77737 h -6.14295 v -20.78148 q 0,-2.516 -0.29408,-4.70524 -0.29407,-2.22192 -1.07829,-3.46358 -0.81687,-1.37237 -2.35261,-2.02587 -1.53574,-0.68618 -3.98639,-0.68618 -2.516,0 -5.26072,1.24166 -2.74472,1.24167 -5.26071,3.1695 v 27.25119 h -6.14297 v -36.49829 h 6.14297 v 4.05174 q 2.87542,-2.3853 5.94689,-3.72499 3.07148,-1.33969 6.30633,-1.33969 5.91423,0 9.01839,3.56161 3.10414,3.5616 3.10414,10.26003 z"
             style="font-style:normal;font-variant:normal;font-weight:normal;font-stretch:normal;font-size:50.79999924px;font-family:sans-serif;-inkscape-font-specification:sans-serif;fill:#f75f49;fill-opacity:1;stroke-width:0.34853634"
             id="path1063"
             inkscape:connector-curvature="0" />
          <path
             d="m 648.93153,-446.77737 h -6.14295 v -20.78148 q 0,-2.516 -0.29408,-4.70524 -0.29408,-2.22192 -1.07828,-3.46358 -0.81689,-1.37237 -2.35263,-2.02587 -1.53573,-0.68618 -3.98638,-0.68618 -2.51599,0 -5.26071,1.24166 -2.74474,1.24167 -5.26073,3.1695 v 27.25119 h -6.14295 v -36.49829 h 6.14295 v 4.05174 q 2.87542,-2.3853 5.9469,-3.72499 3.07147,-1.33969 6.30633,-1.33969 5.91423,0 9.01838,3.56161 3.10415,3.5616 3.10415,10.26003 z"
             style="font-style:normal;font-variant:normal;font-weight:normal;font-stretch:normal;font-size:50.79999924px;font-family:sans-serif;-inkscape-font-specification:sans-serif;fill:#f75f49;fill-opacity:1;stroke-width:0.34853634"
             id="path1065"
             inkscape:connector-curvature="0" />
          <path
             d="m 666.96828,-446.77737 h -6.14295 v -50.84274 h 6.14295 z"
             style="font-style:normal;font-variant:normal;font-weight:normal;font-stretch:normal;font-size:50.79999924px;font-family:sans-serif;-inkscape-font-specification:sans-serif;fill:#f75f49;fill-opacity:1;stroke-width:0.34853634"
             id="path1067"
             inkscape:connector-curvature="0" />
          <path
             d="m 707.55099,-446.77737 h -6.11028 v -3.88837 q -0.81688,0.55548 -2.22192,1.56842 -1.37235,0.98026 -2.67937,1.56841 -1.53573,0.75154 -3.52893,1.24166 -1.99319,0.52282 -4.67257,0.52282 -4.93397,0 -8.36487,-3.26753 -3.4309,-3.26753 -3.4309,-8.33221 0,-4.14975 1.76446,-6.69843 1.79714,-2.58135 5.09734,-4.05173 3.33288,-1.47039 8.00545,-1.99319 4.67256,-0.52281 10.03131,-0.78421 v -0.94758 q 0,-2.09122 -0.75153,-3.46358 -0.71885,-1.37237 -2.09122,-2.15657 -1.307,-0.75154 -3.13683,-1.01293 -1.82981,-0.26141 -3.82301,-0.26141 -2.41796,0 -5.39142,0.6535 -2.97345,0.62084 -6.14295,1.82982 H 679.777 v -6.24097 q 1.79714,-0.49013 5.19537,-1.0783 3.39824,-0.58815 6.69843,-0.58815 3.85568,0 6.69844,0.65351 2.87542,0.62083 4.96664,2.15656 2.05855,1.50307 3.13682,3.88837 1.07829,2.38529 1.07829,5.91422 z m -6.11028,-8.98571 v -10.162 q -2.81007,0.16337 -6.63308,0.49013 -3.79033,0.32674 -6.01225,0.94757 -2.6467,0.75154 -4.28047,2.35263 -1.63376,1.5684 -1.63376,4.3458 0,3.13683 1.89517,4.73792 1.89516,1.56842 5.78352,1.56842 3.23485,0 5.91423,-1.24166 2.67937,-1.27433 4.96664,-3.03881 z"
             style="font-style:normal;font-variant:normal;font-weight:normal;font-stretch:normal;font-size:50.79999924px;font-family:sans-serif;-inkscape-font-specification:sans-serif;fill:#f75f49;fill-opacity:1;stroke-width:0.34853634"
             id="path1069"
             inkscape:connector-curvature="0" />
          <path
             d="m 749.96351,-446.77737 h -6.14295 v -20.78148 q 0,-2.516 -0.29408,-4.70524 -0.29409,-2.22192 -1.07829,-3.46358 -0.81689,-1.37237 -2.35262,-2.02587 -1.53574,-0.68618 -3.98639,-0.68618 -2.51599,0 -5.26071,1.24166 -2.74473,1.24167 -5.26073,3.1695 v 27.25119 h -6.14295 v -36.49829 h 6.14295 v 4.05174 q 2.87542,-2.3853 5.9469,-3.72499 3.07149,-1.33969 6.30634,-1.33969 5.91422,0 9.01837,3.56161 3.10416,3.5616 3.10416,10.26003 z"
             style="font-style:normal;font-variant:normal;font-weight:normal;font-stretch:normal;font-size:50.79999924px;font-family:sans-serif;-inkscape-font-specification:sans-serif;fill:#f75f49;fill-opacity:1;stroke-width:0.34853634"
             id="path1071"
             inkscape:connector-curvature="0" />
          <path
             d="m 791.39575,-446.77737 h -6.14295 v -3.82301 q -2.6467,2.28727 -5.52212,3.5616 -2.87542,1.27435 -6.24099,1.27435 -6.53504,0 -10.39074,-5.032 -3.82299,-5.032 -3.82299,-13.95235 0,-4.63989 1.307,-8.26684 1.33969,-3.62696 3.59428,-6.17564 2.22193,-2.48331 5.1627,-3.79032 2.97345,-1.30702 6.14295,-1.30702 2.87542,0 5.09734,0.62083 2.22192,0.58815 4.67257,1.8625 v -15.81484 h 6.14295 z m -6.14295,-8.98571 v -20.94485 q -2.48332,-1.11096 -4.44384,-1.53574 -1.96052,-0.42477 -4.28046,-0.42477 -5.1627,0 -8.03812,3.59427 -2.87543,3.59429 -2.87543,10.1947 0,6.50238 2.22192,9.90061 2.22192,3.36555 7.12322,3.36555 2.61402,0 5.29339,-1.14364 2.67938,-1.1763 4.99932,-3.00613 z"
             style="font-style:normal;font-variant:normal;font-weight:normal;font-stretch:normal;font-size:50.79999924px;font-family:sans-serif;-inkscape-font-specification:sans-serif;fill:#f75f49;fill-opacity:1;stroke-width:0.34853634"
             id="path1073"
             inkscape:connector-curvature="0" />
          <path
             d="m 834.03701,-464.38934 h -26.89176 q 0,3.36555 1.01293,5.88154 1.01294,2.48333 2.7774,4.08442 1.69912,1.56841 4.01906,2.35261 2.35263,0.78422 5.1627,0.78422 3.72497,0 7.48263,-1.4704 3.79034,-1.50306 5.39143,-2.94078 h 0.32675 v 6.69843 q -3.10415,1.30702 -6.33901,2.18926 -3.23485,0.88222 -6.79645,0.88222 -9.08373,0 -14.18108,-4.90129 -5.09735,-4.93397 -5.09735,-13.98502 0,-8.95303 4.86862,-14.21374 4.90129,-5.26073 12.87407,-5.26073 7.38462,0 11.371,4.31314 4.01906,4.31314 4.01906,12.25324 z m -5.97958,-4.70525 q -0.0327,-4.83594 -2.45064,-7.48264 -2.38531,-2.64669 -7.2866,-2.64669 -4.93397,0 -7.87474,2.9081 -2.90809,2.90809 -3.3002,7.22123 z"
             style="font-style:normal;font-variant:normal;font-weight:normal;font-stretch:normal;font-size:50.79999924px;font-family:sans-serif;-inkscape-font-specification:sans-serif;fill:#f75f49;fill-opacity:1;stroke-width:0.34853634"
             id="path1075"
             inkscape:connector-curvature="0" />
          <path
             d="m 862.30113,-447.10412 q -1.7318,0.45745 -3.79033,0.75152 -2.02587,0.29409 -3.62696,0.29409 -5.58747,0 -8.49557,-3.00614 -2.90811,-3.00612 -2.90811,-9.6392 v -19.40911 h -4.14975 v -5.1627 h 4.14975 v -10.48877 h 6.14295 v 10.48877 h 12.67802 v 5.1627 h -12.67802 v 16.63171 q 0,2.87543 0.13068,4.50919 0.13068,1.60109 0.91491,3.00613 0.71886,1.30701 1.96051,1.92784 1.27435,0.58815 3.8557,0.58815 1.50305,0 3.13682,-0.42478 1.63376,-0.45744 2.35261,-0.75153 h 0.32676 z"
             style="font-style:normal;font-variant:normal;font-weight:normal;font-stretch:normal;font-size:50.79999924px;font-family:sans-serif;-inkscape-font-specification:sans-serif;fill:#f75f49;fill-opacity:1;stroke-width:0.34853634"
             id="path1077"
             inkscape:connector-curvature="0" />
          <path
             d="m 946.98035,-445.67141 h -12.67266 v -21.64909 h -18.71194 v 21.64909 h -12.67264 v -49.13948 h 12.67264 v 17.98591 h 18.71194 v -17.98591 h 12.67266 z"
             style="font-style:normal;font-variant:normal;font-weight:bold;font-stretch:normal;font-size:50.79999924px;font-family:sans-serif;-inkscape-font-specification:'sans-serif Bold';fill:#f75f49;fill-opacity:1;stroke-width:0.35201779"
             id="path1079"
             inkscape:connector-curvature="0" />
          <path
             d="m 995.39328,-462.00724 h -27.1928 q 0.264,4.35623 3.3,6.66635 3.0692,2.31011 9.0094,2.31011 3.7622,0 7.2931,-1.35308 3.5311,-1.35306 5.5772,-2.90413 h 1.3201 v 9.53748 q -4.0262,1.61708 -7.5903,2.34312 -3.5641,0.72603 -7.8872,0.72603 -11.1543,0 -17.09472,-5.01626 -5.94026,-5.01624 -5.94026,-14.28972 0,-9.17445 5.61026,-14.52072 5.64322,-5.37929 15.44462,-5.37929 9.0424,0 13.5964,4.58724 4.5542,4.55422 4.5542,13.13466 z m -11.8143,-6.96335 q -0.099,-3.72918 -1.8481,-5.61027 -1.749,-1.8811 -5.4451,-1.8811 -3.4322,0 -5.6432,1.78208 -2.2111,1.78209 -2.4752,5.70929 z"
             style="font-style:normal;font-variant:normal;font-weight:bold;font-stretch:normal;font-size:50.79999924px;font-family:sans-serif;-inkscape-font-specification:'sans-serif Bold';fill:#f75f49;fill-opacity:1;stroke-width:0.35201779"
             id="path1081"
             inkscape:connector-curvature="0" />
          <path
             d="m 1015.6559,-445.67141 h -11.8804 v -51.3506 h 11.8804 z"
             style="font-style:normal;font-variant:normal;font-weight:bold;font-stretch:normal;font-size:50.79999924px;font-family:sans-serif;-inkscape-font-specification:'sans-serif Bold';fill:#f75f49;fill-opacity:1;stroke-width:0.35201779"
             id="path1083"
             inkscape:connector-curvature="0" />
          <path
             d="m 1059.0853,-457.42001 q 0,5.7423 -5.1481,9.27347 -5.1481,3.49819 -14.0914,3.49819 -4.95,0 -8.9762,-0.92404 -4.0262,-0.92408 -6.4683,-2.04613 v -9.76848 h 1.0889 q 0.8912,0.62703 2.046,1.38605 1.1883,0.72605 3.3334,1.5841 1.8481,0.75905 4.1911,1.32007 2.343,0.52803 5.016,0.52803 3.4982,0 5.1814,-0.75906 1.6831,-0.79202 1.6831,-2.3101 0,-1.35308 -0.9902,-1.9471 -0.99,-0.62704 -3.7622,-1.18806 -1.3199,-0.29701 -3.597,-0.62704 -2.244,-0.36301 -4.0921,-0.85804 -5.0493,-1.32007 -7.4912,-4.0922 -2.4422,-2.80514 -2.4422,-6.96334 0,-5.34628 5.0492,-8.87746 5.082,-3.56419 13.8604,-3.56419 4.1582,0 7.9531,0.85804 3.8283,0.82506 5.9732,1.7821 v 9.37247 h -1.0231 q -2.64,-1.81509 -6.0389,-2.93715 -3.3661,-1.15505 -6.8312,-1.15505 -2.8711,0 -4.8512,0.79205 -1.9471,0.79202 -1.9471,2.2441 0,1.32007 0.891,2.0131 0.8912,0.69302 4.191,1.38607 1.8151,0.36303 3.8943,0.72602 2.1122,0.33003 4.2241,0.85806 4.6859,1.22107 6.93,3.86119 2.2442,2.60714 2.2442,6.53433 z"
             style="font-style:normal;font-variant:normal;font-weight:bold;font-stretch:normal;font-size:50.79999924px;font-family:sans-serif;-inkscape-font-specification:'sans-serif Bold';fill:#f75f49;fill-opacity:1;stroke-width:0.35201779"
             id="path1085"
             inkscape:connector-curvature="0" />
          <path
             d="m 1103.5044,-462.00724 h -27.1929 q 0.2641,4.35623 3.3001,6.66635 3.0693,2.31011 9.0094,2.31011 3.7619,0 7.293,-1.35308 3.5312,-1.35306 5.5774,-2.90413 h 1.32 v 9.53748 q -4.0263,1.61708 -7.5904,2.34312 -3.5642,0.72603 -7.8873,0.72603 -11.154,0 -17.0943,-5.01626 -5.94,-5.01624 -5.94,-14.28972 0,-9.17445 5.61,-14.52072 5.6431,-5.37929 15.4443,-5.37929 9.0424,0 13.5966,4.58724 4.5541,4.55422 4.5541,13.13466 z m -11.8145,-6.96335 q -0.098,-3.72918 -1.8481,-5.61027 -1.749,-1.8811 -5.4451,-1.8811 -3.4321,0 -5.643,1.78208 -2.211,1.78209 -2.4752,5.70929 z"
             style="font-style:normal;font-variant:normal;font-weight:bold;font-stretch:normal;font-size:50.79999924px;font-family:sans-serif;-inkscape-font-specification:'sans-serif Bold';fill:#f75f49;fill-opacity:1;stroke-width:0.35201779"
             id="path1087"
             inkscape:connector-curvature="0" />
          <path
             d="m 1172.874,-464.18536 q 0,9.14149 -5.3463,14.42174 -5.3133,5.24727 -14.9498,5.24727 -9.6365,0 -14.9827,-5.24727 -5.3134,-5.28025 -5.3134,-14.42174 0,-9.20746 5.3463,-14.45471 5.3793,-5.24728 14.9498,-5.24728 9.7027,0 14.9828,5.28028 5.3133,5.28025 5.3133,14.42171 z m -14.6198,9.00946 q 1.1551,-1.41906 1.716,-3.39915 0.5942,-2.01313 0.5942,-5.54428 0,-3.26717 -0.5942,-5.4783 -0.594,-2.21109 -1.6499,-3.53117 -1.0562,-1.35306 -2.5412,-1.91408 -1.4851,-0.56105 -3.2012,-0.56105 -1.716,0 -3.0692,0.46204 -1.3198,0.46201 -2.541,1.84808 -1.0891,1.28707 -1.7491,3.53118 -0.627,2.24411 -0.627,5.6433 0,3.03613 0.5609,5.28025 0.561,2.21112 1.6501,3.56418 1.0561,1.28707 2.5082,1.88109 1.485,0.59404 3.3662,0.59404 1.617,0 3.069,-0.52804 1.4851,-0.56102 2.5082,-1.84809 z"
             style="font-style:normal;font-variant:normal;font-weight:bold;font-stretch:normal;font-size:50.79999924px;font-family:sans-serif;-inkscape-font-specification:'sans-serif Bold';fill:#f75f49;fill-opacity:1;stroke-width:0.35201779"
             id="path1089"
             inkscape:connector-curvature="0" />
          <path
             d="m 1217.4922,-449.92863 q 0,5.21426 -1.485,8.77844 -1.4851,3.56418 -4.1582,5.5773 -2.6733,2.0461 -6.4683,2.93714 -3.7623,0.92404 -8.5145,0.92404 -3.8612,0 -7.6235,-0.46202 -3.729,-0.46202 -6.4682,-1.12205 v -9.27348 h 1.452 q 2.1781,0.85804 5.3132,1.55108 3.1354,0.72604 5.6104,0.72604 3.3001,0 5.3464,-0.62702 2.079,-0.59405 3.168,-1.7161 1.0231,-1.05605 1.4853,-2.70613 0.4618,-1.6501 0.4618,-3.9602 v -0.69303 q -2.1452,1.74908 -4.7523,2.77213 -2.6071,1.02305 -5.8082,1.02305 -7.7885,0 -12.0127,-4.68623 -4.2242,-4.68624 -4.2242,-14.25673 0,-4.58723 1.2872,-7.92039 1.2871,-3.33316 3.6301,-5.80829 2.178,-2.31012 5.3464,-3.59718 3.2011,-1.28708 6.5342,-1.28708 3.0032,0 5.4454,0.72604 2.4749,0.69303 4.4881,1.9471 l 0.4291,-1.65008 h 11.5175 z m -11.8806,-7.42538 v -16.79783 q -1.0229,-0.42902 -2.5081,-0.66005 -1.4851,-0.26399 -2.673,-0.26399 -4.6864,0 -7.0295,2.70611 -2.3432,2.67314 -2.3432,7.49139 0,5.34627 1.98,7.45837 2.0133,2.11211 5.9405,2.11211 1.7821,0 3.4983,-0.56103 1.7159,-0.56104 3.135,-1.48508 z"
             style="font-style:normal;font-variant:normal;font-weight:bold;font-stretch:normal;font-size:50.79999924px;font-family:sans-serif;-inkscape-font-specification:'sans-serif Bold';fill:#f75f49;fill-opacity:1;stroke-width:0.35201779"
             id="path1091"
             inkscape:connector-curvature="0" />
          <path
             d="m 1287.6869,-485.30642 h -22.6063 v 9.14148 h 20.9561 v 9.50448 h -20.9561 v 20.98905 h -12.6065 v -49.13948 h 35.2128 z"
             style="font-style:normal;font-variant:normal;font-weight:bold;font-stretch:normal;font-size:50.79999924px;font-family:sans-serif;-inkscape-font-specification:'sans-serif Bold';fill:#f75f49;fill-opacity:1;stroke-width:0.35201779"
             id="path1093"
             inkscape:connector-curvature="0" />
          <path
             d="m 1312.504,-458.77307 8.4485,-23.95921 h 12.2105 l -20.5929,50.65754 h -12.8707 l 5.8742,-13.86068 -14.4216,-36.79686 h 12.4745 z"
             style="font-style:normal;font-variant:normal;font-weight:bold;font-stretch:normal;font-size:50.79999924px;font-family:sans-serif;-inkscape-font-specification:'sans-serif Bold';fill:#f75f49;fill-opacity:1;stroke-width:0.35201779"
             id="path1095"
             inkscape:connector-curvature="0" />
          <path
             d="m 1371.9401,-457.42001 q 0,5.7423 -5.1484,9.27347 -5.1481,3.49819 -14.0915,3.49819 -4.9503,0 -8.9766,-0.92404 -4.0262,-0.92408 -6.4684,-2.04613 v -9.76848 h 1.0891 q 0.8911,0.62703 2.0463,1.38605 1.1878,0.72605 3.333,1.5841 1.8481,0.75905 4.1911,1.32007 2.3432,0.52803 5.0162,0.52803 3.4983,0 5.1815,-0.75906 1.683,-0.79202 1.683,-2.3101 0,-1.35308 -0.99,-1.9471 -0.9902,-0.62704 -3.7624,-1.18806 -1.3198,-0.29701 -3.5971,-0.62704 -2.244,-0.36301 -4.0921,-0.85804 -5.0493,-1.32007 -7.4913,-4.0922 -2.4422,-2.80514 -2.4422,-6.96334 0,-5.34628 5.0493,-8.87746 5.0822,-3.56419 13.8606,-3.56419 4.1583,0 7.9535,0.85804 3.8282,0.82506 5.9734,1.7821 v 9.37247 h -1.0232 q -2.6401,-1.81509 -6.0393,-2.93715 -3.3662,-1.15505 -6.8312,-1.15505 -2.8713,0 -4.8515,0.79205 -1.947,0.79202 -1.947,2.2441 0,1.32007 0.891,2.0131 0.8911,0.69302 4.1912,1.38607 1.815,0.36303 3.8942,0.72602 2.1121,0.33003 4.2243,0.85806 4.6861,1.22107 6.9302,3.86119 2.2443,2.60714 2.2443,6.53433 z"
             style="font-style:normal;font-variant:normal;font-weight:bold;font-stretch:normal;font-size:50.79999924px;font-family:sans-serif;-inkscape-font-specification:'sans-serif Bold';fill:#f75f49;fill-opacity:1;stroke-width:0.35201779"
             id="path1097"
             inkscape:connector-curvature="0" />
          <path
             d="m 1391.7411,-445.67141 h -11.8806 v -37.06087 h 11.8806 z m 0.3299,-42.34114 h -12.5407 v -9.00946 h 12.5407 z"
             style="font-style:normal;font-variant:normal;font-weight:bold;font-stretch:normal;font-size:50.79999924px;font-family:sans-serif;-inkscape-font-specification:'sans-serif Bold';fill:#f75f49;fill-opacity:1;stroke-width:0.35201779"
             id="path1099"
             inkscape:connector-curvature="0" />
          <path
             d="m 1440.8474,-464.18536 q 0,9.14149 -5.3462,14.42174 -5.3133,5.24727 -14.9496,5.24727 -9.6366,0 -14.9828,-5.24727 -5.3133,-5.28025 -5.3133,-14.42174 0,-9.20746 5.3462,-14.45471 5.3793,-5.24728 14.9499,-5.24728 9.7023,0 14.9828,5.28028 5.313,5.28025 5.313,14.42171 z m -14.6195,9.00946 q 1.1549,-1.41906 1.7159,-3.39915 0.5941,-2.01313 0.5941,-5.54428 0,-3.26717 -0.5941,-5.4783 -0.5939,-2.21109 -1.65,-3.53117 -1.056,-1.35306 -2.5412,-1.91408 -1.485,-0.56105 -3.201,-0.56105 -1.7163,0 -3.0692,0.46204 -1.3201,0.46201 -2.5411,1.84808 -1.0892,1.28707 -1.7492,3.53118 -0.627,2.24411 -0.627,5.6433 0,3.03613 0.561,5.28025 0.5611,2.21112 1.65,3.56418 1.0562,1.28707 2.5081,1.88109 1.4851,0.59404 3.3663,0.59404 1.6171,0 3.0691,-0.52804 1.485,-0.56102 2.5083,-1.84809 z"
             style="font-style:normal;font-variant:normal;font-weight:bold;font-stretch:normal;font-size:50.79999924px;font-family:sans-serif;-inkscape-font-specification:'sans-serif Bold';fill:#f75f49;fill-opacity:1;stroke-width:0.35201779"
             id="path1101"
             inkscape:connector-curvature="0" />
          <path
             d="m 1473.123,-446.00144 q -1.914,0.49504 -4.0591,0.75904 -2.1451,0.29702 -5.2473,0.29702 -6.9302,0 -10.3294,-2.80513 -3.3662,-2.80514 -3.3662,-9.6035 v -17.32587 h -4.8842 v -8.0524 h 4.8842 v -10.59354 h 11.8806 v 10.59354 h 11.1214 v 8.0524 h -11.1214 v 13.13467 q 0,1.9471 0.034,3.39917 0.033,1.45208 0.528,2.60713 0.462,1.15505 1.617,1.8481 1.1883,0.66003 3.4323,0.66003 0.9241,0 2.4091,-0.39603 1.5179,-0.39602 2.1121,-0.72602 h 0.9902 z"
             style="font-style:normal;font-variant:normal;font-weight:bold;font-stretch:normal;font-size:50.79999924px;font-family:sans-serif;-inkscape-font-specification:'sans-serif Bold';fill:#f75f49;fill-opacity:1;stroke-width:0.35201779"
             id="path1103"
             inkscape:connector-curvature="0" />
          <path
             d="m 1516.6853,-462.00724 h -27.1935 q 0.2641,4.35623 3.3003,6.66635 3.0692,2.31011 9.0095,2.31011 3.7621,0 7.2933,-1.35308 3.5312,-1.35306 5.5773,-2.90413 h 1.3201 v 9.53748 q -4.0263,1.61708 -7.5904,2.34312 -3.5643,0.72603 -7.8873,0.72603 -11.1547,0 -17.0952,-5.01626 -5.9401,-5.01624 -5.9401,-14.28972 0,-9.17445 5.6103,-14.52072 5.6434,-5.37929 15.4448,-5.37929 9.0425,0 13.5966,4.58724 4.5543,4.55422 4.5543,13.13466 z m -11.8146,-6.96335 q -0.098,-3.72918 -1.8482,-5.61027 -1.749,-1.8811 -5.4452,-1.8811 -3.4322,0 -5.6431,1.78208 -2.2113,1.78209 -2.4752,5.70929 z"
             style="font-style:normal;font-variant:normal;font-weight:bold;font-stretch:normal;font-size:50.79999924px;font-family:sans-serif;-inkscape-font-specification:'sans-serif Bold';fill:#f75f49;fill-opacity:1;stroke-width:0.35201779"
             id="path1105"
             inkscape:connector-curvature="0" />
          <path
             d="m 1551.9311,-471.41269 h -1.0562 q -0.759,-0.26403 -2.442,-0.39603 -1.6831,-0.13199 -2.8051,-0.13199 -2.5412,0 -4.4884,0.33002 -1.9469,0.33001 -4.1911,1.12206 v 24.81725 h -11.8804 v -37.06088 h 11.8804 v 5.44528 q 3.9272,-3.36618 6.8313,-4.45522 2.9042,-1.12205 5.3463,-1.12205 0.627,0 1.4191,0.033 0.7921,0.0329 1.3861,0.0991 z"
             style="font-style:normal;font-variant:normal;font-weight:bold;font-stretch:normal;font-size:50.79999924px;font-family:sans-serif;-inkscape-font-specification:'sans-serif Bold';fill:#f75f49;fill-opacity:1;stroke-width:0.35201779"
             id="path1107"
             inkscape:connector-curvature="0" />
          <path
             d="m 1581.1706,-455.34089 v -7.7224 q -2.4091,0.198 -5.2142,0.56103 -2.8053,0.33002 -4.2572,0.79203 -1.7824,0.56104 -2.7393,1.6501 -0.9239,1.05604 -0.9239,2.80514 0,1.15505 0.1978,1.88109 0.1981,0.72606 0.99,1.38607 0.7591,0.66002 1.8152,0.99004 1.056,0.29702 3.3002,0.29702 1.782,0 3.5973,-0.72604 1.8479,-0.72602 3.2341,-1.91408 z m 0,5.74228 q -0.9571,0.72604 -2.3761,1.74908 -1.419,1.02307 -2.6733,1.61709 -1.7489,0.79204 -3.6301,1.15508 -1.8811,0.396 -4.1252,0.396 -5.2802,0 -8.8443,-3.26717 -3.5644,-3.26716 -3.5644,-8.34941 0,-4.05921 1.8152,-6.63333 1.8152,-2.57414 5.1483,-4.05923 3.3001,-1.48507 8.1843,-2.11209 4.8842,-0.62704 10.1316,-0.92404 v -0.19802 q 0,-3.06916 -2.5082,-4.22422 -2.5081,-1.18805 -7.3925,-1.18805 -2.937,0 -6.2702,1.05606 -3.3331,1.02304 -4.7851,1.58407 h -1.0892 v -8.94345 q 1.8812,-0.49503 6.1054,-1.15505 4.2572,-0.69305 8.5145,-0.69305 10.1313,0 14.6197,3.13515 4.5212,3.10216 4.5212,9.76851 v 25.21327 h -11.7816 z"
             style="font-style:normal;font-variant:normal;font-weight:bold;font-stretch:normal;font-size:50.79999924px;font-family:sans-serif;-inkscape-font-specification:'sans-serif Bold';fill:#f75f49;fill-opacity:1;stroke-width:0.35201779"
             id="path1109"
             inkscape:connector-curvature="0" />
          <path
             d="m 1642.5536,-464.71337 q 0,4.58723 -1.4191,8.34942 -1.3861,3.76219 -3.6631,6.20431 -2.3761,2.57414 -5.3794,3.8942 -3.0031,1.32006 -6.4352,1.32006 -3.1681,0 -5.3793,-0.69302 -2.2111,-0.66005 -4.5213,-1.88111 v 15.44477 h -11.8806 v -50.65754 h 11.8806 v 3.8612 q 2.7392,-2.17811 5.5774,-3.5312 2.871,-1.35306 6.6004,-1.35306 6.9302,0 10.7585,5.08225 3.8611,5.08229 3.8611,13.95972 z m -12.2435,0.23102 q 0,-5.41229 -1.8482,-7.85442 -1.8481,-2.4421 -5.8413,-2.4421 -1.683,0 -3.4652,0.52801 -1.782,0.49503 -3.3992,1.45208 v 18.64595 q 1.1881,0.46202 2.5412,0.59403 1.3532,0.13197 2.6731,0.13197 4.7193,0 7.0294,-2.73913 2.3102,-2.77214 2.3102,-8.31642 z"
             style="font-style:normal;font-variant:normal;font-weight:bold;font-stretch:normal;font-size:50.79999924px;font-family:sans-serif;-inkscape-font-specification:'sans-serif Bold';fill:#f75f49;fill-opacity:1;stroke-width:0.35201779"
             id="path1111"
             inkscape:connector-curvature="0" />
          <path
             d="m 1663.0148,-445.67141 h -11.8807 v -37.06087 h 11.8807 z m 0.3299,-42.34114 h -12.5407 v -9.00946 h 12.5407 z"
             style="font-style:normal;font-variant:normal;font-weight:bold;font-stretch:normal;font-size:50.79999924px;font-family:sans-serif;-inkscape-font-specification:'sans-serif Bold';fill:#f75f49;fill-opacity:1;stroke-width:0.35201779"
             id="path1113"
             inkscape:connector-curvature="0" />
          <text
             xml:space="preserve"
             style="font-style:normal;font-variant:normal;font-weight:normal;font-stretch:normal;font-size:64.34667206px;line-height:1.25;font-family:'Baskerville Old Face';-inkscape-font-specification:'Baskerville Old Face';letter-spacing:0px;word-spacing:0px;fill:#000000;fill-opacity:1;stroke:none;stroke-width:0.26601648"
             x="517.16016"
             y="-171.46236"
             id="text1006"><tspan
               sodipodi:role="line"
               id="tspan1004"
               x="517.16016"
               y="-112.34793"
               style="stroke-width:0.26601648"></tspan></text>
          <text
             xml:space="preserve"
             style="font-style:normal;font-variant:normal;font-weight:normal;font-stretch:normal;font-size:65.89702606px;line-height:1.25;font-family:Verdana;-inkscape-font-specification:Verdana;letter-spacing:0px;word-spacing:0px;fill:#f75f49;fill-opacity:1;stroke:none;stroke-width:0.2724258"
             x="568.77411"
             y="-290.27814"
             id="text1025"><tspan
               sodipodi:role="line"
               id="tspan1023"
               x="568.77411"
               y="-290.27814"
               style="font-style:normal;font-variant:normal;font-weight:bold;font-stretch:normal;font-family:Verdana;-inkscape-font-specification:'Verdana Bold';fill:#f75f49;fill-opacity:1;stroke-width:0.2724258">Innlandet Helse og Fysioterapi</tspan></text>
          <text
             xml:space="preserve"
             style="font-style:normal;font-variant:normal;font-weight:normal;font-stretch:normal;font-size:64.34667206px;line-height:1.25;font-family:Cambria;-inkscape-font-specification:Cambria;letter-spacing:0px;word-spacing:0px;fill:#000000;fill-opacity:1;stroke:none;stroke-width:0.26601648"
             x="996.16937"
             y="-175.05313"
             id="text1029"><tspan
               sodipodi:role="line"
               id="tspan1027"
               x="996.16937"
               y="-116.95889"
               style="stroke-width:0.26601648" /></text>
        </g>
      </g>
    </g>
  </g>
</svg>
