<?xml version="1.0" encoding="UTF-8" standalone="no"?>
<!-- Created with Inkscape (http://www.inkscape.org/) -->

<svg
   width="91.147392mm"
   height="38.518616mm"
   viewBox="0 0 346.3601 146.37074"
   version="1.1"
   id="svg8"
   inkscape:version="1.1.1 (3bf5ae0d25, 2021-09-20)"
   sodipodi:docname="logo-twolines.svg"
   inkscape:export-filename="C:\xampp\htdocs\klinikk\logo-3.png"
   inkscape:export-xdpi="96"
   inkscape:export-ydpi="96"
   xmlns:inkscape="http://www.inkscape.org/namespaces/inkscape"
   xmlns:sodipodi="http://sodipodi.sourceforge.net/DTD/sodipodi-0.dtd"
   xmlns="http://www.w3.org/2000/svg"
   xmlns:svg="http://www.w3.org/2000/svg"
   xmlns:rdf="http://www.w3.org/1999/02/22-rdf-syntax-ns#"
   xmlns:cc="http://creativecommons.org/ns#"
   xmlns:dc="http://purl.org/dc/elements/1.1/">
  <defs
     id="defs2">
    <linearGradient
       id="linearGradient2379"
       inkscape:swatch="solid">
      <stop
         style="stop-color:#f75f49;stop-opacity:1;"
         offset="0"
         id="stop2377" />
    </linearGradient>
    <linearGradient
       id="linearGradient2371"
       inkscape:swatch="solid">
      <stop
         style="stop-color:#f75f49;stop-opacity:1;"
         offset="0"
         id="stop2369" />
    </linearGradient>
  </defs>
  <sodipodi:namedview
     id="base"
     pagecolor="#ffffff"
     bordercolor="#666666"
     borderopacity="1.0"
     inkscape:pageopacity="0.0"
     inkscape:pageshadow="2"
     inkscape:zoom="1.8035404"
     inkscape:cx="275.29186"
     inkscape:cy="24.673692"
     inkscape:document-units="mm"
     inkscape:current-layer="text868-2"
     showgrid="false"
     inkscape:window-width="1920"
     inkscape:window-height="1017"
     inkscape:window-x="-8"
     inkscape:window-y="-8"
     inkscape:window-maximized="1"
     showborder="true"
     fit-margin-top="0"
     fit-margin-left="0"
     fit-margin-right="0"
     fit-margin-bottom="0"
     inkscape:snap-nodes="false"
     scale-x="3.8"
     inkscape:pagecheckerboard="0" />
  <metadata
     id="metadata5">
    <rdf:RDF>
      <cc:Work
         rdf:about="">
        <dc:format>image/svg+xml</dc:format>
        <dc:type
           rdf:resource="http://purl.org/dc/dcmitype/StillImage" />
        <dc:title />
      </cc:Work>
    </rdf:RDF>
  </metadata>
  <g
     inkscape:label="Layer 1"
     inkscape:groupmode="layer"
     id="layer1"
     transform="translate(275.51708,260.87385)">
    <g
       id="g867"
       transform="translate(-404.28005,327.12755)">
      <g
         style="opacity:1"
         id="layer1-4"
         inkscape:label="Layer 1"
         transform="translate(-42.333333,-18.142876)">
        <flowRoot
           xml:space="preserve"
           id="flowRoot876"
           style="font-style:normal;font-weight:normal;font-size:40px;line-height:1.25;font-family:sans-serif;letter-spacing:0px;word-spacing:0px;fill:#000000;fill-opacity:1;stroke:none"
           transform="matrix(0.26458333,0,0,0.26458333,426.95862,-358.12157)"><flowRegion
             id="flowRegion878"><rect
               id="rect880"
               width="1448.5714"
               height="280"
               x="345.71429"
               y="-1108.9089" /></flowRegion><flowPara
             id="flowPara882" /></flowRoot>
        <text
           id="text952"
           y="155.83679"
           x="466.26822"
           style="font-style:normal;font-weight:normal;font-size:10.5833px;line-height:1.25;font-family:sans-serif;letter-spacing:0px;word-spacing:0px;fill:#f75f49;fill-opacity:1;stroke:none;stroke-width:0.264583"
           xml:space="preserve" />
        <flowRoot
           xml:space="preserve"
           id="flowRoot874"
           style="font-style:normal;font-variant:normal;font-weight:normal;font-stretch:normal;font-size:32px;line-height:1.25;font-family:'Baskerville Old Face';-inkscape-font-specification:'Baskerville Old Face';letter-spacing:0px;word-spacing:0px;fill:#000000;fill-opacity:1;stroke:none"
           transform="matrix(0.26458333,0,0,0.26458333,-147.96763,-706.89292)"><flowRegion
             id="flowRegion876"
             style="font-size:32px"><rect
               id="rect878"
               width="1068.5714"
               height="605.71429"
               x="302.85715"
               y="3662.4382"
               style="font-size:32px" /></flowRegion><flowPara
             id="flowPara880" /></flowRoot>
        <flowRoot
           xml:space="preserve"
           id="flowRoot882"
           style="font-style:normal;font-variant:normal;font-weight:normal;font-stretch:normal;font-size:64px;line-height:1.25;font-family:'Baskerville Old Face';-inkscape-font-specification:'Baskerville Old Face';letter-spacing:0px;word-spacing:0px;fill:#000000;fill-opacity:1;stroke:none"
           transform="matrix(0.26458333,0,0,0.26458333,-147.96763,-706.89292)"><flowRegion
             id="flowRegion884"><rect
               id="rect886"
               width="971.42859"
               height="582.85712"
               x="280"
               y="3673.8669" /></flowRegion><flowPara
             id="flowPara888" /></flowRoot>
        <flowRoot
           xml:space="preserve"
           id="flowRoot894"
           style="font-style:normal;font-variant:normal;font-weight:normal;font-stretch:normal;font-size:64px;line-height:1.25;font-family:'Baskerville Old Face';-inkscape-font-specification:'Baskerville Old Face';letter-spacing:0px;word-spacing:0px;fill:#000000;fill-opacity:1;stroke:none"
           transform="matrix(0.26458333,0,0,0.26458333,-147.96763,-706.89292)"><flowRegion
             id="flowRegion896"><rect
               id="rect898"
               width="154.28572"
               height="240"
               x="274.28571"
               y="3873.8669" /></flowRegion><flowPara
             id="flowPara900" /></flowRoot>
        <path
           style="opacity:1;fill:#003a5d;fill-opacity:1;stroke:none;stroke-width:0.233955;stroke-linecap:butt;stroke-linejoin:miter;stroke-miterlimit:4;stroke-dasharray:none;stroke-opacity:1"
           d="m 173.7168,-456.90155 c 0,0 -4.35503,-2.3765 -1.8365,-7.64782 2.51849,-5.27132 8.23139,-7.74379 8.23139,-7.74379 l 1.05798,-0.94942 4.53288,-3.96464 c 0.51911,-0.4657 0.8978,-0.63508 1.43183,-0.72472 1.42404,-0.16315 4.2936,-0.30905 4.42548,1.1414 0.17569,1.93283 3.43158,1.32541 3.43158,1.32541 l 5.45983,-0.40042 12.90792,-2.30673 c 0,0 3.0127,0.23848 6.13863,-3.94824 3.51419,-5.73984 9.07837,-16.39959 9.07837,-16.39959 l 0.62699,-10.77025 c 0,0 0.70676,-2.85265 -3.49693,-9.49504 -4.29731,-6.7903 -21.96381,-24.54087 -21.96381,-24.54087 l -16.63391,-12.65115 c 0,0 -1.63997,-2.31353 -6.0913,-2.25493 -2.71589,0.0357 -4.24179,0.1888 -5.58964,0.57677 -1.17616,0.0606 -2.18545,0.50552 -2.62882,-1.06869 -0.65469,-2.33099 -1.32951,-6.11857 1.60002,-6.44866 4.15849,-0.46857 6.61844,-1.05427 6.61844,-1.05427 0,0 0.76141,-0.1757 -0.81998,-1.63996 -1.5814,-1.46426 1.05424,-1.99136 1.05424,-1.99136 l 3.5728,2.92848 c 0,0 1.05425,2.69423 1.63995,2.9285 0.58571,0.2343 8.96124,7.55555 11.5969,8.72695 2.63564,1.17143 7.84839,3.74848 8.6098,4.62705 0.76142,0.87855 10.19122,8.49265 10.19122,8.49265 l 2.04994,1.11284 3.72523,1.58766 3.5984,-0.69532 c 0,0 -0.52948,-1.47864 -1.81803,-2.47434 -1.28854,-0.99569 -1.22994,-2.04995 -1.22994,-2.04995 0,0 -0.48004,-1.44192 -0.69973,-3.26085 -0.14476,-1.19806 -0.0366,-2.51976 -0.0994,-3.84225 -0.11648,-2.45197 0.20638,-4.68026 0.33057,-4.90379 0.29284,-0.52712 1.46423,-4.45132 3.33848,-5.15416 1.87425,-0.70285 6.61843,-2.63564 11.71402,0.35142 5.09561,2.98708 4.50989,12.3583 4.50989,12.3583 l -1.69853,6.20843 c 0,0 -0.64427,2.40138 1.99139,2.45996 2.63566,0.0586 3.45564,-1.17141 3.45564,-1.17141 0,0 2.98706,-3.80708 7.4384,-5.97415 4.45131,-2.16711 -2.28423,-5.85702 -2.28423,-5.85702 0,0 -1.81567,-1.87423 -0.35144,-1.58139 1.46426,0.29285 3.80706,-0.41 5.09561,0.52713 1.28854,0.93712 1.8854,1.925 5.38846,4.45133 1.61516,1.16484 0.11708,2.81136 0.11708,2.81136 0,0 -2.51851,1.40569 -2.98707,2.98709 -0.46857,1.58139 -4.50988,6.267 -4.50988,6.267 l -4.21708,3.98274 c 0,0 -2.5185,1.52284 -1.40565,2.81139 1.1128,1.28853 4.93716,10.80752 4.93716,10.80752 0,0 3.03519,8.11452 3.7566,11.76343 0.72954,3.68994 -0.78681,15.03106 -0.78681,15.03106 0,0 -0.64428,1.87426 1.58138,4.15847 2.22568,2.28426 9.37122,12.12404 9.37122,12.53404 0,0.40997 6.03273,11.83115 6.03273,11.83115 0,0 2.22568,3.63134 -0.64427,6.26701 -2.86993,2.63566 -6.55986,6.73558 -11.01118,9.48836 -4.45133,2.75278 -11.71403,8.25837 -13.64684,8.96124 -1.54176,0.56063 -4.66725,2.16978 -6.21939,2.72784 -0.34308,0.12335 -0.777,-0.1021 -0.777,-0.1021 l -1.34462,-0.62218 c -1.27231,-0.30022 -1.32305,0.57367 -1.32305,0.57367 0,0 -5.13688,10.11656 -3.9242,13.01986 0.69103,1.65434 -2.86993,1.38834 -3.39706,0.91982 -0.52712,-0.4686 -3.52088,-5.86568 -3.57945,-7.5642 -0.0548,-1.59554 -1.00139,-16.42038 -0.5644,-18.98333 0.0997,-0.62187 0.5872,-0.82438 1.15317,-0.77939 0.32444,0.0292 0.76509,0.1014 1.4131,0.15902 1.8483,0.11342 5.72358,0.42631 5.72358,0.42631 0,0 1.17041,0.20265 2.35527,-0.55206 1.34711,-1.0543 17.86389,-10.60123 17.86389,-10.60123 0,0 4.04134,-1.69855 -0.81999,-5.56415 -4.86133,-3.86563 -12.41686,-9.95694 -12.41686,-9.95694 0,0 -0.87857,-1.75708 -2.69422,-0.11708 -1.81568,1.63997 -17.68816,11.94832 -17.68816,11.94832 0,0 -2.34281,0.81996 -4.97848,0.8785 -2.63565,0.0587 -21.78733,3.97077 -24.83374,3.51424 -3.18762,-0.2624 -5.03875,-0.20864 -5.73987,-2.33641 -0.33051,-1.51001 -3.60651,5.61635 -11.51348,6.61205 z"
           id="path1027-3-9"
           inkscape:connector-curvature="0"
           sodipodi:nodetypes="csccccsccccccsccsccsccccsccccccscssscsccccscssscsccscsccsccssscccsccccccccccccccccc" />
        <g
           aria-label="Innlandet Helse og Fysioterapi"
           style="font-style:normal;font-weight:normal;font-size:10.5833px;line-height:1.25;font-family:sans-serif;letter-spacing:0px;word-spacing:0px;opacity:1;fill:#f75f49;fill-opacity:1;stroke:none;stroke-width:0.264583"
           id="text868-2"
           transform="translate(-259.99979,-198.04672)">
          <text
             xml:space="preserve"
             style="font-style:normal;font-variant:normal;font-weight:bold;font-stretch:normal;font-size:17.4272px;line-height:1.25;font-family:'Source Sans Pro';-inkscape-font-specification:'Source Sans Pro Bold';fill:#ef7b47;fill-opacity:1;stroke:none;stroke-width:0.266016"
             x="551.30096"
             y="-331.31964"
             id="text2572"><tspan
               sodipodi:role="line"
               id="tspan2570"
               style="font-style:normal;font-variant:normal;font-weight:bold;font-stretch:normal;font-size:17.4272px;font-family:'Source Sans Pro';-inkscape-font-specification:'Source Sans Pro Bold';fill:#ef7b47;fill-opacity:1;stroke-width:0.266016"
               x="551.30096"
               y="-331.31964">INNLANDET</tspan></text>
          <text
             xml:space="preserve"
             style="font-style:normal;font-variant:normal;font-weight:bold;font-stretch:normal;font-size:40.2167px;line-height:1.05;font-family:'Source Sans Pro';-inkscape-font-specification:'Source Sans Pro Bold';fill:#ef7b47;fill-opacity:1;stroke:none;stroke-width:0.266016"
             x="550.99658"
             y="-291.00781"
             id="text2972"><tspan
               sodipodi:role="line"
               id="tspan2970"
               style="font-style:normal;font-variant:normal;font-weight:bold;font-stretch:normal;font-family:'Source Sans Pro';-inkscape-font-specification:'Source Sans Pro Bold';fill:#ef7b47;fill-opacity:1;stroke-width:0.266016"
               x="550.99658"
               y="-291.00781"
               rotate="0 0 0 0 0 0 0 0">HELSE &amp;</tspan><tspan
               sodipodi:role="line"
               style="font-style:normal;font-variant:normal;font-weight:bold;font-stretch:normal;font-family:'Source Sans Pro';-inkscape-font-specification:'Source Sans Pro Bold';fill:#ef7b47;fill-opacity:1;stroke-width:0.266016"
               x="550.99658"
               y="-248.78027"
               id="tspan3754"
               rotate="0 0 0 0 0 0 0 0 0 0 0 0">FYSIOTERAPI</tspan></text>
        </g>
      </g>
    </g>
  </g>
</svg>
