<?xml version="1.0"?>
<svg xmlns="http://www.w3.org/2000/svg" viewBox="0 0 512 512" width="512" height="512"><g id="Outline"><path d="M216,73a9,9,0,0,1-7.882,8.922l-49.11,6.14a8,8,0,0,0-4.665,13.6l48,48,11.314-11.314-36.434-36.434L210.1,97.8A25,25,0,0,0,207,48H16V64H207A9.01,9.01,0,0,1,216,73Z"/><path d="M208.411,229.47l15.178,5.06.845-2.534a44.368,44.368,0,0,0-10.777-45.653l-11.314,11.314a28.453,28.453,0,0,1,6.912,29.279Z"/><path d="M488,192H424a8,8,0,0,0-8,8V368H262.042a542.323,542.323,0,0,0-28.957-77.2,8,8,0,0,0-12.912-2.286l-1.83,1.83a14.627,14.627,0,1,1-20.686-20.686l11.95-11.95a8,8,0,0,0,1.273-9.655,524.871,524.871,0,0,0-42.805-63.281A92.958,92.958,0,0,1,180,184h28a8,8,0,0,0,4.8-1.6l23.12-17.34,4.491,13.47A8,8,0,0,0,248,184h14.942a30.437,30.437,0,0,1-7.912,13.656l-4.687,4.687,11.314,11.314,4.687-4.687A46.277,46.277,0,0,0,279.306,184H288a24.027,24.027,0,0,1,24,24v56a16.019,16.019,0,0,0,16,16h32a8,8,0,0,0,6.074-2.794l27.172-31.7A61.546,61.546,0,0,1,404.6,235.189L395.4,222.1a77.571,77.571,0,0,0-14.305,13L356.32,264H328V208a40.045,40.045,0,0,0-40-40H253.766l-6.177-18.53A8,8,0,0,0,235.2,145.6L205.333,168H195.314l-29.657-29.657-11.314,11.314,18.575,18.575a107.254,107.254,0,0,0-21.51,3.6c-.067.019-.133.041-.2.06l-9.551-9.551-11.314,11.314,4.313,4.313a107.614,107.614,0,0,0-11.288,6.084L89.223,149.909l32.882-4.109A25,25,0,0,0,119,96H16v16H119a9,9,0,0,1,1.116,17.923l-49.112,6.139a8,8,0,0,0-4.665,13.6l83.03,83.03a8.97,8.97,0,1,1-12.687,12.685L77.657,186.343,66.343,197.657l59.03,59.03a8.97,8.97,0,1,1-12.687,12.685L53.657,210.343,42.343,221.657l59.03,59.03a8.97,8.97,0,1,1-12.687,12.685L29.657,234.343,18.343,245.657l59.03,59.03a8.97,8.97,0,1,1-12.687,12.685L21.657,274.343,10.343,285.657l15.675,15.675a51.915,51.915,0,0,0,7.937,69.923A32.036,32.036,0,0,0,16,400v32a32.036,32.036,0,0,0,32,32H488a8,8,0,0,0,8-8V200A8,8,0,0,0,488,192ZM119.982,287.982a25.006,25.006,0,0,0,24-24,24.971,24.971,0,0,0,16.7-42.61l-25.638-25.638a91.083,91.083,0,0,1,15.688-6.961,501.737,501.737,0,0,1,43.193,61.985l-7.586,7.585a30.638,30.638,0,0,0,36.443,48.5A526.475,526.475,0,0,1,245.353,368H180a92,92,0,0,1-84.1-54.711q.058-.649.085-1.307A25.006,25.006,0,0,0,119.982,287.982Zm-8.064,71.868A107.955,107.955,0,0,0,123.364,368H105.55A52.244,52.244,0,0,0,111.918,359.85Zm-74.4-47.013,15.85,15.85a24.943,24.943,0,0,0,33.334,1.761,107.457,107.457,0,0,0,13.274,18.087,36,36,0,1,1-62.458-35.7ZM32,432V400a16.019,16.019,0,0,1,16-16H416v64H48A16.019,16.019,0,0,1,32,432Zm448,16H432V208h48Z"/></g></svg>
