<?xml version="1.0" encoding="UTF-8" standalone="no"?>
<svg
   xmlns:dc="http://purl.org/dc/elements/1.1/"
   xmlns:cc="http://creativecommons.org/ns#"
   xmlns:rdf="http://www.w3.org/1999/02/22-rdf-syntax-ns#"
   xmlns:svg="http://www.w3.org/2000/svg"
   xmlns="http://www.w3.org/2000/svg"
   xmlns:sodipodi="http://sodipodi.sourceforge.net/DTD/sodipodi-0.dtd"
   xmlns:inkscape="http://www.inkscape.org/namespaces/inkscape"
   id="Capa_1"
   enable-background="new 0 0 480.176 480.176"
   height="512"
   viewBox="0 0 480.176 480.176"
   width="512"
   version="1.1"
   sodipodi:docname="relax.svg"
   inkscape:version="0.92.3 (2405546, 2018-03-11)">
  <metadata
     id="metadata23">
    <rdf:RDF>
      <cc:Work
         rdf:about="">
        <dc:format>image/svg+xml</dc:format>
        <dc:type
           rdf:resource="http://purl.org/dc/dcmitype/StillImage" />
      </cc:Work>
    </rdf:RDF>
  </metadata>
  <defs
     id="defs21">
    <filter
       y="-0.15"
       height="1.3"
       x="-0.15"
       width="1.3"
       inkscape:menu-tooltip="Aquarelle paper effect which can be used for pictures as for objects"
       inkscape:menu="Textures"
       inkscape:label="Rough Paper"
       style="color-interpolation-filters:sRGB;"
       id="filter900">
      <feTurbulence
         type="fractalNoise"
         baseFrequency="0.04"
         numOctaves="5"
         seed="0"
         result="result4"
         id="feTurbulence886" />
      <feDisplacementMap
         in="SourceGraphic"
         in2="result4"
         yChannelSelector="G"
         xChannelSelector="R"
         scale="10"
         result="result3"
         id="feDisplacementMap888" />
      <feDiffuseLighting
         lighting-color="rgb(233,230,215)"
         diffuseConstant="1"
         surfaceScale="2"
         result="result1"
         in="result4"
         id="feDiffuseLighting892">
        <feDistantLight
           azimuth="235"
           elevation="40"
           id="feDistantLight890" />
      </feDiffuseLighting>
      <feComposite
         operator="in"
         in="result3"
         in2="result1"
         result="result2"
         id="feComposite894" />
      <feComposite
         in2="result1"
         result="result5"
         operator="arithmetic"
         k1="1.7"
         id="feComposite896" />
      <feBlend
         in="result5"
         in2="result3"
         mode="normal"
         id="feBlend898" />
    </filter>
  </defs>
  <sodipodi:namedview
     pagecolor="#ffffff"
     bordercolor="#666666"
     borderopacity="1"
     objecttolerance="10"
     gridtolerance="10"
     guidetolerance="10"
     inkscape:pageopacity="0"
     inkscape:pageshadow="2"
     inkscape:window-width="1920"
     inkscape:window-height="1017"
     id="namedview19"
     showgrid="false"
     inkscape:zoom="0.4609375"
     inkscape:cx="356.34536"
     inkscape:cy="203.48483"
     inkscape:window-x="-8"
     inkscape:window-y="-8"
     inkscape:window-maximized="1"
     inkscape:current-layer="Capa_1" />
  <path
     d="m 480.093,312.176 c 0.123,-22.696 -15.805,-42.319 -38.041,-46.866 l -24.529,-39.361 c -12.961,-20.835 -36.594,-33.773 -61.672,-33.773 h -39.649 c 0.3,-13.413 -1.282,-26.802 -4.7,-39.776 14.424,-6.849 20.602,-24.066 13.825,-38.524 l -5.984,-12.687 C 313.273,88.335 298.767,81.792 285.114,85.749 278.047,69.272 266.125,55.341 250.937,45.814 240.708,39.298 229.217,35.016 217.218,33.251 c -1.173,-0.2 -2.54,-0.225 -3.782,-0.363 -8.286,-25.11 -35.359,-38.749 -60.47,-30.463 -25.111,8.286 -38.749,35.359 -30.463,60.47 1.37,4.151 3.302,8.096 5.742,11.723 -6.568,10.553 -10.819,22.381 -12.472,34.7 -0.539,3.888 -0.807,7.809 -0.8,11.735 -0.028,13.95 3.29,27.703 9.675,40.106 -10.318,7.117 -14.913,20.047 -11.4,32.079 -21.02,3.439 -39.728,15.759 -50.427,33.963 l -25.589,43.023 c -2.081,0.627 -4.179,1.2 -6.241,1.891 -23.646,7.85 -36.45,33.383 -28.6,57.028 2.54,7.65 7.083,14.48 13.158,19.78 -9.566,5.754 -15.428,16.091 -15.456,27.254 v 32 c 0.002,9.113 3.883,17.795 10.672,23.875 l 10.656,-11.937 c -3.392,-3.041 -5.329,-7.382 -5.328,-11.938 v -32 c 0.012,-8.832 7.168,-15.988 16,-16 h 416 c 8.832,0.012 15.988,7.168 16,16 v 32 c -0.012,8.832 -7.168,15.988 -16,16 L 39.960663,424.89636 25.573557,440.177 H 448.093 c 17.666,-0.018 31.982,-14.334 32,-32 v -32 c -0.039,-11.525 -6.293,-22.133 -16.359,-27.746 10.418,-9.168 16.379,-22.379 16.359,-36.255 z m -76.148,-77.766 19.075,30.615 -84.081,7.289 -30.046,-22.538 c -1.384,-1.04 -3.069,-1.602 -4.8,-1.6 h -3.625 c 6.738,-9.772 11.357,-20.846 13.563,-32.509 0.459,-2.414 0.844,-4.926 1.164,-7.492 h 40.656 c 19.594,10e-4 38.023,10.048 48.094,26.235 z m -99.086,-126.422 6,12.727 c 2.664,5.716 0.827,12.519 -4.351,16.118 -0.564,-1.454 -1,-3 -1.61,-4.407 l -13.416,-31.75 c 5.575,-0.731 10.983,2.225 13.377,7.312 z m -34.125,-15.32 19.453,46.047 c 1.648,3.814 3.075,7.721 4.273,11.7 5.006,15.888 6.871,32.599 5.492,49.2 -0.288,4.401 -0.839,8.781 -1.648,13.117 -2.029,10.959 -6.663,21.269 -13.511,30.061 -1.551,1.927 -3.25,3.731 -5.082,5.394 l -71.095,0.7 c -16.123,-10.015 -29.825,-23.478 -40.123,-39.422 -2.273,-3.43 -4.359,-6.979 -6.25,-10.633 l -23.062,-44.289 c -5.345,-10.187 -8.15,-21.513 -8.176,-33.017 l 5.793,2.088 5.422,-15.047 -9.381,-3.382 c 1.098,-4.94 2.714,-9.75 4.822,-14.35 l 18,12 8.876,-13.312 -18.719,-12.478 c 5.443,-7.223 12.199,-13.356 19.913,-18.077 l 11.284,24 14.484,-6.813 -11.289,-24.011 c 8.228,-2.826 16.906,-4.115 25.6,-3.8 l -5.474,21.894 15.516,3.876 5.911,-23.647 c 5.225,1.331 10.28,3.258 15.065,5.743 l -3.414,9.482 15.047,5.422 2.073,-5.757 c 8.809,7.369 15.733,16.731 20.2,27.311 z m -138.635,82.908 15.963,30.659 c 0.77,1.457 1.5,2.782 2.205,4.046 -6.074,1.664 -12.46,-1.315 -15.088,-7.038 l -5.992,-12.6 c -2.367,-5.126 -1.195,-11.192 2.912,-15.067 z m 35.994,-159.4 c 11.582,0.026 22.244,6.314 27.871,16.437 -21.911,1.831 -42.343,11.8 -57.271,27.943 -6.959,-16.113 0.461,-34.817 16.574,-41.776 4.049,-1.749 8.417,-2.635 12.826,-2.604 z m -91.5,219.172 c 8.985,-15.3 25.314,-25.214 43.371,-26.836 l 0.731,1.539 c 6.706,14.46 23.864,20.747 38.325,14.041 0.074,-0.034 0.148,-0.069 0.221,-0.104 l 0.051,-0.023 c 7.271,10.161 15.826,19.339 25.452,27.305 L 78.968,261.848 c -6.679,0.666 -13.321,1.718 -19.922,2.994 z m -40.539,51.937 c 14.439,-4.807 29.366,-7.999 44.508,-9.515 l 135.531,-13.594 h 85.336 l 14.414,10.812 -92.883,13.258 c -0.557,0.08 -1.105,0.219 -1.633,0.414 L 70.663,344.168 H 45.281 c -16.121,0 -29.19,-13.07 -29.189,-29.191 0.001,-12.565 8.042,-23.72 19.962,-27.692 z m 396.839,56.891 H 416.444 L 232.793,327.887 c -1.11,-0.11 -2.23,0.027 -3.281,0.4 l -46.739,15.889 h -65.847 l 109.136,-40.211 103.596,-14.789 101.635,-9 h 1.516 c 1.125,-0.004 2.25,0.061 3.367,0.195 15.917,1.75 27.917,15.422 27.917,31.805 0,17.648 -14,32 -31.2,32 z"
     id="path2"
     inkscape:connector-curvature="0"
     sodipodi:nodetypes="cccsccccccccsccccccccccccccccccccccccccccccccccccccccccccccccccccccccccccccccccccccccccccccccccccccccccccccccccccccccccsccsccccccccccss"
     style="" />
  <path
     d="m165.398 179.395 10.031 12.469c8.668-6.956 18.865-11.752 29.75-13.993l-3.2-15.672c-13.384 2.751-25.922 8.646-36.581 17.196z"
     id="path4" />
  <path
     d="m244.64 204.809c-5.688 2.68-11.87 4.151-18.156 4.32l-1.313.031.375 16 1.305-.031c13.886-.369 27.24-5.414 37.9-14.32l-10.265-12.266c-2.998 2.504-6.308 4.61-9.846 6.266z"
     id="path6" />
  <path
     d="m199.124 156.59 4.531-15.344c-22.609-6.664-45.343 4.063-54.054 25.532l14.828 6.015c5.641-13.906 19.891-20.555 34.695-16.203z"
     id="path8" />
  <path
     d="m219.393 133.848 14.7 6.3c6.07-14.164 20.281-20.883 34.617-16.383l4.813-15.25c-22.086-6.995-44.852 3.669-54.13 25.333z"
     id="path10" />
  <path
     d="m219.474 146.97h16.006v49.026h-16.006z"
     transform="matrix(.905 -.426 .426 .905 -51.345 113.083)"
     id="path12" />
  <path
     d="m247.038 159.27c8.67-6.955 18.869-11.751 29.755-13.994l-3.219-15.672c-13.38 2.753-25.914 8.647-36.57 17.195z"
     id="path14" />
</svg>
