<?xml version="1.0" encoding="utf-8"?>
<!-- Generator: Adobe Illustrator 22.0.1, SVG Export Plug-In . SVG Version: 6.00 Build 0)  -->
<svg version="1.1" id="Layer_1" xmlns="http://www.w3.org/2000/svg" xmlns:xlink="http://www.w3.org/1999/xlink" x="0px" y="0px"
	 viewBox="0 0 500 145" style="enable-background:new 0 0 500 145;" xml:space="preserve">
<style type="text/css">
	.st0{fill:#4A1D6F;}
	.st1{fill:#AB3F97;}
</style>
<g>
	<path class="st0" d="M39.5,49.2c0.5-1.2,0.9-1.7,2.6-1.7h3c1.5,0,1.8,0.8,1.4,2L27.2,101c-0.7,2-1.4,2.4-3.2,2.4h-2.7
		c-1.6,0-2.3-0.5-3-2.5L0.2,49.6c-0.4-1.2-0.1-2,1.4-2h3.3c1.7,0,2.1,0.5,2.5,1.7l15.5,44.8L39.5,49.2z"/>
	<path class="st0" d="M101.3,101.4c0,1.4-0.4,1.8-1.8,1.8h-2.7c-1.4,0-1.8-0.4-1.8-1.8V78c0-6.1,1.2-9.3,4-12.4
		c2.7-2.8,6.8-4.3,11.5-4.3c2.2,0,4.8,0.3,6.6,0.7c0.9,0.3,1.2,0.6,1.2,1.7v2.6c0,0.9-0.3,1.3-1.4,1.2c-1.4-0.1-4.1-0.3-5.5-0.3
		c-3.3,0-5.9,0.8-7.6,2.5c-2,2-2.7,4.5-2.7,10V101.4z"/>
	<path class="st0" d="M135.2,85.2c0,5.5,0.7,8,2.7,10c1.7,1.7,4.2,2.5,7.6,2.5c1.6,0,3.9-0.3,5.5-0.5c1-0.2,1.4,0.2,1.4,1.2v2.7
		c0,1-0.3,1.4-1.2,1.7c-1.9,0.5-4.6,0.7-6.6,0.7c-4.7,0-8.9-1.5-11.5-4.3c-2.8-3.1-4-6.2-4-12.4V67.3h-4.5c-1.1,0-1.5-0.5-1.5-1.6
		v-2.4c0-1.1,0.4-1.6,1.5-1.6h4.5v-7.8c0-1.4,0.4-1.8,1.8-1.8h2.7c1.4,0,1.8,0.4,1.8,1.8v7.8h12.5c1.1,0,1.5,0.5,1.5,1.6v2.4
		c0,1.1-0.4,1.6-1.5,1.6h-12.5V85.2z"/>
	<path class="st0" d="M163.9,46.7c2.7,0,5,2.3,5,5c0,2.7-2.3,5-5,5c-2.7,0-5-2.3-5-5C158.9,49.1,161.2,46.7,163.9,46.7z M160.7,63.5
		c0-1.4,0.4-1.8,1.8-1.8h2.7c1.4,0,1.8,0.4,1.8,1.8v37.9c0,1.4-0.4,1.8-1.8,1.8h-2.7c-1.4,0-1.8-0.4-1.8-1.8V63.5z"/>
	<path class="st0" d="M181.1,46.1c0-1.4,0.4-1.8,1.8-1.8h2.7c1.4,0,1.8,0.4,1.8,1.8v55.3c0,1.4-0.4,1.8-1.8,1.8h-2.7
		c-1.4,0-1.8-0.4-1.8-1.8V46.1z M214.7,101.7c0.7,0.8,0.4,1.5-0.6,1.5h-4c-1.6,0-2.1-0.3-3-1.4l-13-15.2c-1.5-1.7-1.8-2.3-1.8-3.7
		v-0.6c0-1.5,0.3-2.2,1.7-3.7l13.1-15.4c0.9-1.1,1.4-1.4,3-1.4h4.3c1,0,1.3,0.7,0.6,1.5l-16.4,19.1c-0.2,0.2-0.2,0.4,0,0.6
		L214.7,101.7z"/>
	<path class="st0" d="M238.5,61.4c4.9,0,10.5,1.7,14.2,5.3c3.2,3.2,5.1,7.1,5.1,13.3v21.4c0,1.4-0.4,1.8-1.8,1.8h-2.7
		c-1.4,0-1.8-0.4-1.8-1.8V82c0-5-0.9-8.2-3.6-10.9c-2.4-2.4-5.9-3.7-9.4-3.7c-3.4,0-7,1.3-9.4,3.7c-2.7,2.7-3.6,5.9-3.6,10.9v1
		c0,5,0.9,8.4,3.6,11c2.4,2.4,5.8,3.7,10,3.7c2.3,0,4.7-0.5,6.3-1.2c0.7-0.3,1,0.1,1,0.7v3.6c0,0.7-0.2,1.2-0.9,1.5
		c-1.7,0.7-4.2,1.2-6.9,1.2c-5.4,0-10.4-1.6-14.2-5.2c-3.2-3.2-5.1-7.2-5.1-13.6V80c0-6.2,1.9-10.1,5.1-13.3
		C228.2,63.1,233.6,61.4,238.5,61.4z"/>
	<path class="st0" d="M269,1.8c0-1.4,0.4-1.8,1.8-1.8h2.7c1.4,0,1.8,0.4,1.8,1.8v99.6c0,1.4-0.4,1.8-1.8,1.8h-2.7
		c-1.4,0-1.8-0.4-1.8-1.8V1.8z"/>
	<path class="st0" d="M80.9,66.7c-3.7-3.6-9.3-5.3-14.2-5.3s-9.6,1.7-13.4,5.3c-3.2,3.2-5.1,7.1-5.1,13.3v5c0,6.2,1.9,10.1,5.1,13.3
		c3.7,3.6,9.2,5.3,15.4,5.3c3.9,0,9.1-0.7,12.2-2c0.7-0.3,0.9-0.7,0.9-1.5V97c0-0.8-0.3-1.3-1.3-1.1c-3.7,1.1-8,1.7-11.8,1.7
		c-4.4,0-8.2-1.3-10.7-3.8c-2.1-2.1-3.1-4.7-3.4-8.1h28c2.7,0,3.4-0.9,3.4-3.5V80C86,73.7,84.1,69.8,80.9,66.7z M79.7,80H54.5
		c0,0,0,0,0,0v-0.3c0-7.4,4.2-12.3,12-12.3s13.2,4.9,13.2,12.3V80z"/>
</g>
<g>
	<path class="st1" d="M313.1,142.9c0,1.4-0.6,2-2,2h-2.8c-1.4,0-2-0.6-2-2V49.6c0-1.4,0.6-2,2-2h2.8c1.4,0,2,0.6,2,2V142.9z
		 M320.5,78.5c-1.4,0-2-0.6-2-2v-2.2c0-1.4,0.6-2,2-2h23V49.6c0-1.4,0.6-2,2-2h2.8c1.4,0,2,0.6,2,2v51.7c0,1.4-0.6,2-2,2h-2.8
		c-1.4,0-2-0.6-2-2V78.5H320.5z"/>
	<path class="st1" d="M440.2,61.4c3.5,0,7.1,0.5,9.9,1.4c0.8,0.2,1.2,0.6,1.2,1.6v2.8c0,0.9-0.6,1.2-1.4,1c-3.2-0.7-6.3-1.2-9.3-1.2
		c-5.2,0-9.1,2.2-9.1,6.2c0,8.7,22.5,3.3,22.5,18.1c0,3.7-1.4,6.6-3.7,8.6c-2.7,2.4-7.3,3.6-12.4,3.6c-3.7,0-7.6-0.5-11-1.4
		c-1.1-0.3-1.5-0.9-1.5-1.9v-2.5c0-1,0.4-1.7,1.7-1.3c3.5,0.9,7.3,1.5,10.3,1.5c5.6,0,10.3-1.8,10.3-6.3c0-9.4-22.5-3.3-22.5-18
		C425.2,65.6,431.5,61.4,440.2,61.4z"/>
	<path class="st1" d="M408.2,46.1c0-1.4,0.4-1.8,1.8-1.8h2.7c1.4,0,1.8,0.4,1.8,1.8v55.3c0,1.4-0.4,1.8-1.8,1.8h-2.7
		c-1.4,0-1.8-0.4-1.8-1.8V46.1z"/>
	<path class="st1" d="M393.7,66.7c-3.7-3.6-9.3-5.3-14.2-5.3s-9.6,1.7-13.4,5.3c-3.2,3.2-5.1,7.1-5.1,13.3v5
		c0,6.2,1.9,10.1,5.1,13.3c3.7,3.6,9.2,5.3,15.4,5.3c3.9,0,9.1-0.7,12.2-2c0.7-0.3,0.9-0.7,0.9-1.5V97c0-0.8-0.3-1.3-1.3-1.1
		c-3.7,1.1-8,1.7-11.8,1.7c-4.4,0-8.2-1.3-10.7-3.8c-2.1-2.1-3.1-4.7-3.4-8.1h28c2.7,0,3.4-0.9,3.4-3.5V80
		C398.9,73.7,397,69.8,393.7,66.7z M392.6,80h-25.2c0,0,0,0,0,0v-0.3c0-7.4,4.2-12.3,12-12.3c7.8,0,13.2,4.9,13.2,12.3V80z"/>
	<path class="st1" d="M494.9,66.7c-3.7-3.6-9.3-5.3-14.2-5.3c-4.9,0-9.6,1.7-13.4,5.3c-3.2,3.2-5.1,7.1-5.1,13.3v5
		c0,6.2,1.9,10.1,5.1,13.3c3.7,3.6,9.2,5.3,15.4,5.3c3.9,0,9.1-0.7,12.2-2c0.7-0.3,0.9-0.7,0.9-1.5V97c0-0.8-0.3-1.3-1.3-1.1
		c-3.7,1.1-8,1.7-11.8,1.7c-4.4,0-8.2-1.3-10.7-3.8c-2.1-2.1-3.1-4.7-3.4-8.1h28c2.7,0,3.4-0.9,3.4-3.5V80
		C500,73.7,498.1,69.8,494.9,66.7z M493.7,80h-25.2c0,0,0,0,0,0v-0.3c0-7.4,4.2-12.3,12-12.3c7.8,0,13.2,4.9,13.2,12.3V80z"/>
</g>
<g>
	<path class="st0" d="M367.8,131.5c-1.2,0-2.3,0.5-3.2,1.4c-1,1-1.3,2.2-1.3,4.1v7.2c0,0.5-0.2,0.7-0.7,0.7h-1
		c-0.5,0-0.7-0.2-0.7-0.7v-8c0-2.3,0.7-3.8,1.9-5c1.4-1.3,3.2-2,5-2h0c1.8,0,3.7,0.7,5.1,2c1.2,1.2,1.9,2.6,1.9,5v8
		c0,0.5-0.2,0.7-0.7,0.7h-1c-0.5,0-0.7-0.2-0.7-0.7V137c0-1.9-0.3-3.1-1.3-4.1C370.3,132,369.1,131.5,367.8,131.5z"/>
	<path class="st0" d="M399.8,136.2v-12.7c0-0.5-0.2-0.7-0.7-0.7h-1c-0.5,0-0.7,0.2-0.7,0.7v7.3c-1.4-1.1-3.2-1.6-4.9-1.6
		c-1.8,0-3.9,0.7-5.3,2c-1.2,1.2-1.9,2.6-1.9,5v1.8c0,2.4,0.7,3.9,1.9,5.1c1.4,1.4,3.3,2,5.3,2c1,0,1.9-0.2,2.6-0.5
		c0.3-0.1,0.3-0.3,0.3-0.6v-1.3c0-0.2-0.1-0.3-0.4-0.2c-0.6,0.2-1.5,0.4-2.4,0.4c-1.6,0-2.8-0.5-3.7-1.4c-1-1-1.3-2.3-1.3-4.1v-0.4
		c0-1.9,0.3-3.1,1.3-4.1c0.9-0.9,2.2-1.4,3.5-1.4c1.3,0,2.6,0.5,3.5,1.4c1,1,1.3,2.2,1.3,4.1v7.3c0,0.5,0.2,0.7,0.7,0.7h1
		c0.3,0,0.4,0,0.5-0.1c0.1-0.1,0.1-0.3,0.1-0.5L399.8,136.2C399.8,136.2,399.8,136.2,399.8,136.2z"/>
	<path class="st0" d="M421.2,123.5c0-0.5,0.2-0.7,0.7-0.7h1c0.5,0,0.7,0.2,0.7,0.7v18.4c0,0.7,0.3,0.9,0.9,0.9c0.2,0,0.5,0,0.7-0.1
		c0.2-0.1,0.4,0,0.4,0.2v1.2c0,0.3-0.1,0.4-0.3,0.6c-0.3,0.2-0.9,0.3-1.4,0.3c-0.9,0-1.6-0.2-2-0.7c-0.4-0.5-0.6-1.2-0.6-2.2V123.5z
		"/>
	<path class="st0" d="M453.1,129.3c0.5,0,0.7,0.1,0.8,0.6l4.9,12.2l4.9-12.2c0.2-0.4,0.3-0.6,0.9-0.6h1.1c0.3,0,0.5,0.1,0.5,0.3
		c0,0.1,0,0.2-0.1,0.3l-5.8,14.2c-0.2,0.5-0.4,0.7-1,0.7h-1.1c-0.6,0-0.8-0.1-1-0.7l-5.7-14.3c0-0.1-0.1-0.2-0.1-0.2
		c0-0.2,0.1-0.4,0.6-0.4H453.1z"/>
	<path class="st0" d="M480.5,142.8h1.8c0.5,0,0.7,0.2,0.7,0.7v0.7c0,0.5-0.2,0.7-0.7,0.7h-6.2c-0.5,0-0.7-0.2-0.7-0.7v-0.7
		c0-0.5,0.2-0.7,0.7-0.7h1.8v-16.7h-1.8c-0.5,0-0.7-0.2-0.7-0.7v-0.7c0-0.5,0.2-0.7,0.7-0.7h6.2c0.5,0,0.7,0.2,0.7,0.7v0.7
		c0,0.5-0.2,0.7-0.7,0.7h-1.8V142.8z"/>
	<path class="st0" d="M489.4,144.2c0,0.5-0.2,0.7-0.7,0.7h-1c-0.5,0-0.7-0.2-0.7-0.7v-12.8h-1.7c-0.4,0-0.6-0.2-0.6-0.6v-0.9
		c0-0.4,0.2-0.6,0.6-0.6h1.7v-0.4c0-2.3,0.4-3.5,1.5-4.6c1-1.1,2.5-1.6,4.3-1.6c0.8,0,1.8,0.1,2.5,0.3c0.3,0.1,0.5,0.2,0.5,0.6v1
		c0,0.4-0.2,0.5-0.5,0.5c-0.6-0.1-1.5-0.2-2.1-0.2c-1.2,0-2.2,0.3-2.8,0.9c-0.7,0.7-1,1.6-1,3.5h4.7c0.4,0,0.6,0.2,0.6,0.6v0.9
		c0,0.4-0.2,0.6-0.6,0.6h-4.7V144.2z"/>
	<path class="st0" d="M415.8,131.2c-1.4-1.3-3.5-2-5.3-2c-1.8,0-3.6,0.7-5,2c-1.2,1.2-1.9,2.6-1.9,5v1.9c0,2.3,0.7,3.8,1.9,5
		c1.4,1.3,3.5,2,5.8,2c1.5,0,3.4-0.3,4.6-0.7c0.3-0.1,0.3-0.2,0.3-0.6v-1.2c0-0.3-0.1-0.5-0.5-0.4c-1.4,0.4-3,0.6-4.4,0.6
		c-1.6,0-3.1-0.5-4-1.4c-0.8-0.8-1.2-1.7-1.3-3h10.5c1,0,1.3-0.3,1.3-1.3v-0.8C417.7,133.8,417,132.4,415.8,131.2z M415.4,136.2
		h-9.5c0,0,0,0,0,0V136c0-2.8,1.6-4.6,4.5-4.6c2.9,0,4.9,1.8,4.9,4.6V136.2z"/>
	<path class="st0" d="M442.4,129.2c1.8,0,3.9,0.7,5.3,2c1.2,1.2,1.9,2.6,1.9,5v8c0,0.5-0.2,0.7-0.7,0.7h-1c-0.5,0-0.7-0.2-0.7-0.7
		v-7.3c0-1.9-0.3-3.1-1.3-4.1c-0.9-0.9-2.2-1.4-3.5-1.4c-1.3,0-2.6,0.5-3.5,1.4c-1,1-1.3,2.2-1.3,4.1v0.4c0,1.9,0.3,3.1,1.3,4.1
		c0.9,0.9,2.2,1.4,3.7,1.4c0.9,0,1.8-0.2,2.4-0.4c0.2-0.1,0.4,0,0.4,0.2v1.3c0,0.3-0.1,0.4-0.3,0.6c-0.7,0.3-1.6,0.5-2.6,0.5
		c-2,0-3.9-0.6-5.3-2c-1.2-1.2-1.9-2.7-1.9-5.1v-1.8c0-2.3,0.7-3.8,1.9-5C438.5,129.9,440.6,129.2,442.4,129.2z"/>
	<path class="st0" d="M355.7,131.2c-1.4-1.3-3.5-2-5.3-2c-1.8,0-3.6,0.7-5,2c-1.2,1.2-1.9,2.6-1.9,5v1.9c0,2.3,0.7,3.8,1.9,5
		c1.4,1.3,3.5,2,5.8,2c1.5,0,3.4-0.3,4.6-0.7c0.3-0.1,0.3-0.2,0.3-0.6v-1.2c0-0.3-0.1-0.5-0.5-0.4c-1.4,0.4-3,0.6-4.4,0.6
		c-1.6,0-3.1-0.5-4-1.4c-0.8-0.8-1.2-1.7-1.3-3h10.5c1,0,1.3-0.3,1.3-1.3v-0.8C357.7,133.8,356.9,132.4,355.7,131.2z M355.3,136.2
		h-9.5c0,0,0,0,0,0V136c0-2.8,1.6-4.6,4.5-4.6c2.9,0,4.9,1.8,4.9,4.6V136.2z"/>
</g>
</svg>
